<?xml version="1.0" encoding="utf-8"?>
<!-- Svg Vector Icons : http://www.onlinewebfonts.com/icon -->
<!DOCTYPE svg PUBLIC "-//W3C//DTD SVG 1.1//EN" "http://www.w3.org/Graphics/SVG/1.1/DTD/svg11.dtd">
<svg version="1.1" xmlns="http://www.w3.org/2000/svg" xmlns:xlink="http://www.w3.org/1999/xlink" x="0px" y="0px" viewBox="0 0 1000 1000" enable-background="new 0 0 1000 1000" xml:space="preserve">
<metadata> Svg Vector Icons : http://www.onlinewebfonts.com/icon </metadata>
<g><g transform="translate(0.000000,511.000000) scale(0.100000,-0.100000)"><path d="M4696.4,4726c-425-46-891.6-219.1-1270.6-473.2c-210.3-140.2-598.1-528-738.3-738.3c-223.4-333-392.1-753.6-446.9-1108.5l-28.5-177.5l-219.1-72.3C790.3,1764.2,52,1091.6,102.4,436.6c30.7-392.1,276-733.9,771.1-1066.9c308.9-208.1,580.5-337.4,1069.1-510.4l258.5-89.8l-663.8-931.1c-363.7-510.4-679.1-963.9-701-1005.5c-159.9-306.7,190.6-661.6,900.4-907c1713.2-595.9,4817.4-595.9,6530.5-2.2C9034-3809,9367-3430,9128.2-3092.7c-35,48.2-348.3,488.5-694.5,974.9L7805-1230.6l258.5,89.8c341.7,120.5,449.1,166.5,681.3,282.6C9312.2-573.4,9730.6-179,9859.9,191.2c57,164.3,52.6,468.8-8.8,633.1c-195,521.4-880.7,1018.7-1838,1332l-219.1,72.3l-28.5,177.5c-54.8,354.9-223.4,775.5-446.9,1108.5c-140.2,210.3-528,598.1-738.3,738.3C6028.3,4623,5340.4,4796.1,4696.4,4726z M5375.5,4358c663.8-100.8,1275-486.3,1662.8-1049.3c111.7-159.9,278.2-530.2,330.8-725.1c24.1-96.4,57-276,70.1-398.7c30.7-256.3,32.9-249.7-157.7-379c-186.2-127.1-418.4-236.6-698.8-328.6c-1253.1-418.4-2972.8-271.7-3857.8,328.6c-190.6,129.2-188.4,120.5-157.7,389.9c15.3,129.3,46,308.9,72.3,398.7c52.6,190.6,223.4,563,328.6,714.2C3509,4095.1,4440.1,4500.4,5375.5,4358z M2198.9,1818.9c0-65.7,273.8-282.6,547.7-435.9c1187.4-657.2,3325.5-657.2,4512.9,0c273.8,153.3,547.7,370.2,547.7,435.9c0,43.8,17.5,39.4,271.7-54.8c703.2-265.1,1226.8-628.7,1404.2-979.3c89.8-175.3,92-379,8.8-558.6c-151.2-324.2-620-674.7-1235.6-926.7c-882.9-359.3-1993.6-545.5-3253.2-545.5c-1259.7,0-2370.4,186.2-3253.2,545.5C1134.3-448.5,665.4-98,514.3,226.3c-83.3,179.6-81.1,383.4,8.8,560.8c173.1,343.9,698.8,709.8,1399.9,974.9C2170.5,1856.2,2198.9,1862.7,2198.9,1818.9z M2924.1-1403.6c657.2-133.6,1299.1-195,2079-192.8c808.4,0,1441.5,61.3,2135.9,203.7c166.5,35,306.7,61.3,308.9,59.2c2.2-2.2,269.5-376.8,595.9-832.5l595.9-828.1l-56.9-142.4c-32.9-78.9-54.8-144.6-50.4-149c4.4-4.4,67.9-32.9,140.2-65.7l131.4-59.1l-65.7-54.8c-155.5-124.9-587.1-297.9-1029.6-414.1c-1978.2-512.6-5295-319.8-6375,370.2l-129.2,83.2l92,54.8l92,54.8l-46,87.6c-24.1,48.2-41.6,103-37.2,124.9c4.4,19.7,287,427.2,630.9,907c576.2,801.8,628.7,869.7,676.9,856.6C2643.7-1346.7,2781.7-1375.2,2924.1-1403.6z"/><path d="M4696.4,3654.7c-387.8-83.2-762.4-374.6-939.8-731.7c-124.9-254.1-164.3-451.3-146.8-755.8c6.6-131.4,17.5-278.2,26.3-322c13.1-78.9,15.3-81.1,170.9-116.1c85.4-19.7,170.9-41.6,190.6-46c32.9-8.8,32.9,2.2,6.6,116.1c-17.5,70.1-37.2,230-43.8,357.1c-21.9,365.8,63.5,617.8,291.4,856.6c571.8,600.3,1564.2,326.4,1774.5-490.7c39.4-155.5,28.5-503.9-24.1-720.8c-15.3-70.1-26.3-127.1-19.7-127.1c4.4,0,89.8,19.7,190.6,46c181.8,46,184,46,197.2,124.9c37.2,212.5,39.4,565.2,4.4,727.3C6214.5,3332.7,5458.7,3819,4696.4,3654.7z"/><path d="M4078.6,2272.4c-81.1-89.8-35-210.3,135.8-363.7c188.4-170.9,473.2-243.2,569.6-146.8c83.2,83.2,43.8,197.2-116.1,343.9c-135.8,124.9-262.9,186.2-420.6,197.2C4137.7,2314,4109.3,2307.5,4078.6,2272.4z"/><path d="M5555.1,2254.9c-151.2-70.1-271.7-168.7-328.6-271.7c-100.8-177.5-30.7-282.6,170.9-258.5c335.2,39.4,687.9,405.3,530.2,547.7C5866.2,2327.2,5693.1,2320.6,5555.1,2254.9z"/><path d="M1979.9,1025.9C1482.6,846.2,1338,232.8,1706-133c142.4-144.6,273.8-197.2,492.9-197.2s350.5,52.6,492.9,197.2C2836.4,9.4,2889,140.8,2889,359.9s-52.6,350.5-197.2,492.9C2512.2,1032.5,2205.5,1106.9,1979.9,1025.9z M2337,679.7c225.7-94.2,280.4-387.8,105.2-563c-142.4-142.4-343.9-142.4-486.3,0C1684.1,386.2,1984.3,828.7,2337,679.7z"/><path d="M7588.1,1025.9c-497.3-179.6-641.9-793-273.8-1158.9c142.4-144.6,273.8-197.2,492.9-197.2c219.1,0,350.5,52.6,492.9,197.2c144.6,142.4,197.2,273.8,197.2,492.9s-52.6,350.5-197.2,492.9C8120.5,1032.5,7813.8,1106.9,7588.1,1025.9z M7945.2,679.7c225.6-94.2,280.4-387.8,105.2-563c-142.4-142.4-343.9-142.4-486.3,0C7292.4,386.2,7592.5,828.7,7945.2,679.7z"/><path d="M4784,500.1c-497.3-179.6-641.9-793-273.8-1158.9c142.4-144.6,273.8-197.2,492.9-197.2c219.1,0,350.5,52.6,492.9,197.2c144.6,142.4,197.2,273.8,197.2,492.9S5640.6,184.6,5496,327C5316.3,506.7,5009.6,581.2,4784,500.1z M5141.1,154c225.7-94.2,280.4-387.8,105.2-563c-142.4-142.4-344-142.4-486.4,0C4488.3-139.6,4788.4,302.9,5141.1,154z"/><path d="M4361.2-2457.4c-15.3-17.5-21.9-324.2-6.6-339.6c4.4-4.4,85.4-6.6,177.5-2.2l166.5,8.8l-6.6,166.5l-6.6,168.7l-153.3,6.6C4446.6-2446.4,4370-2448.6,4361.2-2457.4z"/><path d="M5200.2-2619.5v-175.3h175.3h175.3v175.3v175.3h-175.3h-175.3V-2619.5z"/><path d="M3563.8-2503.4l-92-8.8l13.1-157.7c6.6-87.6,19.7-166.5,28.5-175.3c8.8-11,87.6-11,175.3-2.2l159.9,15.3l-15.3,131.4c-6.6,72.3-13.1,149-13.1,170.9C3820.1-2485.8,3791.6-2483.7,3563.8-2503.4z"/><path d="M6070-2566.9c-8.8-48.2-15.3-127.1-15.3-177.4v-89.8l159.9-8.8c85.4-4.4,162.1-4.4,166.5-2.2c13.1,8.8,41.6,322,30.7,335.2c-4.4,6.6-81.1,13.1-168.7,17.5l-159.9,8.8L6070-2566.9z"/><path d="M6939.7-2584.4c-4.4-13.1-15.3-89.8-26.3-170.9c-21.9-166.5-32.9-155.5,195-181.8l122.7-15.3l26.3,168.7c15.3,92,24.1,170.9,19.7,173c-2.2,4.4-78.9,15.3-168.7,28.5C6996.6-2566.9,6946.2-2569.1,6939.7-2584.4z"/><path d="M2757.6-2602c-72.3-11-133.6-24.1-138-28.5c-4.4-4.4,4.4-83.2,19.7-175.3l26.3-168.7l67.9,13.2c37.2,4.4,111.7,17.5,164.3,24.1l94.2,15.3l-15.3,155.5c-8.8,87.6-19.7,164.3-24.1,173.1C2939.4-2573.5,2935-2573.5,2757.6-2602z"/><path d="M7798.4-2733.4c-24.1-74.5-57-238.8-57-276c0-32.9,28.5-48.2,146.8-78.9c81.1-19.7,153.3-28.5,159.9-19.7c26.3,28.5,89.8,291.4,78.9,311.1c-6.6,11-65.7,30.7-127.1,46c-63.5,13.1-133.6,30.7-155.5,37.2C7824.7-2709.3,7802.8-2718.1,7798.4-2733.4z"/><path d="M1916.4-2772.8c-76.7-24.1-144.6-48.2-151.2-52.6c-13.1-15.3,59.2-276,85.4-306.7c8.8-8.8,83.2,0,168.7,21.9l151.2,39.4l-19.7,87.6c-37.2,173.1-63.5,254.1-78.9,251.9C2063.1-2731.2,1993-2750.9,1916.4-2772.8z"/></g></g>
</svg>