<?xml version="1.0" encoding="utf-8"?>
<!-- Generator: Adobe Illustrator 24.0.2, SVG Export Plug-In . SVG Version: 6.00 Build 0)  -->
<svg version="1.1" id="Слой_1" xmlns="http://www.w3.org/2000/svg" xmlns:xlink="http://www.w3.org/1999/xlink" x="0px" y="0px"
	 viewBox="0 0 842 595" style="enable-background:new 0 0 842 595;" xml:space="preserve">
<style type="text/css">
	.st0{fill-rule:evenodd;clip-rule:evenodd;fill:#DFF068;}
	.st1{fill-rule:evenodd;clip-rule:evenodd;fill:#E5ED6E;}
	.st2{fill-rule:evenodd;clip-rule:evenodd;fill:#FE929F;}
	.st3{fill-rule:evenodd;clip-rule:evenodd;fill:#C698C9;}
	.st4{fill-rule:evenodd;clip-rule:evenodd;fill:#F3B6D8;}
	.st5{fill-rule:evenodd;clip-rule:evenodd;fill:#EBD3A4;}
	.st6{fill-rule:evenodd;clip-rule:evenodd;fill:#D8B997;}
	.st7{fill-rule:evenodd;clip-rule:evenodd;fill:#E0D350;}
	.st8{fill-rule:evenodd;clip-rule:evenodd;fill:#BD9FC1;}
	.st9{fill-rule:evenodd;clip-rule:evenodd;fill:#FEB160;}
	.st10{fill-rule:evenodd;clip-rule:evenodd;}
	.st11{fill-rule:evenodd;clip-rule:evenodd;fill:#F0BFD2;}
	.st12{fill-rule:evenodd;clip-rule:evenodd;fill:#8EB09F;}
	.st13{fill-rule:evenodd;clip-rule:evenodd;fill:#FDFF68;}
	.st14{fill-rule:evenodd;clip-rule:evenodd;fill:#E1F853;}
	.st15{fill-rule:evenodd;clip-rule:evenodd;fill:#FFB658;}
	.st16{fill-rule:evenodd;clip-rule:evenodd;fill:#FA566C;}
	.st17{fill-rule:evenodd;clip-rule:evenodd;fill:#F9B3D8;}
	.st18{fill-rule:evenodd;clip-rule:evenodd;fill:#F5B0DE;}
	.st19{fill-rule:evenodd;clip-rule:evenodd;fill:#89ACCC;}
	.st20{fill-rule:evenodd;clip-rule:evenodd;fill:#D8B398;}
	.st21{fill-rule:evenodd;clip-rule:evenodd;fill:#AFE1BE;}
	.st22{fill-rule:evenodd;clip-rule:evenodd;fill:#B5B26D;}
	.st23{fill-rule:evenodd;clip-rule:evenodd;fill:#F3FF6F;}
	.st24{fill-rule:evenodd;clip-rule:evenodd;fill:#FFD89A;}
	.st25{fill-rule:evenodd;clip-rule:evenodd;fill:#D1E1A0;}
	.st26{fill-rule:evenodd;clip-rule:evenodd;fill:#F4FC95;}
	.st27{fill-rule:evenodd;clip-rule:evenodd;fill:#B3E2B8;}
	.st28{fill-rule:evenodd;clip-rule:evenodd;fill:#D6CCC0;}
	.st29{fill-rule:evenodd;clip-rule:evenodd;fill:#EBC363;}
	.st30{fill-rule:evenodd;clip-rule:evenodd;fill:#CBE488;}
	.st31{fill-rule:evenodd;clip-rule:evenodd;fill:#E2967F;}
	.st32{fill-rule:evenodd;clip-rule:evenodd;fill:#CFE897;}
	.st33{fill-rule:evenodd;clip-rule:evenodd;fill:#9DE3D9;}
	.st34{fill-rule:evenodd;clip-rule:evenodd;fill:#FF9B99;}
	.st35{fill-rule:evenodd;clip-rule:evenodd;fill:#CA9ACA;}
	.st36{fill-rule:evenodd;clip-rule:evenodd;fill:#DFF264;}
	.st37{fill-rule:evenodd;clip-rule:evenodd;fill:#99ACD2;}
	.st38{fill-rule:evenodd;clip-rule:evenodd;fill:#FFC299;}
	.st39{fill-rule:evenodd;clip-rule:evenodd;fill:#E28CA9;}
	.st40{fill-rule:evenodd;clip-rule:evenodd;fill:#D7C9C9;}
	.st41{fill-rule:evenodd;clip-rule:evenodd;fill:#A2B782;}
	.st42{fill-rule:evenodd;clip-rule:evenodd;fill:#F3B9DF;}
	.st43{fill-rule:evenodd;clip-rule:evenodd;fill:#8CB5CE;}
	.st44{fill-rule:evenodd;clip-rule:evenodd;fill:#F76578;}
	.st45{fill-rule:evenodd;clip-rule:evenodd;fill:#F8FF60;}
	.st46{fill-rule:evenodd;clip-rule:evenodd;fill:#FDB64D;}
	.st47{fill-rule:evenodd;clip-rule:evenodd;fill:#DFD44B;}
	.st48{fill-rule:evenodd;clip-rule:evenodd;fill:#9CDFC3;}
	.st49{fill-rule:evenodd;clip-rule:evenodd;fill:#F9F66B;}
	.st50{fill-rule:evenodd;clip-rule:evenodd;fill:#67807B;}
	.st51{fill-rule:evenodd;clip-rule:evenodd;fill:#AFB579;}
	.st52{fill-rule:evenodd;clip-rule:evenodd;fill:#8D84BD;}
	.st53{fill-rule:evenodd;clip-rule:evenodd;fill:#AFB168;}
	.st54{fill-rule:evenodd;clip-rule:evenodd;fill:#DAD545;}
	.st55{fill-rule:evenodd;clip-rule:evenodd;fill:#A3D5DE;}
	.st56{fill-rule:evenodd;clip-rule:evenodd;fill:#F7CF90;}
	.st57{fill-rule:evenodd;clip-rule:evenodd;fill:#FBFD6B;}
	.st58{fill-rule:evenodd;clip-rule:evenodd;fill:#B5EBB8;}
	.st59{fill-rule:evenodd;clip-rule:evenodd;fill:#F6CA81;}
	.st60{fill-rule:evenodd;clip-rule:evenodd;fill:#D9CBC6;}
	.st61{fill-rule:evenodd;clip-rule:evenodd;fill:#F7B3DA;}
	.st62{fill-rule:evenodd;clip-rule:evenodd;fill:#99D8D3;}
	.st63{fill-rule:evenodd;clip-rule:evenodd;fill:#B3E8B4;}
	.st64{fill-rule:evenodd;clip-rule:evenodd;fill:#DA93D1;}
	.st65{fill-rule:evenodd;clip-rule:evenodd;fill:#FECF8B;}
	.st66{fill-rule:evenodd;clip-rule:evenodd;fill:#C3BA93;}
	.st67{fill-rule:evenodd;clip-rule:evenodd;fill:#B3B17B;}
	.st68{fill-rule:evenodd;clip-rule:evenodd;fill:#99AEE0;}
	.st69{fill-rule:evenodd;clip-rule:evenodd;fill:#FE9D68;}
	.st70{fill-rule:evenodd;clip-rule:evenodd;fill:#95B871;}
	.st71{fill-rule:evenodd;clip-rule:evenodd;fill:#EDD743;}
	.st72{fill-rule:evenodd;clip-rule:evenodd;fill:#D499C8;}
	.st73{fill-rule:evenodd;clip-rule:evenodd;fill:#FE969D;}
	.st74{fill-rule:evenodd;clip-rule:evenodd;fill:#99DBD7;}
	.st75{fill-rule:evenodd;clip-rule:evenodd;fill:#FFC396;}
	.st76{fill-rule:evenodd;clip-rule:evenodd;fill:#CCEAA0;}
	.st77{fill-rule:evenodd;clip-rule:evenodd;fill:#DA94A4;}
	.st78{fill-rule:evenodd;clip-rule:evenodd;fill:#E3F663;}
	.st79{fill-rule:evenodd;clip-rule:evenodd;fill:#FBCD91;}
	.st80{fill-rule:evenodd;clip-rule:evenodd;fill:#CFA1D2;}
	.st81{fill-rule:evenodd;clip-rule:evenodd;fill:#D4B595;}
	.st82{fill-rule:evenodd;clip-rule:evenodd;fill:#D8CCC4;}
	.st83{fill-rule:evenodd;clip-rule:evenodd;fill:#FAB461;}
	.st84{fill-rule:evenodd;clip-rule:evenodd;fill:#DCDB3D;}
	.st85{fill-rule:evenodd;clip-rule:evenodd;fill:#8EB166;}
	.st86{fill-rule:evenodd;clip-rule:evenodd;fill:#BBDDC2;}
	.st87{fill-rule:evenodd;clip-rule:evenodd;fill:#FFB053;}
	.st88{fill-rule:evenodd;clip-rule:evenodd;fill:#FEED93;}
	.st89{fill-rule:evenodd;clip-rule:evenodd;fill:#B39877;}
	.st90{fill-rule:evenodd;clip-rule:evenodd;fill:#98DCD1;}
	.st91{fill-rule:evenodd;clip-rule:evenodd;fill:#FCFE61;}
	.st92{fill-rule:evenodd;clip-rule:evenodd;fill:#FA7B99;}
	.st93{fill-rule:evenodd;clip-rule:evenodd;fill:#A0B5A4;}
	.st94{fill-rule:evenodd;clip-rule:evenodd;fill:#E0B49A;}
	.st95{fill-rule:evenodd;clip-rule:evenodd;fill:#90ACD4;}
	.st96{fill-rule:evenodd;clip-rule:evenodd;fill:#F7FE5A;}
	.st97{fill-rule:evenodd;clip-rule:evenodd;fill:#9DADD6;}
	.st98{fill-rule:evenodd;clip-rule:evenodd;fill:#9498B6;}
	.st99{fill-rule:evenodd;clip-rule:evenodd;fill:#F0FF6A;}
	.st100{fill-rule:evenodd;clip-rule:evenodd;fill:#D1E697;}
	.st101{fill-rule:evenodd;clip-rule:evenodd;fill:#BF7C5F;}
	.st102{fill-rule:evenodd;clip-rule:evenodd;fill:#E29190;}
	.st103{fill-rule:evenodd;clip-rule:evenodd;fill:#DACAC8;}
	.st104{fill-rule:evenodd;clip-rule:evenodd;fill:#BCEE8D;}
	.st105{fill-rule:evenodd;clip-rule:evenodd;fill:#94B1D9;}
	.st106{fill-rule:evenodd;clip-rule:evenodd;fill:#C0E4C0;}
	.st107{fill-rule:evenodd;clip-rule:evenodd;fill:#C0E09F;}
	.st108{fill-rule:evenodd;clip-rule:evenodd;fill:#F9FE62;}
	.st109{fill-rule:evenodd;clip-rule:evenodd;fill:#9BB1DC;}
	.st110{fill-rule:evenodd;clip-rule:evenodd;fill:#F1B95C;}
	.st111{fill-rule:evenodd;clip-rule:evenodd;fill:#FACA8E;}
	.st112{fill-rule:evenodd;clip-rule:evenodd;fill:#D097CB;}
	.st113{fill-rule:evenodd;clip-rule:evenodd;fill:#DCF560;}
	.st114{fill-rule:evenodd;clip-rule:evenodd;fill:#98AED7;}
	.st115{fill-rule:evenodd;clip-rule:evenodd;fill:#FAFE63;}
	.st116{fill-rule:evenodd;clip-rule:evenodd;fill:#C89ACC;}
	.st117{fill-rule:evenodd;clip-rule:evenodd;fill:#F5D7BF;}
	.st118{fill-rule:evenodd;clip-rule:evenodd;fill:#C7C04B;}
	.st119{fill-rule:evenodd;clip-rule:evenodd;fill:#FBB457;}
	.st120{fill-rule:evenodd;clip-rule:evenodd;fill:#FEAECF;}
	.st121{fill-rule:evenodd;clip-rule:evenodd;fill:#B3BFE9;}
	.st122{fill-rule:evenodd;clip-rule:evenodd;fill:#9A8163;}
	.st123{fill-rule:evenodd;clip-rule:evenodd;fill:#B8F28E;}
	.st124{fill-rule:evenodd;clip-rule:evenodd;fill:#DFE7F2;}
	.st125{fill-rule:evenodd;clip-rule:evenodd;fill:#FDB44D;}
	.st126{fill-rule:evenodd;clip-rule:evenodd;fill:#DFF065;}
	.st127{fill-rule:evenodd;clip-rule:evenodd;fill:#CF9AC9;}
	.st128{fill-rule:evenodd;clip-rule:evenodd;fill:#FBB45A;}
</style>
<path class="st0" d="M666.54,429.4c-1.04,2.84-1.56,11.19,0.04,13.95c1,1.73,4.04,2.93,3.86,7.54c-0.21,5.36-0.95,3.09,1.57,5.9
	c1.1,1.23,0.59,4.55,0.04,5.95c-6.04,2.3,2.42,7.94,5.3,6.62c2.6-1.2,3.25-7.89,6.6-6.57c0.98,0.39,2.33,5.19,5.52,2.31
	c2.5-2.25,1.02-2.72,7.14-5.8c4.83-1.59,11.51-4.43,16.21,0.36c3.28,3.34,3.08,9.95,6.92,4.21c1.33-2,1.97-3.09,2.74-5.23
	c-0.39,7.29-2.05,5.39-3.19,10.42c-1.22,5.41,4.57,1.17,5.21,1.08c3.58-0.54,1.04,5.25,4.31,7.8c1.07,0.83,2.56,1.5,4.22,1.94
	c1.36,0.36,3.21-4.31,4.64-4.27c1.47,0.03,2.53,4.76,3.75,4.38c0.65-0.2,1.25-0.47,1.76-0.81c3.28-2.16,3-1.99,7.32-2.51
	c-1.95-11.38,6.73-13.29,6.87-26.42c0.02-2.25-0.99-7.46,0.05-10.1c0.75-1.92,1.55-3.51-1.64-4.93c-7.7-3.42-7.2-8.13-12.24-14.83
	c-2.53-3.36-1.71-0.83-1.93-3.9c-0.47-6.63-5.5-12.49-6.24-14.72c-0.64-1.92-0.09-9.24-3.64-7.49c-5.79,2.86,7.63,31.17-14.19,14.26
	c-4.32-3.34,1.43-3.53,2.11-4.05c1.18-1.35,2.3-3.62,1.66-5.54c-1.03-3.11-2.9-2.54-6.65-2.72c-5.64-0.26-2.28,4.11-7.14,0.46
	c-1.03-0.77-1.74-1.09-2.46-1.17c-1.21-0.12-3.42,0.92-2.11,2.58c1,1.26,4.74,0.07,2.06,4.75c-2.14,3.73,0.63,2.68-0.81,5.59
	c-0.4,0.8-3.14,1.97-3.28-0.82c-0.11-2.3-0.16-4.44-3.14-4.57c-6.69-0.29-4.73,6.27-8.85,7.64c-5.6,1.87-1.36,7.76-6.29,10.21
	C679.19,422.61,668.35,424.49,666.54,429.4z"/>
<path class="st1" d="M734.83,481.06c-0.98,2.3,2.12,4.51,1.95,1.32c-0.07-1.2,0.53-3.26-0.67-2.84
	C735.23,479.86,736.73,480.44,734.83,481.06z"/>
<path class="st1" d="M738.5,484.48c-0.48,0.15-1.25,0.27-1.39,1.05c-0.14,0.8,2.06,6.01,2.49,6.93c2.24,4.84,5.73,2.06,6.45-1.56
	c0.75-3.73,1.59-10.21-1.06-9.16c-1.7,0.68,0.37,4.21-3.6,3.96C738.96,485.56,740.74,484.48,738.5,484.48z"/>
<path class="st2" d="M795.8,492.2c-10.79,3.57-12.44,13.42-5.7,14.01c10.13,0.88,5.91-13.07,10.2-11.18
	c0.26,0.69,0.05,2.04,0.9,2.26c0.73,0.19,3.98-2.03-0.09-5.08c1.47,0.34,3.16,0.69,3.82-1.44c1.95-6.33,1.08,3.86,5.08-4.41
	c3.16-6.54,4.21-3.14,5.43-6.52c2.17-5.97-4.77-5.87-5.03-5.9c-1.52-0.19-5.38-6.41-5.39-6.41c-0.91-1.08-5.51-3.21-6.56-2.46
	c-3.11,2.22,11.02,6.27,5.12,13.39c-4.07,4.91,4.01,1.94,2.61,6.11c-1.03,3.07-5.27-0.41-5.28-0.42
	C797.82,485.71,797.72,491.56,795.8,492.2z"/>
<path class="st2" d="M787.76,515.92c0-0.95-0.8-1.72-1.8-1.72c-0.99,0-1.8,0.77-1.8,1.72c0,0.95,0.8,1.72,1.8,1.72
	C786.95,517.64,787.76,516.87,787.76,515.92z"/>
<path class="st3" d="M779.36,422.27c0.71,2.82,3.24,2.54,5.93,6.62c0.79,1.2,1.68,2.78,3.23,1.69c0.77-0.54,0.39-1.53-0.05-2.35
	c-0.86-1.59,0.31-2.32,0.91-0.62c3.21,1.5,3.76-1.25,1.08-1.44c-2.07-0.15-0.16-3.1-3.46-2.05c-0.43,0.91-0.27,1.58-0.18,2.82
	C786.2,425.78,779.08,415.83,779.36,422.27z"/>
<path class="st3" d="M786.15,405.67c-1.92,3.99,4.73,5.79,3.83,9.9c-0.64,3.19,1.62,1.45,1.75,0.84c1.43-6.51-1.87-5.96-1.81-6.91
	c2.69-1.26,0.83-1.79-0.52-2C787.59,407.24,789.09,404.73,786.15,405.67z"/>
<path class="st3" d="M793.07,416.85l-1.61,1.33c-0.33,0.66,0.09,1.42,0.31,1.84c1.2,1.24,0.5,3.74,3.2,2.43
	c0.41-1.56,0.14-1.82-1.1-2.17C793.31,418.88,794.64,417.39,793.07,416.85z"/>
<path class="st3" d="M810.65,415.83c0.51,1.37,1.91,0.7,1.57,2.99c-0.46,3.05,2.26,1.28,2.26,1.28c0.62-0.64,0.39-2.67,0.2-3.61
	c-0.13-3.15,1.48-1.41,2.98-2.25c1.41-0.79,1.53-3.41,1.1-4.14c-0.66-1.1-2.53-0.75-3.34,0.03l-1.7,2.38
	C813.27,412.84,809.67,413.18,810.65,415.83z"/>
<path class="st4" d="M773.19,399.38c0.94,0,1.71-0.81,1.71-1.8c0-0.99-0.77-1.8-1.71-1.8c-0.94,0-1.71,0.81-1.71,1.8
	C771.48,398.57,772.25,399.38,773.19,399.38z"/>
<path class="st4" d="M771.08,391.24c0.39,1.31,3.05,0.76,4.66,2.92c0.68,0.92,1.13,1.76,2.22,0.97c0.55-3.02-2.12-2.03-2.51-5.24
	c-0.37-3.09,0.4-3.29-2.37-4.27c-2.09-0.74-1.51-0.35-2.78-2.33c-0.71-1.11-1.18-1.32-2.46-1.02c-0.48,1.42-0.43,1.17,0.76,2.53
	c3.18,3.14,1.97,1.51,3.85,2.43c1.23,0.6,1.04,1.47,0.63,2.38C772.16,389.77,770.57,389.5,771.08,391.24z"/>
<path class="st4" d="M764.81,388.15c2.79,3.36,4.66,1.69,3.5-0.72c-0.42-0.87-1.12-1.04-1.3-2.46c-0.79-6.02-3.79-2.63-4.63-4.98
	c-0.45-1.27,0.06-5.55-2.92-3.85c-1.1,4.03,1.02,3.91,3.19,5.85C764.28,383.45,762.12,384.91,764.81,388.15z"/>
<path class="st4" d="M785.92,392.9c-0.72,0-1.3,0.76-1.3,1.7c0,0.94,0.58,1.7,1.3,1.7c0.72,0,1.3-0.76,1.3-1.7
	C787.22,393.66,786.64,392.9,785.92,392.9z"/>
<path class="st3" d="M814.84,387.81c0,0.82,0.34,1.49,0.76,1.49c0.42,0,0.77-0.67,0.77-1.49c0-0.82-0.34-1.49-0.77-1.49
	C815.18,386.32,814.84,386.99,814.84,387.81z"/>
<path class="st4" d="M757.85,398.04c0.97,0,1.75-0.69,1.75-1.54c0-0.85-0.79-1.54-1.75-1.54c-0.97,0-1.75,0.69-1.75,1.54
	C756.1,397.35,756.89,398.04,757.85,398.04z"/>
<path class="st4" d="M756.06,390.54c0.72,0,1.3-0.58,1.3-1.28c0-0.71-0.58-1.28-1.3-1.28c-0.72,0-1.3,0.58-1.3,1.28
	C754.75,389.96,755.34,390.54,756.06,390.54z"/>
<path class="st4" d="M745.45,393.79c8.36,3.57,9.23-4.56,4.45-5.49c-0.8-0.16-6.47-0.7-6.83-4.26c-0.49-4.89,7.13,0.06,12.93-6.46
	c1.55-1.74,2.42-4.26,0.45-6.21c-2.63-2.59-4.19-4.03-7.23-3.75c-2.5,4,5.63,2.32,4,7.49c-1.27,4.02-10.76,1.39-11.86,0.72
	l-2.16-1.74l-8.71-5.9c-0.71-0.35-5.07-1.08-5.07-1.08c-1.66-0.92-1.7-1.64-2.06-2.01c-0.72-0.72-1.14-0.94-1.98-0.02
	c-0.33,0.36,0.5,1.75-0.73,2.23c-2.48,0.96,0.28-6.68-4.39-4.36c-1.17,4.9,4.21,2.36,1.93,7.54c-1.25,2.85-5.56,0.06-4.54-2.67
	c0.48-1.28,2.07-0.77,0.85-4.1c-1.04-0.4-8.65-2.84-9.75-2.46c-2.76,0.95,0.43,3.57,1.08,4.77c1.75,0.12,2.47-1.56,4.27,0.26
	c0.14,3.15-2.82,1.43-1.03,4.98c1.84,3.64,0.8,4.51,5.61,3.49c2.26-0.48,3.83-0.66,6.24,1.69c6.33,6.19-1.36,8.63,0.72,11.34
	c1.74,2.26,4.07-1.37,4.22-1.44c2.85-1.28-0.06,4.99,5.25,4.62c4.13-0.29,2.04-4.9,6.2-5.39
	C740.68,385.19,742.21,392.41,745.45,393.79z"/>
<circle class="st4" cx="787.85" cy="363.36" r="1.08"/>
<path class="st4" d="M706.96,388.28c2.29-1.05,4.35-7.79,0.52-6.42c-1.7,0.61-1.62,3.37-2.51,2.63c-1.95-1.6-2.52-1.14-2.84,1.69
	C704.03,386.18,704.44,389.42,706.96,388.28z"/>
<path class="st4" d="M711.88,380.94c-0.11,2.28,1.47,3.66,2.31,1.43c0.66-1.78,2.88-2.18,2.11-4.3c0,0-1.42-1.79-3.11,0.72
	c-1.56,0.08-2.09-2.4-4.55-1.23C707.77,380.03,710.25,378.13,711.88,380.94z"/>
<path class="st4" d="M698.88,372.91c3.13,5.57,0.91-2.95,6.65-0.77c0.78,2.11,0.17,1.53,0.99,2.46c0.58,0,0.49-0.21,0.58-0.97
	c-0.48-3.9-0.24-2.09-2.11-3.69c-0.2-1.72,0.54-1.06,0.81-2.31c-1.52-2.78-2.54,0.32-3.1,1.38c-5.02,1.29-1.41,2.06-5.79,1.69
	c-0.94-1.28-1.35-9.77-5.52-4.21c0.19,2.12,2.53,1.63,3.55,5.34C695.65,374.46,697.27,374.03,698.88,372.91z"/>
<path class="st4" d="M699.81,363.31c0.11-3.23,2.43,0.13,2.69-4.07c0.23-3.7-0.96-1.84-1.97-2.81c-0.2-0.19-0.67-1.41,1.07-1.2
	c0.14,0.02,1.67,0.59,1.81-1.18c0.21-2.58-2.55-2.19-3.29-1.25c-0.51,0.66,0.17,0.59-1.1,1.33c-1.14,0.67-1.23,1.07-1.1,2.48
	c-0.05,5.93-0.28,2.34-0.92,5.27c-0.55,2.51,0.72,2.2,0.96,3.96c0.04,0.28-0.25,2.77,2.42,2.28c0.92-0.17,1.37-1.24,0.49-1.94
	C700.1,365.54,699.76,364.9,699.81,363.31z"/>
<path class="st4" d="M691.8,361.34c0.3-0.19,2.1-2.17,2.1-2.17c0,0,1.26-0.47,1.21-1.92c-0.08-2.43-2.96-2.26-4.08-1.05
	c-0.2,0.21-0.48,1.46-1.7,1.61c-0.73,0.09-3.05,0.13-3.63-0.38c-0.3-0.27-0.72-0.97-1.86-0.77c-1.55,0.28-1.99,1.81-2.71,3.27
	c-1.56,3.16-0.89,1.68-2.01,5.47c-0.72,2.45-1.97,5.49-1.12,7.44c0.73,0.26,2.7-0.02,2.71,2.02c0.01,2.01-1.99,0.78-2.28,2.99
	c-0.36,2.74,3.21,3.42,3.96,0.87c0.91-3.09-1.29-6.15,1.63-5.52c1.08,2.19-1.13,6.56,3.09,6.91c3.33,0.28,3.33-2.9,3-6.09
	c-0.13-1.28-1.49-3.02-2.02-3.56c-0.51-0.52-2.32-1.22-1.9-2.4c0.45-1.29,3.28,0.7,3.52-1.28c0.32-2.73,0.18-3.86-3.2-4.25
	c-2-0.23-3.37,2.18-4.12-0.08C683.06,360.16,689.71,362.7,691.8,361.34z"/>
<path class="st4" d="M693.27,384.71c-7.4-0.33-6.14,6.11-9.79-0.15c-1.21,6.22-2.93,4.4-4-0.05c-1.91,5.33-8.72,0.78-10.91,0.56
	c-3.36-0.33-1.31-1.17-0.81-1.23c0.98-0.11,6.31,0.32,5.39-1.54c-0.74-1.49-6.09,1.67-15.85-1.38c-1.84-0.58-11.66-2.33-8.49-7.49
	c1.24-2.02,9.3,1.51,7.5-4.1c-0.93-2.9-3.74-0.82-4.89-2.62c-0.62-0.96,0.36-2.51-3.55-1.54c-2.57,0.64-1.18-2.24-1.71-3.33
	c-0.21-0.44-8.78-7.85-10.51-9.85c-1.82-2.12-6.66-11.81-10.55-8.16c-4.43,4.16,8.59,9.37,11.41,21.5
	c2.04,8.81,7.57,11.53,8.31,12.62c0.86,1.27,0.24,5.92,10.29,8.26c7.44,1.73,7.45,1.98,14.42,2.41c11.75,0.74,4.81,3.41,13.38,5.08
	c1.3,0.25,4.63-1.89-1.8-3.69c7.48-0.38,3.94-0.51,7.32-1.59c0.79-0.25,1.41-0.14,2.07,0.15c0.39,2.1-4.41,4.49-2.38,6.62
	c0.63,0.66,3.37,1.26,5.39-2.46c3.63-6.69,6.26-2.87,6.69-6.41c0.29-2.36-1.82-4.56-6.02-2.05L693.27,384.71z"/>
<path class="st4" d="M671.75,375.17c3.89-1.22,1.8-7.66,2.74-10c2.15-5.37,4.74-4.49,4.18-7.75c-0.58-3.34-3.2-1.35-3.37-5.85
	c-0.03-0.76,0.28-3.19-2.07-3.23c-3.87-0.08-3.63,6.16-3.86,6.93c-0.9,3.03-6.56,2.52-7.5,1.03c-0.25-0.39-0.51-2.08-2.21-2.87
	c-0.28-0.13-0.61-0.24-0.98-0.31c-2.75-0.54-3.98,3-3.64,5.64c0.58,3.85,1.37,8.11,4.22,11.18c3.23,3.49,7.12,2.49,7.72,3.08
	C667.56,373.56,668.18,376.29,671.75,375.17z"/>
<path class="st5" d="M673.24,348.34c2.34,0.05,2.04,2.47,2.07,3.23l3.37-1.85c4.62-4.23-1.43-7.08-1.44-7.08
	c-1.66-1.28-0.92-2.51-1.98-3.28c-2.58-1.9-5.77,7.18-8.4,9.9c-1.05,1.09-4.83,3.54-7.2,4.16c1.7,0.79,1.97,2.48,2.21,2.87
	c0.94,1.49,6.6,2,7.5-1.03C669.6,354.5,669.37,348.26,673.24,348.34z"/>
<path class="st6" d="M648.62,359.52c-5.06-5.55-1.75-7.97-3.32-13.96c-1.24-4.72-5.57-3.52-7.54-7.39c-0.97-1.9-0.04-4-1.44-6
	c-2.38-3.4-7.19-0.34-4.85,3.75c1.08,1.89,2.28,2.23,2.87,2.87l1.53,2.26c1.99,4.12,0.3,5,1.93,9.29c0.8,2.1,1.17,2.35,2.6,4.16
	c1.99,2.5,4,3.8,6.87,4.62L648.62,359.52z"/>
<path class="st7" d="M689.45,335.67c1.09,5.16,0.37,10.24,3.96,9.45c4.02-0.88,3.31-6.43,3.06-9.87c-0.3-4.18-1.25-10.61-3.24-13.97
	c-1.36-2.3-2.97-2.7-4.59-3.29c-1.71-1.03-3.58-2.15-1.8-5.96c2-4.27,0.56-8.02-2.34-8.43c-5.53-0.77-4.11,6.24-4.05,8.84
	c0.18,7.52,2.9,4.48,1.8,9.35c-1.28,5.67-5.88,12.08-9.62,16.24c3.14-2,7.32-5.49,9.09-9.15c0.88-1.83,0.57-4.74,3.96-4.42
	c0.89,5.86,2.28,6.71,2.07,9.56c-0.42,5.56-2.04,5.87-4.68,9.76c-1.55,2.28-1.27,2.14-1.71,4.93c1.96-4.49,1-2.27,4.86-6.17
	c2.33-2.35,1.17-1.56,1.71-3.08C688.17,338.76,688.38,339.17,689.45,335.67z"/>
<path class="st8" d="M649.16,335.15c2.16-1.03,7.82-8.37,8.53-10.06c1.31-3.09-0.07-7.15-0.22-8.57c-0.08-0.72,0.2-5.45-3.05-6.46
	c-0.75-0.23-1.36-0.16-1.81,0.12c-1.21,0.74-1.33,2.87-0.21,4.24c0.77,0.94,0.45,0.53,1.08,2.16c-0.82,5.59-5.78,0.94-5.93,0.87
	c-1.16-0.55-4.9-0.89-5.97,1.33c-0.84,1.73-0.51,4.68,0.27,6.7c0.27,0.7,0.59,1.28,0.94,1.67c1.27,1.4,2.5,1.24,2.56,4.1
	C645.39,333.25,645.35,336.97,649.16,335.15z"/>
<path class="st9" d="M641.57,318.78c1.08-2.22,4.81-1.88,5.97-1.33c0.15,0.07,5.11,4.72,5.93-0.87c-0.63-1.63-0.31-1.22-1.08-2.16
	c-1.12-1.37-1-3.5,0.21-4.24c-2.08-5.96-2.17-5.18-4.35-5.25c-0.32-0.01-0.69-0.04-1.12-0.11c-2.15-0.36-0.32-3.52-0.27-4.57
	c0.13-2.71-0.67-3.03-3.73-6.26c-0.97-1.03-1.5-0.66-3.28-0.15c-0.16,0.34-0.3,0.66-0.44,0.95c-2.08,4.5-1.6,3.06-5.4,4.95
	c-2.01,1-3.76,2.22-3.41,5.13c0.27,2.23,3.42,5.03,3.14,7.85c-0.14,1.43-1.74,3.31-0.85,6.05c0.89,2.75,0.54,0.5,0.72,3.33
	c0.05,0.83,0.09,2.61,0.66,3.71c0.35,0.68,0.89,1.1,1.76,0.91c2.3-0.52,0.21-4.6,1.62-6.21c0.72,0,3.77,4.55,4.18,4.95
	C641.06,323.47,640.73,320.51,641.57,318.78z"/>
<path class="st10" d="M630.62,304.88c-0.35-2.91,1.4-4.13,3.41-5.13c3.8-1.89,3.32-0.45,5.4-4.95c-5.53,2.6-3.1-1.88-3.07-2.13
	c0.27-1.92-0.47-0.48-2.65-3.23c-0.88-1.11-4.42,0.04-3.5-2.87c0.78-2.48,4.81-0.91,4.94-5.18c0.11-3.4-0.48-6.54-4.04-6
	c-1.44,0.22-1.33,1.55-2.88,2.87c-2.22,1.91-2.28,1.07-3.55,4.98c-2.35,7.27-1.17,1.83-4.49,8.21c-0.48,0.92-0.94,1.66-1.32,2.33
	c-0.42,0.75-0.73,1.4-0.82,2.1c-0.18,1.38,0.49,2.93,2.86,5.68c5.37,6.24,2.38,5.62,1.89,8.82c-0.43,2.76,1.37,5.12,4.54,1.95
	c1.26-1.26,3.31-0.69,3.41,1.69c0.13,2.95,0.11,3.81,0.45,6.72h0.04c0.25,1.05,1.07,3.47,1.71,4.21l1.34,0.89
	c-0.57-1.11-0.61-2.88-0.66-3.71c-0.18-2.84,0.18-0.58-0.72-3.33c-0.89-2.74,0.71-4.63,0.85-6.05
	C634.03,309.91,630.88,307.11,630.62,304.88z"/>
<path class="st11" d="M620.2,291.44c3.32-6.37,2.14-0.93,4.49-8.21c1.26-3.91,1.33-3.06,3.55-4.98c1.54-1.33,1.44-2.65,2.88-2.87
	c-2.41-1.65-1.57-1.31-2.16-2.87c-0.96-2.56-2.54-1.98-4.31-0.77c-4.22,2.87-4.4,4.9-5.66,6.26c-1.5,1.62-4.87,0.22-5.7,2.41
	c-0.59,1.55,0.13,3.11,1.17,3.75c0.83,0.51,4.22,0.79,4.54,5.28l-0.11,4.33C619.25,293.1,619.72,292.35,620.2,291.44z"/>
<path class="st12" d="M618.06,295.86c0.09-0.69,0.4-1.35,0.82-2.1C618.46,294.52,618.15,295.17,618.06,295.86L618.06,295.86z
	 M618.98,289.44c-0.32-4.49-3.7-4.78-4.54-5.28c-1.04-0.63-1.76-2.19-1.17-3.75c0.84-2.19,4.21-0.79,5.7-2.41
	c-1.24-2.08-2.11-4.39-6.02-4c-4.49,0.44-5.29,4.87-12.08-1.33c-2.5-2.29-3.55-5.37-7.23-4.26c-3.6,1.08-6.83,8.6,11.36,13.19
	c3.3,0.83,6.29,0.39,4.54,3.54c-0.43,0.78-1.03,1.3-0.76,3.03c0.16,1.03,1.18,5.57,3.05,6.52c0.81,0.41,5.23,1.02,6.22,1.19
	c-0.18,1.38,0.49,2.93,2.86,5.68c5.37,6.24,2.38,5.62,1.89,8.82c-0.43,2.76,1.37,5.12,4.54,1.95c1.26-1.26,3.31-0.69,3.41,1.69
	c0.13,2.95,0.11,3.81,0.45,6.72h0.04c0.25,1.05,1.07,3.47,1.71,4.21l1.34,0.89c-0.57-1.11-0.61-2.88-0.66-3.71
	c-0.18-2.84,0.18-0.58-0.72-3.33c-0.89-2.74,0.71-4.63,0.85-6.05c0.27-2.82-2.88-5.62-3.14-7.85c-0.35-2.91,1.4-4.13,3.41-5.13
	c3.8-1.89,3.32-0.45,5.4-4.95c-5.53,2.6-3.1-1.88-3.07-2.13c0.27-1.92-0.47-0.48-2.65-3.23c-0.88-1.11-4.42,0.04-3.5-2.87
	c0.78-2.48,4.81-0.91,4.94-5.18c0.11-3.4-0.48-6.54-4.04-6c-1.44,0.22-1.33,1.55-2.88,2.87c-2.22,1.91-2.28,1.07-3.55,4.98
	c-2.35,7.27-1.17,1.83-4.49,8.21c-0.48,0.92-0.94,1.66-1.32,2.33L618.98,289.44z"/>
<path class="st13" d="M590.73,233.86C590.73,233.87,590.73,233.87,590.73,233.86C590.73,233.87,590.73,233.87,590.73,233.86
	L590.73,233.86z M633.71,289.44c2.18,2.76,2.92,1.31,2.65,3.23c-0.04,0.25-2.47,4.73,3.07,2.13l0.44-0.95
	c1.78-0.51,2.3-0.88,3.28,0.15c3.06,3.23,3.86,3.55,3.73,6.26c-0.05,1.05-1.88,4.21,0.27,4.57c0.43,0.07,0.79,0.1,1.12,0.11
	c5.32-7.24,3.73-5.94,5.17-8.22c0.94-1.49,3.69-1.67,4.58-0.41c3.26,4.63-3.24,5.08-3.86,7.13c-0.33,1.07,1.79,8.34,6.92,1.44
	c1.16-1.56,2.32-2.31,0.63-5.13c-4.28-7.15,6.2-5.44,11.9-8.52c4.69-2.53,7.9-9.59,10.6-15.34c2.59-5.51,2.68-14.73-3.5-19.39
	c-4.52-3.41,3.32-4.79,3.82-5.23c2.01-1.78,2.6-0.1,4.36-1.44c0.78-4.47-6.37-5.15-8.67-0.51c-1.59-3.26-2.37-4.34-5.75-5.69
	l2.38-1.18c4.98-2.24,6.97-8.41,9.7-5.95c2.79,2.51-1.91,4.49-2.25,6.62c2.32,3.35,3.49-1,5.3-2.31c3.92-2.83,4.25,1.51,6.56-6.41
	c6.8,0.63,5.48-0.48,7.41-2.41c1-1,2.42-0.6,2.85-1.68c0.22-0.55,0.19-1.49-0.29-3.19c-1.35-4.82,2.07-4.04,2.83-3.08
	c2.87,3.63,2.56-0.6,2.87-1.69c0.81-2.77,4.81-3.98,3.55-6.57c-1.96-4.03-6.29,4.32-9.66,0.36c-2.52-2.96,0.63-3.52-4.67-5.28
	c-3.9-1.3-5.3-12.05-12.08-12.31c-10.59-0.41-4.47,3.66-6.92,5.95c-2.7,2.53-2.47,8.73-5.61,5.13c-2.17,1.14-1.42,0.66-3.37,2.41
	c-0.11,1.1-0.12,0.68,0,1.74c2.09,1.72,5.53-0.24,7.32,2.57c0.59,0.93,1.12,4.28-2.25,4.77c-1.75,0.26-4.22,0.05-5.75,1.08
	c-2.3,1.56-1.95,1.7-5.66,2.15l-4.04,0.41c0.51,2.58-0.38,4.75-2.07,6.62c-1.93,2.14-8.15,3.71-10.82,3.44
	c-0.53-0.05-8.41-2.26-8.8-2.31c-3.02-0.37-11.3,1.17-13.7-0.31c-3.45-2.13-3.37-5.6-7.54-7.23c-0.63-0.25-4.04-0.76-4.76-2.41
	c-0.3-0.68,0.36-3.99-1.84-5.34c-0.42-0.26-1.61-0.51-2.29-1.23c-2.1-2.23,0.23-0.4-3.69-3.12c-0.08,1.03-1.86,2.02-2.82,2.96
	c-1,0.98-0.72,2.66-1.53,3.69c-2.81,0.14-4.68-0.55-5.3,1.03c-2.04,5.21,0.87,2.72-4.94,3.54c-5.36,0.75,4.14,4.3-2.12,8.91
	c0.16,0.28,0.25,0.57,0.27,0.88c0,0,0,0,0,0c0.05,1.3-1.39,2.8-5.7,4.11c-5.25,1.6-4.45,0.58-8.24,3.46
	c2.36,0.68,3.77,2.49,2.67,6.09c1.09,0.43,1.56,1.4,2.33,2.81c2.29,4.24,3.91,2.18,5.23,4.45c0.46,0.08,0.87,0.28,1.24,0.63
	c4.52,4.29-3.31,11.37,5.39,12.98c3.68-1.11,4.73,1.97,7.23,4.26c6.79,6.2,7.6,1.78,12.08,1.33c3.91-0.39,4.78,1.92,6.02,4
	c1.26-1.36,1.43-3.39,5.66-6.26c1.78-1.21,3.36-1.79,4.31,0.77c0.58,1.56-0.25,1.22,2.16,2.87c3.56-0.54,4.15,2.6,4.04,6
	c-0.13,4.27-4.16,2.7-4.94,5.18C629.29,289.47,632.84,288.33,633.71,289.44z"/>
<path class="st7" d="M683.16,285.08c-0.14,4.29-3.5,3.12-2.56,7.18c0.74,3.2,3.63,3.36,4.67,1.64c0.04-0.06,0.47-2.16,1.3-4
	C689.7,282.98,684.07,280.12,683.16,285.08z"/>
<path class="st5" d="M611.84,294.67c-1.87-0.95-2.9-5.49-3.05-6.52c-0.27-1.72,0.33-2.25,0.76-3.03c1.75-3.15-1.24-2.71-4.54-3.54
	c-18.2-4.59-14.97-12.1-11.36-13.19c-8.7-1.61-0.87-8.69-5.39-12.98c-0.37-0.35-0.78-0.55-1.24-0.63c-1.46-0.27-3.45,0.58-6.53,0.94
	c-8.68,1.02,1.62,6.29-3.5,14.06c-1.13,1.71-4.54,5.79-6.33,6.16c-7.5,1.52-1.63,6.75-1.08,7.9c0.34,0.7,1.35,5.26-1.3,6.72
	c-0.26,0.14-2.43,0.43-3.39,1.74c-0.61,0.83-0.74,2.08,0.43,3.96c1.22,1.96,4.52,3.72,6.29-1.13c1.36-3.71,3.57-1.67,3.64,0.46
	c0.15,4.81-2.51,6.64,2.16,20.78c4.16,12.6,2.03,6.2,4.31,16.62c2.05,9.36,8.08,0.76,8.71-2.56c2.26-11.8-0.5-13.62,3.41-17.08
	l4.45-4.87c2.6-2.39,9.03-6.45,9.57-9.24C608.5,295.79,608.36,296.27,611.84,294.67z"/>
<path class="st14" d="M595.96,337.19c-0.18-3.56-1.95-5.43-4.9-6.42c-0.14,2.86-1.93,3.17-1.5,5.55c0.4,2.2,0.65-0.77,0.72,4.99
	C590.34,347.09,596.36,345.14,595.96,337.19z"/>
<path class="st15" d="M689.58,240.8c8.31,0.81-1.39,5.08,5.25,6c4.44,0.61,1.12,4.73,0.76,5.95c-2.77,9.44,7.08,5.15,8.04,0.98
	c0.36-1.59,0.04-5.29-0.54-6.62c-0.51-1.19-3.36-3.22-1.84-5.59c1.73-2.7,3.3-0.09,2.29-9.54c-1.93,1.93-0.61,3.05-7.41,2.41
	C693.83,242.31,693.51,237.97,689.58,240.8z"/>
<path class="st16" d="M727.41,233.52c0.92,19.45-7.19,10.42-9.45,17.88l-0.54,3.6c-1.52-1.3-3.36-2.58-5.4-2.26
	c-2.44,0.38-2.81,2.01-3.69,4.21c-0.64,1.6-0.53,1.4-0.81,3.08c-3.79-1.73-4.24,0.46-3.6,4.11c0.39,2.23,2.77,5.79,4.04,2.03
	c0.8-2.36-0.54-6.96,2.71-6.45c1.75,0.27,7,2.88,8.82-3.7c3.97,4.08,7.68-3.09,8.63-6.58c2.12-7.79,5-6.32,4.14-9.97
	c-0.44-1.87-2.84-1.47-1.98-6.37c2.35-1.15,2.16,0.88,4.14,1.85c1.24-0.71,1.08-1.45,1.62-2.88c2.22-0.78,3.99,0.31,4.5-2.16
	c0.6-2.91,0.07-1.98,6.21-4.32c1.51-0.57,5.86-1.44,4.95-4.32c-1.75-5.49-12.67,10.25-16.91,5.55c-1.91-2.11-0.83-3.93-3.78-4.21
	c-2.65,3.45,1.37,4.83-3.87,6.58c-2.06,0.69-2.57,2.84-1.35,4.93L727.41,233.52z"/>
<path class="st16" d="M730.27,218.43c-0.25,4.76,2.83,0.31,5.52,4.93c0.17-6.52,0.12-2.98-1.62-6.67c-1.03-2.18-0.53-4.62,2.56-2.67
	c1.36,0.86,0.56,0.49,2.33,1.03c-2.06-2.87-3.36-5.76-4.27-9.49c-0.88-3.64,2.99-10.25-0.67-10.98c-4.06-0.81-3.32,7.82-3.28,9.75
	C733.61,207.88,730.71,210.2,730.27,218.43z"/>
<path class="st17" d="M764.83,186.98c-6.51,4.88-1.26,9.92-0.72,16.34c0.43,5.02-9.9,7.35-4.41,10.48c2.39-0.91,2.12-3.92,3.96-5.86
	c3.65-3.83,1.86-1.22,5.22-6.06c3.75-5.41,6.18-0.86,8.28-9.04c1.47-0.24,1.93-0.36,2.88-1.64c-0.59-4.92,0.04-6.41,3.33-9.86
	c-1.22,0.63-5.8,4.21-6.39,4.21c-1.3-2.98,7.53-10.13,10.52-5.86c2.5-4.08,5.85-3.17,7.74,1.13c7.1-8.11,11.48-7.23,17.54-6.17
	c3.85,0.68,9.38-7.48-9.62-9.76c6.57-0.83,19.68,3.48,17-9.45c-1.47-7.09-18.74-7.36-24.2-6.37c0.3,2.32,0.36,3.05-1.44,4.01
	c-3.62,0.92-17.54-10.9-19.97-1.64c-5.01-6.88-8.83-4.73-16.46-5.24c-6.04-0.4-6.61-3.82-11.24-5.14
	c-14.78-4.21-21.46,3.46-25.37,3.29c-9.58-0.42-4.81-2.49-13.67,2.57c-5.84,3.34-1.55-14.15-10.25-7.19
	c-1.35-0.77-2.89-1.98-4.41-2.26c-6.24-1.16-0.86,5.22-14.12,0.51c-13.35-4.73-23.32,2.47-33.01,3.08
	c6.99-2.33,10.33-5.36,18.17-6.88c4.23-0.82,7.83-5.88-3.69-5.75c-8.38,0.09-15.67-2.78-16.55-2.67c-5.88,0.73-8.28,3.13-8.28,9.66
	c-1.78-3.49-2.68-5.37-6.39-5.04c-6.37,0.58-18.85-0.64-23.3,4.32c-4.82,5.38-14.21-0.9-12.32,5.55c3.36,1.79,7.78,4.54,4.41,9.25
	c-2.88,0.33-3.39-2.19-4.14-4.83c-0.83-2.94-9.09-8.54-4.23,2.57c-5.15,1.68-9.42-6.58-14.57-1.54c5.49,1.25,0.4,1.15,1.35,5.24
	c0.97,0.6,3.18-0.1,4.33-0.25c5.98-0.79,10.19,2.92,7.18,6.52c-3.16,3.78-4.74-9.2-8.91-3.19c-6.77,9.76-6.68,5.4-15.2,6.37
	c2.62-1.31,12.73-1.8,11.42-6.88c-1.41-5.5,0.49-7.81-4.41-7.81c2.62-1.66,6.62-5.1,1.35-6.88c-3.72-1.26-5.3-0.18-6.66,3.49
	c-0.59,1.59-10.6,5.53-1.17,8.32c2.36,0.7,4.4,4.29,0.81,5.04c-4.58,0.95,0.47-2.66-10.52-3.7c-3.33-0.31-2.93-3.72-8.1-2.88
	c-1.17,2.38-0.4,3.55,0.09,6.06c-7.33-6.89-6.91-0.74-11.87-0.21c-7.82,0.84-2.47-4.62-12.32,1.44c-2.53-1.29-0.7-3.59,0.99-4.42
	c0.08-1.06-0.08-1.76-0.36-2.77c-3-0.55-5.26,0.31-3.6,3.9c1.56,3.38-4.11,9.02-6.66,6.37c0-0.99,0.11-1.73,0.36-2.67l2.25-1.03
	c0.41-1.09,0.23-1.86-0.27-2.88c-10.64-3.24-0.37,13.19-8.37,8.43c-2.04-1.22-6.84-1.15-5.85,2.36c1.67,5.93-4.89,1.03-7.83,1.03
	c1.5,1.86,2.13,4.59-0.99,4.52c-5.55-0.11-1.43-4.68-10.79-11.51c3.38,1.5,19.08,4.97,20.69,0.72c2.43-6.43-9.79-6.08-12.95-7.3
	c-3.77-1.45-6.51-2.14-8.48-2.32c-7.94-0.69-3.42,7.12-3.75,8.07c-1.83,5.3,2.02,8.93,3.96,13.46c0.96,2.25-5.52,4.47-5.68,6.86
	c-0.07,1,0.97,2.04,4.15,3.11c-1.78,0.27-3.69,0.59-5.07,1.38c-1.76,1-2.66,2.73-1.37,6.01c0.12,0.3,0.25,0.61,0.41,0.94
	c0.24,0.5,1.67,1.43,3.29,2.69c3.47,2.69,7.84,6.89,3.36,11.7c2.98-0.28,5.34-0.73,7.92,1.23c3.55,2.7,4.01,4.46,8.73,5.04
	c4.86,0.6,5.16,4.45,3.47,8.01c-0.77,1.61-1.94,3.16-3.29,4.32c-4.83,4.15,1.49,7.02,6.04,8.23c1.28,0.34,2.42,0.55,3.13,0.61
	c4.57,0.42,6.8,1.55,8.05,2.77c2.08,2.02,1.48,4.29,4.45,4.01c1.39-2.11,2.35-2.57,4.6-3.3c-4.56-4.28-6.56-11.13,1.48-11.13
	c-1.25-0.4-2.03-0.63-3.14-1.44c-2.31-1.68-7.8-5.49-7.37-8.77c0.57-4.31,2.42-4.31,7.5-8.21c5.37-4.12,10.09,0.78,11.27,1.44
	c2.63,1.46,14.92,2.71,16.98,0.51c-1.51-0.78-2.61-2.03-3.14-3.9c-2.69-9.47,10.89-4.07,16.44-7.9c6.95-4.8,6.49-0.44,9.75,2.51
	c4.36,3.95,9.08-1.77,11.45-0.36c5.16,3.05,5.58,12.89,8.13,8.93c1.56-2.42,1.88,2.21,4.76,1.08c4.74-1.86,2.52,2.59,6.87,3.95
	c2.43,0.76,3.2,1.5,3.14,2.22c5.34-1.16,5.27-3.24,8.63-4.79c5.66-2.6,7.3,2.12,13.02,1.9c3.96-0.15,0.93-3.31,3.5-6.31
	c1.7-1.99,3.42-2.14,5.84-1.13c5,2.1,1.97,9.1,8.8,6.05c5.41-2.41,10.37,6.74,15.99,2.92c3.8-2.58,3.61-2.85,9.88-2.41
	c1.93,0.13,1.83-0.05,3.59,0.51c3.15,3.59,2.92-2.6,5.61-5.13c2.44-2.29-3.68-6.36,6.92-5.95c6.78,0.26,8.18,11.02,12.08,12.31
	c5.3,1.76,2.15,2.32,4.67,5.28c3.37,3.96,7.7-4.39,9.66-0.36c1.26,2.59-2.74,3.79-3.55,6.57c-0.32,1.09,0,5.33-2.87,1.69
	c-0.76-0.96-4.18-1.74-2.83,3.08c0.48,1.7,0.51,2.64,0.29,3.19c4.25,2.23,8.66,1.55,11.38-2.83c4.87-7.85,8.29-7.8,9.71-19.32
	c0.73-5.88,4.25-6.34-0.45-11.71c-3.14,0-7.25,3.3-10.25,1.03c-4.41-3.33,5.71-6.21,16.28-17.47c3.79,0.61,7.59,1.07,11.42,0.51
	c10.36-1.5,2.75-0.76,9.53,1.34c3.52,1.09,10.36-5.28,10.52-8.94c2.47,0,4.92-0.18,7.38-0.41c-1.24,1.89-1.42,2.94,0,4.73
	c3.1-0.16,3.83-1.96,5.67-4.52c5.76-8.04,12.42-1.59,5.76,1.13C777.29,176.3,770.33,182.85,764.83,186.98z"/>
<path class="st18" d="M726.01,135.42c2.17,3.94,1.59,2.98,6.11,3.33c2.67,0.35,5.36,0.84,4.9-2.15c-2.55-2-6.41,1.31-8.67-1.74
	c7.11,1.16,4.04-2.99,15.54,0.98c10.43,3.6,8.88-3.13,6.24-4c-1.88-0.62-6.82-0.25-13.74-2c-2.56-0.65-21.86-3.05-20.61,2.56
	C716.18,134.24,723.94,138.57,726.01,135.42z"/>
<path class="st19" d="M662.95,211.5c-5.62,3.82-10.58-5.34-15.99-2.92c-6.84,3.05-3.8-3.95-8.8-6.05c-2.42-1.01-4.13-0.86-5.84,1.13
	c-2.57,3,0.45,6.16-3.5,6.31c-5.73,0.22-7.37-4.5-13.02-1.9c-3.36,1.54-3.29,3.63-8.63,4.79c3.92,2.71,1.59,0.88,3.69,3.12
	c0.68,0.72,1.87,0.98,2.29,1.23c2.2,1.34,1.54,4.65,1.84,5.34c0.72,1.65,4.13,2.17,4.76,2.41c4.18,1.63,4.09,5.11,7.54,7.23
	c2.4,1.48,10.67-0.06,13.7,0.31c0.39,0.05,8.27,2.26,8.8,2.31c2.68,0.27,8.89-1.3,10.82-3.44c1.68-1.86,2.58-4.04,2.07-6.62
	l4.04-0.41c3.71-0.46,3.36-0.6,5.66-2.15c1.52-1.03,4-0.82,5.75-1.08c3.37-0.5,2.84-3.84,2.25-4.77c-1.79-2.81-5.23-0.84-7.32-2.57
	c-0.12-1.07-0.11-0.65,0-1.74c1.95-1.76,1.2-1.27,3.37-2.41c-1.76-0.56-1.66-0.38-3.59-0.51
	C666.56,208.66,666.75,208.93,662.95,211.5z"/>
<path class="st20" d="M602.82,219.51c0.8-1.03,0.52-2.71,1.53-3.69c0.96-0.94,2.74-1.93,2.82-2.96c0.06-0.72-0.7-1.46-3.14-2.22
	c-4.35-1.36-2.13-5.81-6.87-3.95c-2.88,1.13-3.2-3.5-4.76-1.08c-2.55,3.97-2.97-5.87-8.13-8.93c-2.38-1.41-7.09,4.31-11.45,0.36
	c-3.26-2.96-2.8-7.32-9.75-2.51c-5.55,3.83-19.13-1.57-16.44,7.9c0.53,1.86,1.63,3.12,3.14,3.9c-2.06,2.19-14.34,0.95-16.98-0.51
	c-1.18-0.66-5.9-5.56-11.27-1.44c-5.08,3.9-6.93,3.9-7.5,8.21c-0.44,3.29,5.05,7.09,7.37,8.77c1.11,0.81,1.9,1.04,3.14,1.44
	c-8.04,0-6.05,6.85-1.48,11.13l2.88,2.75c0.73-1.85,2.12-3.46,4.3-4.34c4.55-1.82,4.68,2.35,5.88,2.92c-0.2-8.77-1.78-13.96,4-13.75
	c3.22,0.12,7.89,5.83,10.01,8.57c0.46-0.89,0.6-1.44,2.38-1.95c3.94-1.12,6.6,0.83,7.28,5.13l4.6,4.24
	c7.73-4.92,10.36-8.06,21.8-6.8c1.65,0.18,3.57,1.08,4.26,2.29c6.25-4.61-3.25-8.16,2.12-8.91c5.81-0.82,2.9,1.66,4.94-3.54
	C598.14,218.95,600,219.65,602.82,219.51z"/>
<path class="st18" d="M622.44,122.13c4.22,1.49,12.32-0.48,13.7,0.67c1.72,1.44-2.82,2.12-3.5,2.31c3.88,0,6.61,0.07,10.46-0.21
	c2.33-0.22,6.34-0.06,6.6-1.95c0.65-4.72-12.3-2.38-12.89-2.72c-0.01-0.01-6.23-9.88-16.75-5.18c-1.46,0.65-5.86,1.82-4.94,4.36
	C615.93,121.65,617.38,120.35,622.44,122.13z"/>
<path class="st18" d="M545.73,135.11c7.53-5.2,21.74-1.16,20.03-7.13c-1.11-3.86-7.42,1-11.5,1.33c-4.46,0.36-11.62-0.48-16.89,3.54
	l-6.11,4.98c-1.25,0.79-7.41,2.16-5.17,7.29c1.46,3.34,7.89,4.13,10.64,2.87c2.16-0.99,1.62-0.87,4-1.64
	c-2.83-1.34-6.61-1.34-5.48-4.16C536.17,139.95,542.15,137.58,545.73,135.11z"/>
<path class="st21" d="M496.6,209.27c-4.71-0.58-5.18-2.33-8.73-5.04c-2.57-1.96-4.93-1.52-7.92-1.23c-2.66,2.68-3.52,0.79-7.47,0.39
	c-1.16-0.12-7.36-0.45-8.44,1.28c-0.32,0.52-0.14,3.07-1.26,4.41c0,0.01-1.22,0.73-1.92,2.06c-0.41,0.77-0.65,1.75-0.37,2.92
	c0.15,0.66,0.39,1.15,0.7,1.51c1.31,1.57,3.88,0.71,6.46-0.15c2.36-0.79,4.74-1.59,6.19-0.54c0.97,0.71,3.53,7.38,6.02,5.34
	c0.01-0.01,1.52-2.22,3.01-0.82c1.07,1.01-0.09,1.88,2.92,2.56c-3.07,1.22-1.38,2.39,0,4.21c0.69,0.9,1.15-0.06,2.74-1.03
	c2.07-1.25,0.7-2.4-0.72-3.08c3.68-1.2,4.46-3.27,9.57-4c1.72-0.25,0.24,0.33,2.7-0.79C501.76,213.72,501.45,209.87,496.6,209.27z"
	/>
<path class="st22" d="M472.48,203.4c3.96,0.4,4.81,2.29,7.47-0.39c4.47-4.81,0.11-9.01-3.36-11.7l-1.95-0.37
	c-4.39-0.42-4.74,2.42-5.43,3.54c-0.95,1.52-2.38,2.4-2.69,2.72c-1.04,1.06-2.55,4.24-3.91,6.05c0.62,1.22,0.26,0.86,1.44,1.44
	C465.13,202.94,471.33,203.28,472.48,203.4z"/>
<path class="st23" d="M479.85,220.23c-2.49,2.05-5.04-4.63-6.02-5.34c-1.44-1.05-3.82-0.25-6.19,0.54c2.9,0.03,2.92-0.23,4.48,1.97
	c1.81,2.56-0.3,2.24,0.76,5.34c0.54,1.59,1.81,2,3.09,1.78c1.32-0.23,2.64-1.15,3.16-2.14L479.85,220.23z"/>
<path class="st24" d="M472.89,222.74c-1.06-3.1,1.05-2.77-0.76-5.34c-1.56-2.21-1.58-1.94-4.48-1.97c-2.58,0.87-5.14,1.72-6.46,0.15
	c-2.2,3.66-2.88,4.28-6.9,5.36c2.35,2.41,2.42,0.74,5.25,4.31c0.56,0.7,1.05,1.31,1.59,1.82c1.27,1.17,2.81,1.73,6.04,1.31
	c2.12-0.27,2.83-1.2,5.43-1.08c1.5,0.07,2.13-0.4,2.6-1.2c0.26-0.44,0.47-0.98,0.75-1.59C474.7,224.75,473.43,224.33,472.89,222.74z
	"/>
<path class="st25" d="M472.62,227.31c-2.6-0.12-3.32,0.81-5.43,1.08c-3.23,0.42-4.77-0.14-6.04-1.31c-0.02,1.28-0.1,2.97,0.05,4.6
	c0.26,2.91,1.24,5.6,4.65,5.32c0.48-0.04,1-0.14,1.57-0.3c3.42-0.96,2.19-3.3,4.36-4.41c2.36-1.21,3.78,0.21,3.46-6.18
	C474.75,226.91,474.12,227.38,472.62,227.31z"/>
<path class="st26" d="M464.94,247.98c5.92-0.51-4.28-5.32-3.91-7.9c2.43-1.96,2.39,1.9,4.8-3.09c-3.4,0.28-4.39-2.42-4.65-5.32
	c-3.62,2.58-7.87-1.86-8.06,2.77c-0.05,1.12,1.97,3.8,1.48,6.52c-0.31,1.71,1.47,1.19,1.17,3.9c-0.33,2.92,2.27,5.27,4.27,6.62
	c0.89,0.6,1.69,0.78,2.56,0.36C463.48,249.17,461.92,248.24,464.94,247.98z"/>
<path class="st27" d="M471.22,248.38c0.09,1.87,2.24,5.04-2.78,5.29c-3.67,0.19-4.86-2.77-6.45,0.08c2.73,2.97,5.44,3.01,9.18,1.3
	c2.27-1.04,2.91-1.53,3.18-3.84C472.3,250.51,471.99,249.86,471.22,248.38z"/>
<path class="st28" d="M470.69,245.73c2.95,7.1,2.6,3.26,4.9,6.36c1.47,1.99,3.78,0.84,4.13,0.31c0,0,0.42-2.91,2.51-1.54
	c0.59,0.39,1.94,2.06,4.31,0.72c2.9-1.64,1.16-2.46,6.2-2.38c0.26,0,0.55,0.01,0.85,0.02c4.31,0.13,3.61,1.27,5.39,1.33
	c2.38,0.08,2.39-2.67,6.34-2.43c0.82,0.05,1.8,0.23,3,0.58c0.45,0.13,2.25,1.04,3.1,0.11c0.27-0.3,0.45-0.78,0.45-1.54
	c0.01-1.64-2.23-4.53-3.04-5.79c-0.63-0.29-1.03-0.85-0.96-2.01c0.09-1.5,0.9-2.18,1.84-2.56c-1.9-1.69-4.91-2.25-7.14-0.98
	c-0.49,0.28-4.27,4.75-8.49,1.18c-2.03-1.72-2.64-4.24-7.9-3.85c-3.43,0.26-4.13,2.36-6.78,3.49l-1.66,0.46
	c-2.24,0.94-1.58,1.65-5.88,1.8c-1.12,0.04-4.01,0.06-3.14,2.92C468.95,242.71,469.91,243.84,470.69,245.73z"/>
<path class="st29" d="M473.08,237.02c0.04-0.01,2.51-0.18,1.77-1.71c-0.48-0.99-1.68,0.24-2.17-1.25c-0.35-1.07-1.06-1-1.63-0.49
	c-0.61,2.7-1.69,1.62-1.54,3.22C469.74,239.48,471.98,237.3,473.08,237.02z"/>
<path class="st30" d="M502.82,229.83l-0.24,6.1c2.24-1.27,5.25-0.71,7.14,0.98c0.88-0.35,1.87-0.44,2.51-0.67
	c1.72-0.63,1.63-1.55,1.77-3.02c-1.25-1.22-3.48-2.35-8.05-2.77C505.24,230.38,504.1,230.17,502.82,229.83z"/>
<path class="st31" d="M512.23,236.23c-0.64,0.24-1.64,0.32-2.51,0.67c-0.95,0.38-1.76,1.06-1.84,2.56
	c-0.07,1.15,0.33,1.72,0.96,2.01c0.58,0.27,1.35,0.3,2.14,0.35l2.83,0.1c1.93-0.04,2.46-0.64,3.86,1.13
	c0.78,0.98,1.04,2.11,3.41,2.36c2.01,0.21,3.22-0.74,5-1.68c-0.91-2.12-1.04-4.78-0.14-7.07l-2.88-2.75
	c-2.25,0.73-3.21,1.19-4.6,3.3c-2.97,0.28-2.38-1.99-4.45-4.01C513.86,234.69,513.95,235.6,512.23,236.23z"/>
<path class="st32" d="M541.92,230.69c3.24-0.36,4.07,2.62,5.66,5.28c1.4,2.35,5.74,6.48,7.77,8.16c1.5,1.25,2.37,1.23,4.31,1.74
	c0.8,0.78,1.4,1.25,2.2,1.47c5.17-2.35-0.36-3.34,1.53-6.3c0,0,1.11-1.18,2.4-2.28l-1.39-1.28l-4.6-4.24
	c-0.68-4.3-3.34-6.25-7.28-5.13c-1.79,0.51-1.92,1.06-2.38,1.95c-2.13-2.73-6.79-8.45-10.01-8.57c-5.77-0.21-4.2,4.98-4,13.75
	C539.28,236.78,538.47,231.08,541.92,230.69z"/>
<path class="st33" d="M590.73,233.87C590.73,233.87,590.73,233.87,590.73,233.87C590.73,233.87,590.73,233.87,590.73,233.87
	L590.73,233.87z M586.2,230.69c-11.44-1.25-14.07,1.88-21.8,6.8l1.39,1.28c1.45-1.25,3.12-2.4,3.66-1.67
	c0.73,2.32-3.24,1.28-1.57,3.95c4.65,0.64,2.5,0.1,6.06,0.05c1.03-0.01,2,0.09,2.86,0.33c3.79-2.88,2.99-1.86,8.24-3.46
	c4.31-1.31,5.75-2.81,5.7-4.11v0c-0.01-0.31-0.11-0.6-0.27-0.88C589.77,231.78,587.85,230.87,586.2,230.69z"/>
<path class="st34" d="M579.47,247.53c1.09-3.61-0.31-5.41-2.67-6.09c-0.85-0.25-1.83-0.35-2.86-0.33c-3.56,0.05-1.41,0.59-6.06-0.05
	c-1.67-2.67,2.3-1.63,1.57-3.95c-0.54-0.73-2.21,0.43-3.66,1.67c-1.29,1.1-2.4,2.28-2.4,2.28c-1.89,2.95,3.64,3.95-1.53,6.3
	c0.65,0.19,1.44,0.21,2.56,0.12c2.73-0.23,4.25-3.42,6.74-2.82c2.06,0.49,1.73,2.63,1.67,4.3c1.46-1.4,3.52-1.9,5.74-1.64
	C578.91,247.36,579.21,247.43,579.47,247.53z"/>
<path class="st35" d="M578.56,247.32c-2.22-0.26-4.28,0.24-5.74,1.64c-0.87,0.84-1.52,1.99-1.85,3.49l-0.76,4.52
	c-0.02,0.05-9.58,12.26-10.6,13.03c-3.22,2.42-8.35,1.64-11.68,0l-1.21-0.67c1.3,3.91,6.52,7.11,4.49,11.34
	c-0.39,0.81-3.99,3.02-2.95,5.18c0.07,0.15,0.17,0.31,0.29,0.46c2.37,2.93,9.1-5.01,14.06,1.59l2.27,4.41
	c0.96-1.31,3.13-1.6,3.39-1.74c2.65-1.46,1.64-6.02,1.3-6.72c-0.55-1.15-6.42-6.38,1.08-7.9c1.79-0.36,5.21-4.45,6.33-6.16
	c5.12-7.77-5.18-13.03,3.5-14.06c3.08-0.36,5.07-1.21,6.53-0.94c-1.31-2.27-2.93-0.21-5.23-4.45c-0.76-1.41-1.24-2.38-2.33-2.81
	C579.21,247.43,578.91,247.36,578.56,247.32z"/>
<path class="st36" d="M551.21,280.66c2.03-4.23-3.19-7.43-4.49-11.34l1.21,0.67c-0.93-2.6-1.42-3.85-1.89-6.77
	c-0.35-2.18-0.32-3.53,0.13-5.54c0.34-1.52,2.01-2.55,3.83-3.39l-8.46-7.95c-3.26-2.23-6.26,0.02-7.77,0.67
	c-3.67,1.56-6.45-0.34-7.71-3.27c-1.78,0.94-2.99,1.89-5,1.68c-2.37-0.25-2.63-1.38-3.41-2.36c-1.4-1.77-1.94-1.16-3.86-1.13
	l-2.83-0.1c-0.79-0.05-1.56-0.09-2.14-0.35c0.81,1.26,3.04,4.16,3.04,5.79c0,0.76-0.18,1.25-0.45,1.54
	c3.44,3.22,2.96,6.32-0.07,9.79c9.05,6.1,4.18,6.97,6.84,12.02c4.78,0.91,5.34-1.37,6.66,3.29c3.3,11.67,11.64,6.88,12.5,6.99
	c5.38,0.65-1.74,3.67,10.92,4.95C547.22,283.68,550.83,281.47,551.21,280.66z"/>
<path class="st37" d="M547.93,269.99c3.32,1.64,8.45,2.42,11.68,0c1.02-0.77,10.58-12.98,10.6-13.03l0.76-4.52
	c0.33-1.5,0.98-2.66,1.85-3.49c0.06-1.67,0.39-3.81-1.67-4.3c-2.49-0.6-4.01,2.59-6.74,2.82c-1.13,0.09-1.91,0.07-2.56-0.12
	c-0.8-0.23-1.4-0.69-2.2-1.47c-0.87,2.66-3.23,4.26-5.03,6.21c-0.99,0.75-2.87,1.39-4.61,2.2c-1.82,0.85-3.49,1.87-3.83,3.39
	c-0.45,2.01-0.48,3.36-0.13,5.54C546.52,266.15,547,267.39,547.93,269.99z"/>
<path class="st38" d="M541.56,246.34l8.46,7.95c1.74-0.81,3.62-1.45,4.61-2.2c1.8-1.94,4.16-3.55,5.03-6.21
	c-1.94-0.51-2.81-0.5-4.31-1.74c-2.03-1.68-6.37-5.81-7.77-8.16c-1.59-2.67-2.42-5.65-5.66-5.28c-3.45,0.38-2.63,6.08-5.79,4.57
	c-1.2-0.58-1.34-4.75-5.88-2.92c-2.19,0.88-3.58,2.48-4.3,4.34c-0.89,2.29-0.77,4.95,0.14,7.07c1.26,2.94,4.04,4.84,7.71,3.27
	C535.3,246.36,538.3,244.11,541.56,246.34z"/>
<path class="st39" d="M518.18,270.62c-2.65-5.05,2.21-5.93-6.84-12.02c3.04-3.47,3.51-6.57,0.07-9.79c-0.85,0.93-2.65,0.03-3.1-0.11
	c-1.21-0.36-2.19-0.53-3-0.58l-0.68,2.58c-0.84,2.98-0.32,0.89-0.67,3.75c-0.62,4.99-1.45,3.93-5.17,5.8
	c-0.87,1.68-0.67,2.38,0.13,2.92c1.04,0.69,3.09,1.09,5.13,2.93c3.52,3.19,5.44,8.22,10.6,7.39c0.89-0.14,1.52-0.48,2.03-0.93
	C517.28,272.03,517.71,271.34,518.18,270.62z"/>
<path class="st40" d="M537.61,282.23c-6.36,2.79-1.13,7.71-12.05,6.27c2.24,3.71,6.4,2.82,8.37,3.19
	c5.23,0.97,3.16,10.45-4.23,12.13c0,0-1.47-0.12-3.45,0.07c1.12,2.42,1.86,4.36,2.62,5.71c1.4,2.48,2.85,2.97,6.77,0.8
	c5.52-3.07,4.35-7.43,6.93-11.3c0.85-1.27,6.11-5.06,1.62-8.94C540.8,287.22,536.99,288.27,537.61,282.23z"/>
<path class="st41" d="M525.56,288.5c-0.01-0.01-2.87-8.33-5.4-11.71c-0.91-1.22-1.21-0.89-3.48-4.24c-0.51,0.45-1.14,0.79-2.03,0.93
	c-5.16,0.83-7.08-4.19-10.6-7.39c-2.03-1.85-4.09-2.24-5.13-2.93l-2.51,1.5c-1.21,1.13-1.35,3.66-1.48,4.1
	c-0.86,2.95-4.02,5.07-5.39,3.95c-0.55,2.39-0.78,3.35,0.21,5.72c1.93,4.63,6.84,11.19,7.38,12.84c0.46,1.41,1.01,6.04,2.16,7.81
	c1.67,2.57-0.17-1.67,3.42,5.55c2.61,5.24,1.3,1.47,3.87,8.63c1.18-5.12,6.2-5.41,9.71-3.29c1.57-4.49,6.53-5.76,9.95-6.1
	c1.98-0.19,3.45-0.07,3.45-0.07c7.38-1.67,9.46-11.16,4.23-12.13C531.96,291.32,527.79,292.21,525.56,288.5z"/>
<path class="st42" d="M526.25,303.88c-3.42,0.33-8.38,1.61-9.95,6.1c-3.51-2.13-8.54-1.83-9.71,3.29
	c0.55,12.06,0.37,13.24,18.17,2.78c2.98-1.75,2.82-2.31,4.12-6.45C528.1,308.24,527.36,306.3,526.25,303.88z"/>
<path class="st43" d="M519.69,326.74c-1.86,1.01-8.22,2.28-10.15,1.9c-1.26-0.25-1.71-0.94-2.35-1.71c-0.07,0.1-0.13,0.21-0.21,0.32
	c-0.32,0.5-0.64,0.8-0.96,0.97l0.02,1.9c0.59,2.44,3.05,2.94,4.54,3.69c4.06,2.06,3.37,4.12,8.44,3.9l-2.11,2.51
	c-5.92,7.34-4.53,5.14-8.67,6c-2.51,0.52-1.9,2.28-2.96,2.87c-1.85,1.03-1.97-1.29-2.74-1.59c-0.14-0.05-0.27-0.08-0.4-0.09
	l-0.05,22.82c3.01-3.65,1.46-1.86,3.23-4.57l7.01-9.03l8.17-10.98c0.38-0.72,1.86-6.01,2.29-7.23c0.66-1.86,3.61-8.62,3.86-10.11
	c0.16-0.96-0.23-2.83-0.9-3.49C523.65,322.76,520.34,326.38,519.69,326.74z"/>
<path class="st44" d="M507.18,326.93c1.89-2.97,1.53-2.99-0.39-5.22c-2.44-2.83-2.86-3.42-5.17-6.52c-2.05,0.81-3.71,1.37-5.08,1.89
	c3.59,0.85,6.42,2.08,7.86,6.52c0.76,2.36-1.56,2.47-0.4,4.62c0.75,0.17,1.39,0.31,2,0c0.33-0.17,0.64-0.47,0.96-0.97L507.18,326.93
	z"/>
<path class="st45" d="M496.55,317.08c1.36-0.52,3.02-1.08,5.08-1.89l-5.21-9.03c-1.7,1.05-2.05,1-2.78,3.75
	c-0.87,3.26-4.77,7.78-1.49,9.96C493.15,318.56,494.52,317.87,496.55,317.08z"/>
<path class="st46" d="M492.15,319.87c-3.28-2.18,0.62-6.71,1.49-9.96c0.73-2.74,1.09-2.7,2.78-3.75c-1.48-2.13-2.06-1.45-2.11-6.46
	v-4.31l-28.62-0.05c-0.03,2.94-0.1,4.96-0.25,5.28c-0.42,0.89-1,1.3-1.71,1.36c0,17.54,0.02,5.85-4.13,16.24
	c-1.13,2.82,0.26,8.23,0.94,9.08c0.02,0.03,0.46,0.21,0.94,0.61c0.57,0.48,1.2,1.28,1.26,2.52c0.02,0.33-0.61,4.68,1.84,6.1
	c2.86,1.66,1.41-1.59,4.81,5.18c0.11,0.22,0.22,0.43,0.34,0.64c2.71,4.94,5.75,5.06,7.88,6.59c0.3,0.21,0.64,0.39,1.01,0.53
	c2.05,0.75,5.07,0.43,7.46-0.11c1.99-0.45,3.54-1.04,3.74-1.29c1.24-1.52-1.35-7.57-2.65-8.26c-0.94-0.5-5.76-0.91-1.8-5.13
	c0.93-0.99,1.52-3.49,2.11-4.21c1.01-1.23,1.69-0.26,2.47-4.41C490.53,323,491.17,321.14,492.15,319.87z"/>
<path class="st47" d="M465.69,295.34l28.62,0.05c-2.45-3.73-2.94-1.1-3.86-3.59c-0.45-1.2-0.11-2.62-0.45-3.85
	c-0.18-0.63-2.32-6.3-2.74-7.08l-2.47-4.82c-1.88-3.11-2.07-1.8-2.07-5.8c1.59,5.92,5.89,5.46,5.34,0.87
	c-0.16-1.36-1.84-4.14-3.46-4.87c-5.77-2.62-6.38,2.03-11.63,0.72c-1.33-0.33-6.36-2.07-7.72-2.56
	C465.28,264.51,465.78,285.28,465.69,295.34z"/>
<path class="st48" d="M488.34,269.27c0.72,1.6,0.47,2.83,1.21,3.44c1.37,1.12,4.53-1,5.39-3.95c0.13-0.45,0.28-2.97,1.48-4.1
	l2.51-1.5c-0.8-0.53-1-1.24-0.13-2.92c-1.01,0.51-3.67,2.48-4.9,2.72c-1.42,0.27-3.24-0.32-4.09-1.69
	c-0.16-0.25-0.25-0.49-0.31-0.71c-0.99,2.22-0.33,2.36-0.54,3.17C488.71,264.7,486.89,266.07,488.34,269.27z"/>
<path class="st49" d="M489.82,261.27c0.84,1.37,2.67,1.97,4.09,1.69c1.23-0.24,3.88-2.21,4.9-2.72c3.72-1.87,4.54-0.81,5.17-5.8
	c0.36-2.86-0.17-0.77,0.67-3.75l0.68-2.58c-3.94-0.24-3.96,2.51-6.34,2.43c-1.78-0.06-1.07-1.2-5.39-1.33l-0.85-0.02
	c0.37,2.14,0.1,1.77-0.77,3.41c-1.29,2.43-0.47,4.04-0.99,5.13c-0.24,0.51-1.83,1.36-1.48,2.83
	C489.57,260.78,489.67,261.02,489.82,261.27z"/>
<path class="st50" d="M482.23,255.78c-0.42,2.23,3.01,3.36,4.54-0.36c0.64-1.55,0.23-1.74,2.42-2.77c-1.6,0.17-1.06,0.22-2.6-0.05
	C485.6,254.53,482.72,253.19,482.23,255.78z"/>
<path class="st51" d="M448.86,242.6c-0.3-0.94-0.42-0.97-0.09-1.9c1.3-0.37,0.87,1.31,2.47,1.13c2.5-4.76-6.48-3.85-8.98-10.16
	c-1.71-4.32-0.94-2.18-4-4.1c-2.03-1.28-2.2-4.96,2.03-5.29c-0.03-0.44,0.07-0.99,0.32-1.72c-2.02-0.18-3.79-1.01-4.23-2.03
	c-4.81,3.93-4.04,3.6-8.8,3.13c-1.11-0.11-1.84,0.18-2.28,0.68c-1.24,1.42-0.18,4.53,0.84,4.96c1.13,0.48,2.08-0.02,3.09-0.24
	c1.28-0.27,2.67-0.1,4.68,3.06c4.45,7,5.66,5.81,9.57,8.26c3.21,2,2.12,5.1,1.62,5.59c-1.34,1.31-6.27,1.54-7.9,2.26
	c1.64,0.32,3.48,0.96,4.54,2.87c0.61,1.1-0.53,4.97,1.3,4.57c1.08-0.24,1.32-6.81,3.14-7.49
	C446.82,245.94,450.08,246.43,448.86,242.6z"/>
<path class="st52" d="M430.54,244.8c4.93-9.39,0.05-7.09,0.76-9.7c0.01-0.02,3.25-5.44-0.81-5.44c-0.72,1.18-0.41,0.9-1.26,1.39
	l-0.27,1.33c0.71,5.88-2.37,2.05-0.67,10.47C428.67,244.75,429.22,244.97,430.54,244.8z"/>
<path class="st53" d="M419.32,241.86c0.87-0.17,1.73-0.15,1.79-2.02c0.07-1.94-2.95-0.97-3.76-0.77c-2.46-0.64-2.65,0.62-2.96,0.92
	c-0.54,0.53-2.58,1.2-2.8,1.48c-0.29,0.37-0.85,3.79,0.9,3.61c1.52-0.16,0.76-2.23,2.69-2.15c0.87,0.04,1.19,1.33,2.22,0.72
	C418.22,243.16,417.58,242.2,419.32,241.86z"/>
<path class="st54" d="M393.71,248.84c-1.52-2.79,0.54-8.58,0.67-11.48c0.22-4.63-3.27-3.38-4.81-5.03c0.16,1.9,0.68,4.71-0.22,5.85
	c-0.31,0.39-2.4,1.43-1.57,4.16c0.27,0.89,2.32,3.56,1.62,5.44c0,0.01-1.36,2.18,0.27,2.72
	C391.09,250.97,392.56,249.66,393.71,248.84z"/>
<path class="st55" d="M430.22,248.96c-2.23,2.23-2.28,4.79-1.53,8.06c-2.44,0.51-1.29,4.39-0.45,5.34c0.57,0.64,2.39,1.26,3.05,6
	c0.11,0.78,0.17,1.53,0.21,2.26c3.27-7.74,4.97-5,4.55-9.5c-0.17-1.8-1.39-2.37-2.6-3.13c2.71-1.44,3.64-4.57,0.81-6.52
	c3.41-0.65,2.31-5.92-1.57-4.31L430.22,248.96z"/>
<path class="st56" d="M436.06,261.12c0.42,4.49-1.28,1.75-4.55,9.5c0.34,6.89-1.93,12.05,3.83,17.59l1.44,1.28
	c3.19,1.88,3.92,2.65,6.37,1.68c0.21-0.08,0.44-0.18,0.68-0.29c5.72-2.62,15.4,11.43,19.89,11.1c0.71-0.05,1.29-0.46,1.71-1.36
	c0.15-0.33,0.23-2.35,0.25-5.28c0.09-10.05-0.41-30.83-0.43-30.94c-0.31-1.38-2.94-3.18-4.09-3.69c-3.38-1.52-7.69,2.22-6.33,5.44
	c1.23,2.93-2.04,3.56-3.37,2.82C445.84,265.85,443.94,258.6,436.06,261.12z"/>
<path class="st57" d="M431.3,268.35c-0.66-4.74-2.48-5.36-3.05-6c-0.84-0.94-1.99-4.83,0.45-5.34c-0.75-3.26-0.71-5.82,1.53-8.06
	c-4.98-0.21-10.5-1.09-15.23,1.03c-2.5,1.12-2.31,0.63-3.23,0.98c-0.65,0.25-4.86,3.36-6.96,4.56c0.23,0.39,0.44,0.9,0.62,1.54
	c1.28,4.57-0.8,1.23,1.93,7.23l-3.1,0.1c-4.89,0.6-3.16,3.83-7.23,6.05c-2.2,1.2-3.3,0.81-4.31,1.03c-0.99,0.22-2.25,1.84-2.65,2.87
	c-0.49,1.25-0.44,2.08-0.78,2.57l7.3,6.6l17.95,16.23c2.07,2.2,2.33,4.01,4.7,4.06c0.37,0.01,0.79-0.03,1.28-0.11
	c2.82-0.48,12.73-10.88,16.26-14.21l-1.44-1.28c-5.76-5.55-3.49-10.71-3.83-17.59C431.48,269.88,431.41,269.13,431.3,268.35z"/>
<path class="st58" d="M407.36,264.3c-2.73-6-0.65-2.67-1.93-7.23c-0.18-0.65-0.39-1.15-0.62-1.54c-1.45-2.45-3.78-0.65-5.8-2.46
	c-0.01-0.01-0.94-1.53-2.2-1.33c-1.72,0.27-0.86,3.11-1.71,4.72c-1.06,2.01-2.2,2.33-3.5,3.08c-2.51,1.45-5.24,3.09-5.16,6.93
	c0.02,0.98,1.02,1.22,1.08,2.67c0.09,2.23-2.11,5.1-3.55,6.41l-2.29,1.74c5.66,0.39,7.09,0.4,7.62-0.36
	c0.34-0.49,0.29-1.31,0.78-2.57c0.4-1.04,1.66-2.66,2.65-2.87c1.01-0.22,2.11,0.18,4.31-1.03c4.07-2.23,2.34-5.46,7.23-6.05
	L407.36,264.3z"/>
<path class="st59" d="M389.83,283.16l-0.54-6.23c-0.52,0.76-1.96,0.75-7.62,0.36c-2.26,1.38-2.72,1.31-4.08,4.13
	c-0.67,1.38-3.45,9.24-4.68,11.3c-1.08,1.83-0.95,0.53-2.61,4.62l1.08-0.02l9-0.18c-0.33-1.65-0.72-3.71,0.81-5.65
	c0.96-1.22,0.9-0.2,1.71-4.21C383.7,283.3,382.6,282.94,389.83,283.16z"/>
<path class="st60" d="M389.83,283.16c-7.22-0.21-6.13,0.15-6.93,4.11c-0.81,4.01-0.75,2.99-1.71,4.21c-1.53,1.94-1.14,4-0.81,5.65
	l-9,0.18c2.83,4.78,2.17,6.13,2.07,13.28c6.66,0,3.71,1.44,6.21,3.49c1.49,1.22,5.21,0.17,6.67-0.07c0.09-0.02,0.18-0.03,0.25-0.04
	l10.88-0.1c-1.38-8.38-0.43-13.9-1.8-23.02c-0.54-3.62-0.57-4.94,0.92-7.34l-7.3-6.6L389.83,283.16z"/>
<path class="st61" d="M395.67,290.86c1.37,9.12,0.42,14.64,1.8,23.02l-10.88,0.1c-0.07,0.01-0.16,0.02-0.25,0.04
	c-3.19,1.74-4.59,2.19-3.49,7.18c0.42,1.93,1.14,2.74,2.01,3.07c1.96,0.75,4.68-0.92,6.39,2.58l0.91,2.13
	c0.7-0.16,1.63-0.22,2.86-0.13c2.83-1.57,2.9-3.05,5.52-7.08c3.73-5.73,5.32-6.58,9.75-6.18c1.49-0.91,4.37-0.65,5.99-1.18
	c3.6-1.18,2.97-5.98,2.97-10.58c-2.37-0.05-2.63-1.86-4.7-4.06l-17.95-16.23C395.1,285.93,395.13,287.24,395.67,290.86z"/>
<path class="st62" d="M419.25,303.81c0,4.6,0.63,9.4-2.97,10.58c-1.62,0.53-4.5,0.27-5.99,1.18c-1.26,0.77-1.51,2.38,0.86,6.01
	c0.78,1.2,1.87,2.18,3.11,2.67c0.64,0.25,1.32,0.37,2.02,0.31c2.84-0.23,1-4.11,4.32-5.34c2.78-1.04,3.76,2.22,7.92,2.88
	c0.69,0.11,6.78-0.12,7.29-0.31c1.47-0.55,2.86-2.35,4.03-4.27c1.37-2.25,2.43-4.66,2.99-5.39c1.35-1.78,2.36-1.18,2.61-6.37
	l-0.18-7.3l-2.09-7.3c-2.45,0.97-3.18,0.2-6.37-1.68c-3.53,3.33-13.44,13.73-16.26,14.21C420.04,303.78,419.61,303.82,419.25,303.81
	z"/>
<path class="st63" d="M382.84,321.2c-1.09-4.99,0.3-5.43,3.49-7.18c-1.46,0.24-5.18,1.29-6.67,0.07c-2.49-2.05,0.46-3.49-6.21-3.49
	c-1.19,5.35-4.22,3.26-4.22,6.14c0,0.93,0.57,2.1,1.03,2.31c0.01,0,5.98,0.7,6.87,1.13l1.57,1.23l1.48,2.96
	c1.71-0.13,3.76-0.09,4.66-0.09C383.99,323.93,383.27,323.13,382.84,321.2z"/>
<path class="st64" d="M378.71,321.4l-1.57-1.23c-0.89-0.42-6.86-1.13-6.87-1.13c0.22,6.34,0.68,5.07,5.03,10.16l3.14,4.14
	c0.06-0.28,0.16-0.5,0.29-0.68c-0.22-2.59-0.53-1.56-1.64-3.41c-0.82-1.35-0.69-3.61,0.72-4.41c0.45-0.26,1.35-0.4,2.38-0.48
	L378.71,321.4z"/>
<path class="st65" d="M384.85,324.26c-0.9,0-2.95-0.04-4.66,0.09c-1.02,0.08-1.92,0.22-2.38,0.48c-1.41,0.8-1.54,3.06-0.72,4.41
	c1.11,1.84,1.42,0.82,1.64,3.41c0.47-0.62,1.36-0.71,2.09-1.1c1.42-0.76,1.73-1.54,2.96-1.44c2.15,0.17,2.15,1.68,2.46,4.29
	c1-0.38,2.44,0.62,2.34,2.77c1.39,0.47,3.05-0.44,2.83-2.44c-0.12-1.15-2.89-4.92,0.73-5.77l-0.91-2.13
	C389.53,323.34,386.81,325.02,384.85,324.26z"/>
<path class="st66" d="M383.79,330.12c-1.24-0.1-1.54,0.68-2.96,1.44c-0.73,0.39-1.61,0.48-2.09,1.1c-0.14,0.18-0.24,0.4-0.29,0.68
	c-0.09,0.44-0.06,1.04,0.13,1.86c0.18,0.8,1.04,2.48,1.57,2.98l2.87,1.64c1.64-1.05,1.98-1.67,2.34-4.1
	c0.1-0.71,0.46-1.14,0.89-1.31C385.94,331.8,385.93,330.3,383.79,330.12z"/>
<path class="st67" d="M385.36,335.71c-0.35,2.44-0.69,3.05-2.34,4.1l8.2,8.62c-0.12-0.48-0.04-1.16,0.33-2.1
	c1.64-4.12,0.28-3.65-0.9-4.51c-2.21-1.62-2.35-2.67-3.01-5.23c0.28,0.28,0.6,0.48,0.94,0.59c0.1-2.15-1.34-3.15-2.34-2.77
	C385.81,334.57,385.46,335,385.36,335.71z"/>
<path class="st68" d="M387.65,336.59c0.66,2.56,0.79,3.61,3.01,5.23c1.18,0.86,2.54,0.4,0.9,4.51c-0.37,0.94-0.45,1.62-0.33,2.1
	c0.39,1.6,2.9,0.93,3.66-0.05c0.91-1.19,0.38-2.76,2.96-2.98l5.29-0.03c-2.73-4.44,0.51-5.46,0.15-10.64
	c-0.08-1.18-0.5-2.35-0.73-3.38c-4.11,0.28-1.46-2.07-7.53-2.52c-1.23-0.09-2.16-0.04-2.86,0.13c-3.63,0.85-0.86,4.63-0.73,5.77
	c0.22,2.01-1.44,2.91-2.83,2.44C388.25,337.07,387.92,336.87,387.65,336.59z"/>
<path class="st69" d="M395.01,328.84c6.07,0.45,3.42,2.8,7.53,2.52c-0.52-2.33-0.09-3.93,7.24-3.24c3.27-1.16,3.64-0.93,4.47-3.86
	c-1.24-0.49-2.33-1.47-3.11-2.67c-2.37-3.64-2.12-5.24-0.86-6.01c-4.42-0.4-6.02,0.45-9.75,6.18
	C397.92,325.79,397.85,327.27,395.01,328.84z"/>
<path class="st70" d="M402.55,331.36c0.23,1.03,0.65,2.21,0.73,3.38c0.37,5.18-2.88,6.21-0.15,10.64c0.25,0.41,0.55,0.84,0.91,1.31
	c2.37,3.1,7.12-1.68,8.85-3.39v-8.98c-0.06-3.83-0.4-4.53-3.1-6.21C402.46,327.42,402.03,329.03,402.55,331.36z"/>
<path class="st71" d="M409.79,328.12c2.7,1.68,3.03,2.38,3.1,6.21v8.98l2.56-0.26l-0.09-8.77c1.22-1.17,2.35-2.03,2.69-3.95
	c0.5-2.75-0.38-4.32-1.78-5.76c-0.7,0.06-1.38-0.06-2.02-0.31C413.43,327.19,413.06,326.96,409.79,328.12z"/>
<path class="st72" d="M418.05,330.33c-0.35,1.92-1.48,2.78-2.69,3.95l0.09,8.77c7.72-0.5,4.82,0.21,6.74,4.51
	c1.05,2.37,3.8,1.66,7.59,1.71c-0.63-1.12-1.02-2.21-0.9-4.17c0.15-2.55,2.63-5.29,4.94-4.26l1.57,0.98
	c3.74-18.29,5.09-8.28,6.8-20.75c-0.77-0.97-1.62-2.01-2.37-3.55c-1.17,1.92-2.56,3.73-4.03,4.27c-0.5,0.19-6.6,0.42-7.29,0.31
	c-4.16-0.65-5.13-3.92-7.92-2.88c-3.32,1.24-1.48,5.12-4.32,5.34C417.67,326.01,418.55,327.58,418.05,330.33z"/>
<path class="st73" d="M433.82,340.84c-2.31-1.03-4.79,1.71-4.94,4.26c-0.12,1.97,0.27,3.06,0.9,4.17c0.69,1.22,1.68,2.48,2.61,4.96
	h7.37c6.02,1.26,7,1.52,7.77-3.25c-0.73,0.41-1.47,0.71-2.29,0.42c-1.92-0.68-2.52-3.48-2.61-5.49c-0.15-3.86,1.29-5.1,3.49-7.85
	c-0.8-0.59-1.68-1.47-2.67-2.72c-3.34-4.2-0.25-5.36,0.81-6.27c0.54-4.53-0.59-6.17-2.05-8.02c-1.71,12.48-3.06,2.46-6.8,20.75
	L433.82,340.84z"/>
<path class="st74" d="M446.11,338.07c-2.2,2.75-3.64,3.99-3.49,7.85c0.08,2.01,0.69,4.81,2.61,5.49c0.81,0.29,1.55-0.02,2.29-0.42
	c0.89-0.5,1.78-1.15,2.79-1.06l1.01,0.28c0.09-0.44,0.22-0.87,0.38-1.31c1.38-3.68,5.56-0.17,7.46,0.05
	c2.47,0.29,3.59-1.04,5.17-1.95c3.73-2.16,3.72-0.83,5.41-4.65c-0.11-0.2-0.22-0.42-0.34-0.64c-3.4-6.77-1.94-3.52-4.81-5.18
	c-2.45-1.42-1.82-5.77-1.84-6.1c-0.06-1.23-0.69-2.03-1.26-2.52c-5.27,7.47-3.02,3.29-6.52,6
	C452.16,336.08,450.36,341.22,446.11,338.07z"/>
<path class="st75" d="M447.51,350.99c-0.76,4.77-1.74,4.51-7.77,3.25l0.45,2.26c0.82,3.84,1.96,6.51,2.02,6.77
	c1.33,5.71-4.2,5.05-5.52,5.7c-1.07,0.52-1.79,2.77-1.4,4.72c0.17,0.83,0.54,1.6,1.17,2.17c0.3-0.63,0.9-1.02,1.89-1.04
	c1.21-0.03,5.8,1.53,7.32-3.13c0.86-2.64-0.47-1.8,1.57-4.98c5.05-7.85,3.15-12.25,4.06-16.49l-1.01-0.28
	C449.29,349.84,448.4,350.49,447.51,350.99z"/>
<path class="st76" d="M442.21,363.27c-0.06-0.27-1.2-2.93-2.02-6.77l-0.45-2.26h-7.37c-4.5,9.03-5.09,12.52,2.91,19.45
	c-0.4-1.95,0.33-4.2,1.4-4.72C438.01,368.32,443.55,368.97,442.21,363.27z"/>
<path class="st77" d="M451.31,350.21c-0.91,4.24,0.99,8.64-4.06,16.49c-2.04,3.18-0.71,2.34-1.57,4.98
	c-1.52,4.66-6.11,3.1-7.32,3.13c-0.98,0.02-1.58,0.42-1.89,1.04c-0.75,1.54,0.29,4.49,1.75,6.68c-0.22-1.85,0.37-3.17,2.78-3.57
	c4.85-0.8,5.49,0.35,7.05,2.92c3.86,6.36,4.34,0.06,8.31,0.92c4.69,1.02,2.92,7.83,2.92,7.85c-0.16,5.66,3.32,1.59,4.54,4.72
	c2.17-1.24,2.82-0.24,4.27,0.87c0.96,0.74,2.13,0.89,2.74,1.18c2.72,1.31,2.78,2.95,3.23,3.64c1.14,1.75,3.05,2.09,3.77,0.62
	c1.92-3.94-5.29-4.37-4-9.85c1-4.26,2.48-5.9,6.31-5.36c-0.82-0.96-1.67-2.23-2.53-3.96c-2.18-4.43-0.93-13.89-0.55-19.64
	c-0.97-0.97-1.42-2.46-0.85-4.75c0.42-1.72,2.41-2.27,2.69-2.57c0.32-0.34,0.45-1.12,0.36-1.59c-0.34-1.85-1.54-1.6-0.65-4.5
	c-0.37-0.14-0.71-0.31-1.01-0.53c-2.14-1.54-5.17-1.65-7.88-6.59c-1.69,3.81-1.68,2.48-5.41,4.65c-1.58,0.91-2.7,2.24-5.17,1.95
	c-1.9-0.22-6.07-3.73-7.46-0.05C451.53,349.34,451.4,349.77,451.31,350.21z"/>
<path class="st78" d="M478.91,355.57c-0.29,0.3-2.27,0.85-2.69,2.57c-0.56,2.29-0.11,3.77,0.85,4.75c1.26,1.26,3.39,1.66,5.3,1.82
	l4.79,0.18c-1.14-1.41-1.69-3.15-0.84-5.51c0.83-2.3,5.92-3.13-0.24-10c-2.39,0.54-5.41,0.86-7.46,0.11
	c-0.89,2.9,0.31,2.65,0.65,4.5C479.35,354.45,479.23,355.23,478.91,355.57z"/>
<path class="st79" d="M487.15,364.88l-4.79-0.18c-1.91-0.16-4.04-0.56-5.3-1.82c-0.38,5.75-1.63,15.21,0.55,19.64
	c0.85,1.73,1.7,3,2.53,3.96c1.01,1.17,1.99,1.87,2.9,2.38c2.41,1.33,4.36,1.29,5.28,4.97c0.68,2.74,0.32,3.46,4.23,3.39
	c2.47-0.04,8.02-0.33,8.46-4.21c0.2-1.74-2.67-2.95-2.61-10.28l0.41-6.84c-1.61-1.99-3.43-4.3-5.3-6
	C491.76,368.3,488.82,366.94,487.15,364.88z"/>
<path class="st80" d="M486.32,359.37c-0.85,2.36-0.31,4.1,0.84,5.51c1.67,2.06,4.61,3.42,6.35,5c1.87,1.7,3.69,4.01,5.3,6l3.28-5.64
	l0.05-22.82c-2.11-0.13-2.19,5.91-5.48,4.35c-2.53-1.2-1.22-3.13-6.83-3.69c-0.2,0.25-1.76,0.84-3.74,1.29
	C492.23,356.24,487.15,357.06,486.32,359.37z"/>
<path class="st81" d="M489.82,348.08c5.61,0.57,4.3,2.5,6.83,3.69c3.29,1.56,3.38-4.48,5.48-4.35c0.13,0.01,0.26,0.04,0.4,0.09
	c0.77,0.3,0.89,2.62,2.74,1.59c1.06-0.59,0.45-2.35,2.96-2.87c4.13-0.86,2.75,1.34,8.67-6l2.11-2.51c-5.07,0.22-4.38-1.84-8.44-3.9
	c-1.48-0.75-3.95-1.26-4.54-3.69l-0.02-1.9c-0.61,0.31-1.24,0.18-2,0c-1.16-2.15,1.17-2.26,0.4-4.62c-1.44-4.44-4.28-5.67-7.86-6.52
	c-2.04,0.78-3.4,1.48-4.41,2.79c-0.98,1.27-1.61,3.12-2.19,6.2c-0.78,4.15-1.46,3.19-2.47,4.41c-0.59,0.72-1.18,3.22-2.11,4.21
	c-3.97,4.22,0.86,4.63,1.8,5.13C488.47,340.51,491.06,346.56,489.82,348.08z"/>
<path class="st82" d="M463.82,395.38c-1.22-3.13-4.7,0.94-4.54-4.72c0-0.02,1.77-6.83-2.92-7.85c-3.97-0.86-4.45,5.43-8.31-0.92
	c-1.56-2.57-2.2-3.72-7.05-2.92c-2.42,0.4-3,1.72-2.78,3.57c0.48,4.05,4.83,10.62,2.24,15.46c-2.41,4.51-5.73,1.84-4.33,17.56
	c0.23-3.32,4.87-3.11,6.53-2.17c4.62,2.63,5.42,0.78,9.34,1.74c3.97,0.98-0.02,0.78,7.14,1.03c1.02-0.62,1.89-1.1,2.66-1.45
	l-1.71-2.09c-1.31-2.16-0.99-10.61-0.99-10.62c0.52-1.86,2.54-2.23,2.7-2.31C463.52,398.81,463.11,397.89,463.82,395.38z"/>
<path class="st83" d="M463.82,395.38c-0.7,2.51-0.29,3.43-2.02,4.31c-0.16,0.08-2.18,0.45-2.7,2.31c0,0.01-0.32,8.46,0.99,10.62
	l1.71,2.09c3.05-1.39,4.38-0.69,6.9,0.93c0.85-0.38,1.97-0.34,2.35-0.51c2.3-1.02,1.96-3.66,4.36-5.08c1.37-0.81,1.85-2.54,3.2-2.59
	c0.27-2.07,2.85-3.59,5.24-3.93c0.84-5.83,1.49-9.25-0.8-14.67c-0.91-0.5-1.89-1.2-2.9-2.38c-3.83-0.54-5.31,1.1-6.31,5.36
	c-1.29,5.48,5.92,5.91,4,9.85c-0.72,1.48-2.63,1.13-3.77-0.62c-0.45-0.69-0.52-2.33-3.23-3.64c-0.61-0.29-1.78-0.45-2.74-1.18
	C466.64,395.15,465.98,394.15,463.82,395.38z"/>
<path class="st84" d="M475.4,410.06c-2.39,1.42-2.05,4.06-4.36,5.08c-0.38,0.17-1.49,0.13-2.35,0.51c-1.55,0.68-2.25,2.72,3.74,9.75
	l3.65,3.79c1.39-0.45,2.81-0.18,5.29-0.15c0.08-0.49,0.75,0.06,2.38-5.34c3.99-13.21-4.43-11.95-5.12-15.29
	c-0.07-0.33-0.08-0.65-0.04-0.95C477.25,407.51,476.77,409.24,475.4,410.06z"/>
<path class="st85" d="M483.04,388.86c2.3,5.42,1.64,8.85,0.8,14.67c2.82-0.4,5.38,0.85,3.6,4.78c-2.23,4.91,5.76,6.56,3.28-2.56
	c-2.25-8.3-3.43,1.86-2.4-11.92C487.4,390.15,485.45,390.19,483.04,388.86z"/>
<path class="st86" d="M488.32,393.83c-1.03,13.78,0.14,3.62,2.4,11.92c2.48,9.12-5.51,7.47-3.28,2.56c1.78-3.93-0.78-5.18-3.6-4.78
	c-2.39,0.33-4.97,1.86-5.24,3.93c-0.04,0.31-0.03,0.63,0.04,0.95c0.69,3.34,9.11,2.08,5.12,15.29c-1.63,5.4-2.3,4.85-2.38,5.34
	c-0.07,0.44,0.33,1.73,0.94,8.92c0.06,0.71,0.12,1.48,0.19,2.32c0.79-0.38,1.62-0.75,2.43-1.15c4.41-2.17,8.45-5.21,4.8-14.5
	c-2.16-5.49,11.55-8.6,12.35-16.93L501,393c-0.44,3.89-5.98,4.17-8.46,4.21C488.64,397.29,489,396.56,488.32,393.83z"/>
<path class="st87" d="M515.13,408.31c-0.83,0.61-8.34,1.19-6.75,9.14c1.61,8.03-4.85,11.49-0.36,19.83c1.2,2.22,2.51,2.29,4.5,2.98
	c5.52-0.48,4.21-5.16,6.3-11.2c4.13-11.96,2.79-4.96,4.5-17.88c0.29-2.2,3.17-16.64-2.52-15C517.99,397,517.76,406.38,515.13,408.31
	z"/>
<path class="st88" d="M484.57,445.56l0.37-6.43c-0.81,0.4-1.64,0.77-2.43,1.15c-0.06-0.83-0.13-1.61-0.19-2.32
	c-1.98,0.15-3.19,0.58-3.5,3.24c-0.43,3.82,1.87,4.28,4.15,4.34C483.52,445.55,484.06,445.55,484.57,445.56z"/>
<path class="st89" d="M482.97,445.54c-2.28-0.06-4.59-0.52-4.15-4.34c0.3-2.66,1.52-3.09,3.5-3.24c-0.61-7.19-1.01-8.47-0.94-8.92
	c-2.48-0.03-3.9-0.3-5.29,0.15c-1.42,0.46-2.79,1.66-5.22,4.61c-2.39,2.91-2.54,9.09-8.19,3.29c-1.87,7.31-5.87,6.93-6.66,3.8
	c-1.11-4.39,0.27-3.26-1.98-5.65c0.31,8.06,1.95,14.8-2.88,13.67c-1.4-0.33-0.63-2.1-5.49-2.36c9.9,17.51,1.97,13.38,4.68,18.6
	c1.51,2.91,7.58,4.58,9.98,0c5.6-0.18,9.75,0.75,14.84-3.29c3.84-3.04,3.56-6.98,6.03-10.89
	C482.91,448.27,482.91,448.38,482.97,445.54z"/>
<path class="st90" d="M462.69,437.09c5.64,5.8,5.8-0.38,8.19-3.29c2.42-2.95,3.8-4.15,5.22-4.61l-3.65-3.79
	c-5.99-7.04-5.29-9.07-3.74-9.75c-2.52-1.62-3.85-2.32-6.9-0.93c-0.76,0.35-1.63,0.82-2.66,1.45c-2.46,1.5-1.57,5.54-1.57,12.16
	l-3.64-0.05l0.11,6.97c2.25,2.39,0.87,1.26,1.98,5.65C456.82,444.02,460.82,444.39,462.69,437.09z"/>
<path class="st91" d="M454.05,435.24l-0.11-6.97l3.64,0.05c0-6.62-0.89-10.66,1.57-12.16c-7.16-0.25-3.17-0.05-7.14-1.03
	c-3.92-0.96-4.73,0.88-9.34-1.74c-1.66-0.94-6.3-1.15-6.53,2.17c-0.1,1.35,0.54,3.28,2.4,5.99c3.51,5.12,2.38,5.79,4.27,13.85
	l2.89,11.14c4.86,0.26,4.08,2.03,5.49,2.36C456,450.04,454.36,443.3,454.05,435.24z"/>
<path class="st92" d="M448.64,230.33c0.38,0.4,1.97,3.15,2.87,2.21c0.16-0.16,0.4-1.61,1.53-2.62c0.19-0.17,2.01-0.93,1.26-2.87
	c-0.83-2.14-1.51-0.32-0.92-5.83l-1.78,0.54c-2.86,0.43-4.96-0.96-5.55-2.52l-1.59,0.78c-1.2,0.51-2.58,0.65-3.85,0.54
	c-0.25,0.72-0.34,1.28-0.32,1.72c0.1,1.7,1.95,1.75,3.14,3.44C445.2,228.25,447.11,228.75,448.64,230.33z"/>
<path class="st93" d="M427.57,221.66c4.77,0.47,3.99,0.8,8.8-3.13c-0.05-0.12-0.1-0.24-0.13-0.35c-10.38-0.84-6.26-4.63-9.21-4.63
	c-0.7,0.8-0.36,1.24-0.54,2.16c-0.42,2.13-2.76,2.15-3.5,3.85c0.61,2.1,1.03,0.71,2.31,2.79
	C425.74,221.85,426.46,221.55,427.57,221.66z"/>
<path class="st94" d="M427.03,213.56c2.96,0-1.17,3.79,9.21,4.63c-0.56-1.88,2.3-1.05,3.96-4.82c-2.19-0.37-3.27-2.55-3.25-3.81
	c0.03-1.89,0.88-2.04,1.93-2.21c2.91-0.46,2.73-1.19,3.64-1.39c0.24-0.05,0.47-0.07,0.71-0.06c-0.37-2.23-0.1-5.66-1.39-6.87
	c-0.81-0.76-0.36,0.49-1.44-1.39c-2.35-4.07-2.89,1.46-6.87-0.82c-1.28-0.73-2.11-1.28-3.5-0.67c-0.35,1.78,1.63,1.13,1.39,3.18
	c-3.1,1.54-2.75-1.37-6.06,0.92c-0.76,5.83,0.1,0.63-2.16,6.04c0.74,0.41,1.44,1.28,1.76,3.45l0.24,3.18
	C425.95,213.22,426.61,213.46,427.03,213.56z"/>
<path class="st24" d="M440.21,213.36c-1.66,3.78-4.52,2.94-3.96,4.82c0.03,0.11,0.07,0.22,0.13,0.35c0.44,1.02,2.21,1.84,4.23,2.03
	c1.28,0.12,2.65-0.03,3.85-0.54l1.59-0.78c-0.28-0.73-0.22-1.51,0.25-2.14c0.46-0.63,1-0.99,1.53-1.17
	c0.03-0.58,0.04-1.02,0.21-1.38c-2.05-1.26-3.25-2.23-5.42-1.45C441.71,213.42,440.9,213.48,440.21,213.36z"/>
<path class="st95" d="M446.3,217.1c-0.47,0.64-0.53,1.41-0.25,2.14c0.59,1.56,2.69,2.95,5.55,2.52l1.78-0.54l0.92-0.28
	c4.02-1.08,4.69-1.7,6.9-5.36c-0.3-0.36-0.54-0.86-0.7-1.51c-2.27,0.29-3.53-0.91-4.49-0.36c-0.41,0.23-2.21,3.63-4.9,2.77
	c0,0-1.66-1.09-3.28-0.55C447.3,216.11,446.77,216.46,446.3,217.1z"/>
<path class="st22" d="M447.83,215.93c1.62-0.54,3.27,0.55,3.28,0.55c2.69,0.86,4.48-2.54,4.9-2.77c0.96-0.55,2.22,0.65,4.49,0.36
	c-0.28-1.17-0.04-2.15,0.37-2.92l-4.68-0.26c-0.93,0-1.69,0.09-2.31,0.23c-2.34,0.54-2.81,1.87-3.39,2.23l-1.66,0.46
	c-0.41,0.21-0.64,0.45-0.78,0.73C447.87,214.91,447.86,215.35,447.83,215.93z"/>
<path class="st96" d="M448.04,214.55c0.13-0.28,0.37-0.52,0.78-0.73l1.66-0.46c0.59-0.36,1.05-1.69,3.39-2.23
	c-4.44-1.02-7.76-5.09-10.63-5.21c-0.24-0.01-0.48,0.01-0.71,0.06c-0.91,0.19-0.73,0.92-3.64,1.39c-1.05,0.17-1.9,0.32-1.93,2.21
	c-0.02,1.26,1.06,3.44,3.25,3.81c0.69,0.12,1.49,0.06,2.41-0.27C444.79,212.32,445.99,213.29,448.04,214.55z"/>
<path class="st97" d="M443.24,205.91c2.86,0.13,6.18,4.19,10.63,5.21c0.63-0.14,1.38-0.23,2.31-0.23l4.68,0.26
	c0.7-1.33,1.92-2.05,1.92-2.06c1.12-1.34,0.94-3.9,1.26-4.41c-1.18-0.58-0.82-0.21-1.44-1.44c1.67-5.44-1.17-7.19-3.87-7.39
	c-1.44-0.11-2.84,0.22-3.5,0.67c-0.68,0.47-1.15,1.49-1.53,2.21c-0.38-2.52-1.06-4.5-3.68-4.41c-4.32,0.14-0.34,2.73-8.17,4.72
	C443.14,200.24,442.87,203.68,443.24,205.91z"/>
<path class="st98" d="M423.21,206.31c2.26-5.4,1.4-0.21,2.16-6.04l-1.47-0.03c-1.03,0.28-1.55,1.65-1.59,1.71
	c-1.02,1.54-2.84-0.89-4.07,2.97c1.01,0.03,2.04,0.49,3.31,0.89C422.03,205.96,422.64,205.99,423.21,206.31z"/>
<path class="st99" d="M423.21,206.31c-0.58-0.31-1.18-0.35-1.66-0.5c-1.27-0.4-2.3-0.86-3.31-0.89c-0.96-0.03-1.9,0.35-3.02,1.56
	c2.71-0.42,4.11,3.41,5.21,4.31c0.32,0.26,2.84,1.4,4.78,2.15l-0.24-3.18C424.65,207.58,423.96,206.71,423.21,206.31z"/>
<path class="st100" d="M411.59,206.78c2.04-3.56,4.68-4.12,1.12-6.46c-5.73-3.77-5.81-7.99-8.85-8.11c-0.92-0.04-1.73,0.37-2.6-0.26
	c-0.06-0.57-0.09-0.34,0.09-0.87c0.93-0.4,4.92-0.13,4.18-2.87c-0.62-2.26-3.15-0.13-5.57-1.75c1.8-1.18,4.56-2.88,4.13-4.82
	c-4.44-2.77-6.51,5.39-6.51,5.39c-0.88,1.62-1.5,0.37-0.9,2.92c0.4,1.71,0.32,2.27-0.45,3.28c-5.98,0-4.52,4.79-1.57,4.87
	c1.65,0.05,2.26-0.58,2.64-1.35c0.54-1.1,0.62-2.5,2.62-2.71c4.55-0.46,4.13,4.51,2.78,5.03c-0.01,0.01-5.15,0.06-3.41,4.36
	c1.23,3.06,3.41-0.48,4.58,0.31l0.45,0.51c-0.29,1.99-2.66,2.04-6.15,3.8c-1.49,0.75-3.94,0.22-2.65,3.18
	c1.4,0.4,1.44,0.37,2.47-0.46c0.76-3.48,3.1,0.61,4.27-2.72C403.03,208.58,409.49,210.44,411.59,206.78z"/>
<path class="st101" d="M396.1,192.95c1.52-2.48-1.08-3.35,0.6-5.5c-2.44-0.28,1.95-5.27-1.1-4.96c-1.89,0.19-1.54,1.11-3.4,2.89
	c-2.43,2.31,1.56,2.95,2.08,3.68C394.8,189.79,394.12,190.91,396.1,192.95z"/>
<path class="st101" d="M394.65,198.11c-2.95-0.08-4.41-4.87,1.57-4.87c-5.05-2.22-5.37,1.84-7.5,2.67
	c-1.56,0.61-3.18-0.38-2.47,3.39c1.75,1.27-3.09,9.43,3.59,7.18c1.43-0.48,1.42-1.78,3.73-2.77c3.12-1.34,3.83-2.48,3.71-6.94
	C396.91,197.54,396.31,198.16,394.65,198.11z"/>
<path class="st102" d="M424.28,177.01c-3.44,6.55-0.13,10.1,3.42,8.94c1.35-0.44,7.23-4.41,9-5.45c4.38-7.09-4.07-10.73,3.33-13.26
	c3.31-1.13,2.43-2.12,2.7-4.93c0.33-3.4,0.73-0.75,1.8-4.42c0.16-0.39,0.3-0.74,0.43-1.04c-2.21,0.74-4.81,1.01-6.01,4.63
	c-0.14,0.42,0.02,1.85-1.17,3.19l-2.07,1.64c-2.29,2.8,0.84,0.87-4.86,2.67c-3.92,1.24-2.41,1.75-6.84,2.57
	C420.65,172.19,419.78,174.44,424.28,177.01z"/>
<path class="st97" d="M427.53,188.52c-1.49,1.28-1.64,6.02,1.17,6.26l2.83-0.46c0-2.88,3.81-1.49,2.92-3.9
	c-0.66-1.79-1.4-0.1-0.72-3.49c0.38-1.87-1.28-2.56-2.65-0.62C429.38,188.72,429,187.26,427.53,188.52z"/>
<path class="st103" d="M436.69,180.5c-4.11,6.64,2.31,5.21,1.98,10.17c-1.2,0.59-1.1,0.47-1.68,0.96c-2.37,1.98,13.21,3.55,9.86-6.2
	l-0.81-1.95c8.33,1.06,9.68-5.23,3.15-6.99c-3.42-6.69,5.91-6.14,7.47-9.76c0.2-0.46,0.26-3.68,1.53-4.01
	c2.48-0.63,3.61,2.04,6.3-2.07c-0.25-0.21-0.46-0.49-0.63-0.91c-0.77-1.92-1.49-3.44-1.35-4.66c-0.79-1.9-3.01-3.69-4.86-3.97
	c-0.65,0.58-3.22,5.74-5.31,2.57c-6.46-0.79-3.25,1.89-7.83,4.21c-1.07,3.67-1.47,1.02-1.8,4.42c-0.27,2.82,0.62,3.8-2.7,4.93
	C432.62,169.78,441.08,173.42,436.69,180.5z"/>
<path class="st96" d="M457.21,191.17c-0.14,0.13-0.26,0.27-0.35,0.43c-1.13,1.99,0.69,3.25,1.88,4.25c2.7,0.2,5.53,1.96,3.87,7.39
	c1.36-1.81,2.87-4.99,3.91-6.05c0.31-0.32,1.75-1.2,2.69-2.72c-0.58-2.88-1.11-3.82-5.21-4.1
	C462.48,190.26,458.65,189.86,457.21,191.17z"/>
<path class="st104" d="M457.21,191.17c1.45-1.3,5.27-0.9,6.79-0.8c4.1,0.28,4.63,1.22,5.21,4.1c0.7-1.12,1.04-3.96,5.43-3.54
	l1.95,0.37c-1.63-1.26-3.05-2.18-3.29-2.69c-0.16-0.33-0.29-0.64-0.41-0.94l-4.72-0.91c-4.01,0.32-2.63,2.76-6.15,0.67
	C459.2,185.77,457.34,188.41,457.21,191.17z"/>
<path class="st105" d="M464.66,184.82c0.28,0.13,1.71,1.39,3.51,1.95l4.72,0.91c-1.29-3.28-0.39-5.02,1.37-6.01l-2.58-0.55
	c-3.26-1.13-1.19-1.4-5.58-0.1c-3.3,0.98-4.09,0.01-7.11,0.92C457.23,185.57,461.89,183.57,464.66,184.82z"/>
<path class="st106" d="M462.5,155.08c0.13-1.15,1.01-2.03,3.33-2.74c6.04-1.83,7.66-5.28,10.19-5.6
	c-17.79-4.37-14.83,0.79-20.98,1.49c-8.13,0.92-7.78,5.59-8.01,5.96c-0.66,1.07-0.7-0.5-2.09,2.66c-0.13,0.3-0.28,0.64-0.43,1.04
	c4.58-2.32,1.36-5,7.83-4.21c2.08,3.17,4.65-1.99,5.31-2.57C459.49,151.4,461.71,153.18,462.5,155.08z"/>
<path class="st107" d="M279.82,445.2c-7.61,0.88,6.09-7.71-6.2-10.41c-3.4-0.75-4.44-5.01-6.34-5.96c-0.85-0.42-1.87-0.18-3.36,1.34
	c-1.9-2.05-6.35-3.2-6.45,0.62c0,0.21,0,0.43,0.02,0.67c0.56,6.11-5.18,2.51-3.5,8.57c1.76,6.39-2.37,2.85-2.65,12.57
	c-0.12,4.23-2.87,3.58-0.22,8.72c2.56,4.96-3.55,11.42-3.68,14.11c-0.12,2.53,1.82,2.86,0.13,5.23c-1.42,2.01,0.16,4.05-1.48,7.08
	c-2.53,4.66,6.18,6.23-2.47,22.21c-3.82,7.06,1.44,6.48,1.89,7.08c2.8,3.8,1.15,0.81,3.86,2.31c4.16,2.3,2.28,9.46,10.29,10.14
	c1.12,0.09,2.44,0.06,3.99-0.13c0.65-0.08,5.38-1.84-2.69-3.44c-4.33-0.86-9.57-7.07-7.23-10.52c4.27-6.3,11.42-9.57,5.97-11.54
	c-7.31-2.65,1.34-4.66,2.6-8.62c0.79-2.47,5.53-2.1,4.45-5.23c-0.57-1.65-3.41-0.98-4.63-0.87c-2.12-3.08-0.48-6.9,1.48-2.87
	c0.52,1.06,5.12,3.18,5.57-1.28c0.75-7.47,13.87-2.66,13.16-11.49c-0.2-2.56-1.35-1.46-1.1-5.04c-3.05-0.43-4.96-3.52-3.79-7.27
	c1.98-6.39,0.44-6.06,2.56-8.35c1.9-3.32,4.76-6.42,7.92-8.22c0.54-3.52-0.68-6.82-2.31-9.82
	C286.26,440.69,286.55,444.42,279.82,445.2z"/>
<path class="st108" d="M243.62,509.95c8.66-15.98-0.06-17.55,2.47-22.21c1.64-3.03,0.06-5.07,1.48-7.08
	c1.68-2.37-0.26-2.71-0.13-5.23c0.13-2.69,6.24-9.15,3.68-14.11c-2.65-5.14,0.1-4.49,0.22-8.72c0.28-9.72,4.41-6.18,2.65-12.57
	c-1.67-6.06,4.06-2.46,3.5-8.57c-0.02-0.24-0.03-0.46-0.02-0.67c-2.79-0.55-2.75-4.52-3.25-7.08c-1.34-6.72-0.57-4.35-0.85-7.75
	c-0.06-0.78-0.38-1.1-0.78-1.06c-0.88,0.09-2.19,1.86-2.42,4.19c-0.09,0.95,0,2,0.37,3.07c1.97,5.63-0.89,6.5-0.76,9.65
	c0.02,0.58,0.64,1.31,0.09,2.92c-1.26,3.7,0.51,0.21-0.31,7.44c-0.78,6.82-2.42,1.43-1.89,15.65c0.13,3.55-2.93,13.71-3.64,14.72
	c-1.22,1.74-2.97,1.34-0.94,4.98c2.34,4.2-1.88,5.61-0.76,13.24c0.71,4.84,1.58,4.17-1.03,8.67c-2.62,4.51-5.03,14.77-1.89,18.88
	c0,0,4.35,3.55,4.72,4.05c1.65,2.28,0.16,2.83,4.81,4.41c5.47,1.87,3.52,3.55,10.74,2.7c-8.02-0.67-6.13-7.83-10.29-10.14
	c-2.71-1.5-1.06,1.49-3.86-2.31C245.06,516.43,239.79,517.01,243.62,509.95z"/>
<path class="st73" d="M277.44,461.16c-1.16,3.76,0.74,6.84,3.79,7.27c2.55,0.36,5.91-1.14,8.93-5.65c-3.69-5.9-4.38-5.84-10.16-9.97
	C277.88,455.09,279.41,454.77,277.44,461.16z"/>
<path class="st109" d="M267.28,428.83c1.9,0.94,2.94,5.21,6.34,5.96c12.29,2.7-1.41,11.29,6.2,10.41c6.73-0.78,6.44-4.51,5.79-10.43
	c-0.47-0.86-0.97-1.7-1.47-2.51c-1.09-1.76-8.09-6.03-5.78-11.65C272.47,415.29,263.54,417.34,267.28,428.83z"/>
<path class="st110" d="M267.28,428.83c-3.74-11.49,5.19-13.54,11.08-8.22c0.04-0.09,0.08-0.18,0.12-0.27
	c2.58-5.59,1.12-2.67-0.72-6.78c-2.3-5.15-5.51,0.07-5.04-6.78c0.78-11.23-7.81,0.45-10.79-13.05c-1.15-5.2-4.81-0.62-9.06,0.31
	l-0.28,20.87c0.41-0.04,0.72,0.27,0.78,1.06c0.28,3.4-0.48,1.02,0.85,7.75c0.51,2.56,0.46,6.53,3.25,7.08
	c0.09-3.82,4.55-2.67,6.45-0.62C265.4,428.65,266.43,428.41,267.28,428.83z"/>
<path class="st111" d="M277.75,413.55c1.84,4.12,3.3,1.19,0.72,6.78c-0.04,0.09-0.08,0.18-0.12,0.27
	c-2.31,5.62,4.69,9.89,5.78,11.65c0.5,0.81,1,1.65,1.47,2.51c1.63,3,2.85,6.3,2.31,9.82c-3.15,1.8-6.01,4.9-7.92,8.22
	c5.78,4.13,6.48,4.07,10.16,9.97c6.84-10.6,10.64-12.82,9.71-19.42c-1.5-10.73,14.73-11.49,15.29-11.92
	c4.07-3.13,6.17-15.93,6.39-21.07l0.18-9.14c4.72-3.08,8.63-9.46,9.35-15.62c-0.28-9.88-3.81-9.53-6.66-10.48
	c-2.22-5.79-7.27-4.49-11.15-5.45c-3.05-0.75-3.24-0.14-5.31,1.34c1.36-6.62-6.24-6.91-6.84-6.58c-0.02,0.01-7.42,7.89-9.98,3.7
	c-2.47-4.04,7.8-7.57,4.14-12.02c-1.17-1.42-1.85,0.76-2.52-5.86c-4.44,3.12-0.6,5.54-5.41,5.09c-0.54-0.05-1.19-0.14-1.97-0.26
	c-1.23-0.2-2.39-0.03-3.5,0.37c-2.1,0.75-4,2.3-5.76,3.74c-3.36-2.47-1.94-8.2-2.43-12.13l-0.9-0.51c-2.68,1.18-3.4,5.44-7.38,2.98
	c-1.41-0.87-2.31-0.97-3.96-1.44c5.03,4.26,0.69,0.91,4.23,6.58c1.13,1.81-7.64,12.58-8.73-2.88l-1.26,2.36
	c-2.62,0.6-1.69,0.23-4.05,1.44c-0.53,3.61,0.99,9.33,0.53,13.7c-0.21,2.04-0.85,3.79-2.33,4.9c-0.03,0.02-9.94,3.78-5.31,13.77
	c2.68,5.77,5.61,6.65,8.3,6.06c4.25-0.93,7.9-5.51,9.06-0.31c2.99,13.5,11.57,1.82,10.79,13.05
	C272.24,413.63,275.45,408.4,277.75,413.55z"/>
<path class="st112" d="M252.58,414.9l0.28-20.87c-2.69,0.59-5.63-0.29-8.3-6.06c-4.63-9.99,5.28-13.75,5.31-13.77
	c1.47-1.11,2.11-2.86,2.33-4.9l-0.53-1.32c-3.9-1.48-5.88,0.31-6.74-0.56c-0.27-0.27-2.12-5.96-4.79-4.98
	c-0.61,0.22-1.26,0.79-1.94,1.85c-2,3.09,0.43,1.35-3.41,4.67c-3.73,3.22-0.99,6.35-4.04,6.67c-0.99,0.11-2.51-1.43-3.89-1.75
	c-0.81-0.18-1.56,0.05-2.13,1.28c-1.66,3.59,4.16,7.88,4.18,7.9c0.17,0.22,4.4,10.35,4.81,11.6c0.81,2.46,2.48,10.81,3.82,12.52
	c1,1.27,5.92,3.37,12.65,11.91C250.39,416.76,251.71,415,252.58,414.9z"/>
<path class="st113" d="M234.77,368.96c3.84-3.32,1.41-1.57,3.41-4.67c0.68-1.06,1.34-1.63,1.94-1.85c-2.53-2.32-2.93-0.87-5.63-3.28
	c-1.03-0.92-2.01-1.95-4.09-1.81c-0.5,0.03-1.06,0.14-1.7,0.32c-2.53,0.73-4.05,4.44-2.38,8.93c1.38,3.7,1.14,3.74,0.51,7.28
	c1.38,0.31,2.9,1.85,3.89,1.75C233.78,375.31,231.04,372.18,234.77,368.96z"/>
<path class="st73" d="M234.5,359.16c2.7,2.41,3.1,0.96,5.63,3.28c2.67-0.98,4.53,4.71,4.79,4.98c0.85,0.87,2.84-0.92,6.74,0.56
	l0.53,1.32c0.46-4.38-1.06-10.09-0.53-13.7c2.36-1.21,1.42-0.84,4.05-1.44l1.26-2.36c-1.47-3.94-2.66-4.15,0.75-6.49
	c0.7-4.22-2.75-1.98-5.66-4.36c-2.52-2.05-5.11-0.72-6.15-2.72c-0.02-0.05-0.9-2.82-1.3-3.69c-1.12-2.4-0.9-1.3-0.9-4.16
	c0.86-0.79,2.52-1.92,3.82-3.12c1.59-1.46,2.66-3.03,1.16-4.27c-1.84-1.53-4.33,2.29-5.84,3.03c-5.94,2.88-3.27,3.49-5.34,6.57
	c-0.51,0.76-1.23,1.22-1.9,1.8c-1.19,1.02-2.24,2.44-1.79,6.66c0.05,0.43,0.11,0.9,0.19,1.4c1.86,11.67-0.97,8.98-3.6,14.92
	C232.5,357.21,233.47,358.24,234.5,359.16z"/>
<path class="st114" d="M257.72,345.31c-3.41,2.34-2.22,2.55-0.75,6.49c1.08,15.45,9.86,4.69,8.73,2.88
	c-3.53-5.66,0.8-2.32-4.23-6.58c1.65,0.47,2.55,0.57,3.96,1.44c3.98,2.46,4.7-1.8,7.38-2.98c-3.13-4.83-1.44-4.45-0.04-9.36
	c0.17-0.6,0.25-1.15,0.26-1.64c0.04-4.39-5.9-4.56-5.92-4.56c-2.32-1-0.94-2.97-4.36-1.69c-2.92,1.09-6.31-0.84-7.1-2.05
	c-3.74-5.76-2.68-3.03-8.12,0.01c-1.31,1.2-2.96,2.32-3.82,3.12c0,2.85-0.22,1.75,0.9,4.16c0.41,0.87,1.28,3.65,1.3,3.69
	c1.04,2,3.64,0.67,6.15,2.72C254.97,343.33,258.43,341.09,257.72,345.31z"/>
<path class="st115" d="M272.77,337.2c-1.4,4.91-3.09,4.52,0.04,9.36l0.9,0.51c0.49,3.92-0.93,9.66,2.43,12.13
	c1.76-1.44,3.67-2.99,5.76-3.74c-3.38-4.26-4.93-8.82,0.57-12.56c-7.42-1.42-2.39-6.27-9.44-7.34
	C273.02,336.05,272.94,336.6,272.77,337.2z"/>
<path class="st70" d="M282.47,342.9c-5.51,3.74-3.95,8.3-0.57,12.56c1.11-0.4,2.28-0.57,3.5-0.37c0.78,0.13,1.43,0.21,1.97,0.26
	c-0.72-3.88-1.26-8.06,0.18-11.8C285.55,342.9,283.53,343.1,282.47,342.9z"/>
<path class="st116" d="M287.54,343.54c-1.43,3.75-0.89,7.92-0.18,11.8c4.81,0.45,0.96-1.97,5.41-5.09l-0.83-2.38
	C290.93,345.28,289.25,344.1,287.54,343.54z"/>
<path class="st114" d="M228.3,335.71c0.75-1.44,1.41-1.79,2.83-1.03c1.02,3.62-0.42,3.55,2.69,6.35c-0.45-4.21,0.6-5.63,1.79-6.66
	c-2.88,0.12-1.38-1.22-3-2.21c-2.57-1.57-5.36,1.91-7.5,1.03l-2.78-2.16l-0.24,4.85c0.8,0.48,1.45,1.02,1.76,1.62
	c0,0.01,1.01,4.4,3.55,3.33C228.88,340.22,227.94,336.99,228.3,335.71z"/>
<path class="st70" d="M222.1,335.89l0.24-4.85c-1.17-1.4-0.93-2.79-2.46-3.43c-0.86-0.36-2.28-0.48-4.82-0.22
	c-0.88,1.72-0.62,4.63,1.17,5.9C216.91,333.79,220.01,334.64,222.1,335.89z"/>
<path class="st114" d="M215.06,327.4c2.54-0.26,3.96-0.14,4.82,0.22c0.39-10.3,4.35-10.42,1.07-14.17l-10.01,10.83L215.06,327.4z"/>
<path class="st73" d="M210.92,324.27l10.01-10.83l-1.89-0.87c-1.76-0.4-6.26,0.17-8.99,0.57c-0.52,0.08-0.98,0.15-1.34,0.2
	c-1.16,4.11-1.24,6.45-4.85,7.39C207.84,321.04,207.61,321.41,210.92,324.27z"/>
<path class="st117" d="M203.87,320.73c3.61-0.94,3.69-3.28,4.85-7.39l-0.49-2c-0.02-0.25,0.37-3.03-0.31-3.95
	c-0.81-1.09-5.21-0.03-3.82,3.9c1.49,4.2-4.42,0.52-3.77,6.52C200.64,320.7,202.26,320.68,203.87,320.73z"/>
<path class="st118" d="M208.23,311.34l0.49,2c0.36-0.06,0.82-0.13,1.34-0.2l-0.08-0.72c-1.03-7.2,4.67-10.31,2.6-16.52v2.56
	c-0.51,3.22-3.73,6.85-4.67,8.93C208.6,308.32,208.21,311.09,208.23,311.34z"/>
<path class="st119" d="M207.91,307.39c0.94-2.07,4.16-5.71,4.67-8.93v-2.56c-1.46-1.47-2.54-1.82-4.58-1.18
	c-6.03,1.9-1.65,11.11-8.89,10.83c-2.84-0.11-6.27-1.44-7.9-4.16l-2.29-5.8c-1.36-5.18,0.89-8.89,0.19-11.61
	c-0.22-0.88-0.75-1.65-1.81-2.34c-2.15-1.41-0.8-0.23-3.55-2.51c-0.24-2.4-2.69-8.38-3.32-8.93c-2.75-2.37-4.5,1.43-5.16,3.85
	c-4.53-3.91-4.59-7.67-6.74-9.65c-4.11-3.77-3.99,3.48-11.36,1.74c-3.57-0.84-3.73-1.87-6.88-2.23c-0.27-0.03-0.57-0.06-0.89-0.08
	c4.31,3.85,2.44,1.72,5.34,7.08c5.61,10.35,14.14,19.41,14.55,20.16c2.68,4.85-1.1,10.62,7.59,16.11
	c0.22,0.14,12.19,7.13,13.07,7.29c3.27,0.59,2.88-4.15,6.87-1.64c1.43,0.9,2.75,3.38,3.5,4.98c-0.65-6,5.26-2.32,3.77-6.52
	C202.7,307.36,207.11,306.31,207.91,307.39z"/>
<path class="st120" d="M236.79,287.49c1.31,1.43,0.9-0.05,1.44,3.8c0.46,3.31,2.04,1.27,2.87,3.5c0.33,0.9,1.39,0.76,1.74,0.03
	c0.44-0.92,1.85-3.05,0.11-3.23c-5.1-0.52,0.81-1.51-7.1-9.29c0.85-6.07-2.1-4.08-6.6-3.13c-1.62,3.3,1,2.86,2.11,2.82
	C235.49,282.32,235.33,285.89,236.79,287.49z"/>
<path class="st120" d="M239.62,297.39c-6.54-1.01-7.48-6.08-14.73-6.98c-2.44-0.3-9.01,1.35-7.77,5.03
	c2.26,0.91,1.45-0.18,3.14,1.39c1.39,1.28,0.9,1.47,2.69,0.82c0.72-1.85-3.47-4.95,0.13-4.72c2.32,3.67,1.42,1.31,6.74,3.75
	c1.36,0.62,4.7,0.92,4.58,3.03c-0.83,0.76-0.91,0.81-1.03,1.64c1.69,2.41,3-1.25,4.85,0.36
	C241.88,304.88,244.54,295.98,239.62,297.39z"/>
<path class="st121" d="M235.71,305.42c-0.15-0.22-0.7-2.06-3.16-1.71c-2.86,0.41-0.41,2.22,0.11,3.17c0.92,1.7,3.28,2,4.5,0.84
	C237.3,305.95,236.27,306.26,235.71,305.42z"/>
<path class="st117" d="M241.53,303.94c-0.74,0.63-0.47,2.98,1.21,3.48c0.01,0,1.97,0.09,2.49,0.36c0.42,0.21,1.91,2.04,3.74,0.79
	c0.96-0.66,1.23-1.97,3.04-1.3c1.24,0.45,0.15,0.45,1.97,0.41c1,0,1.83-2.86,0.34-4.07c-1.21-0.98-1.28-0.43-2.71-2.46
	c-2.75-3.92-3.78-0.02-5.08-0.36c-0.01,0-2.84-1.72-3.09,1.46C243.29,304.07,242.69,302.95,241.53,303.94z"/>
<path class="st120" d="M258.05,303.33c-3.81,0.7-1.59,7.43,2.53,5.14c2.4-1.33,2.68,2.72,3.74-1.76c1.13-4.82-2.32-4.6-2.17-0.51
	C261.35,304.46,260.68,302.85,258.05,303.33z"/>
<path class="st121" d="M266.7,304.47c-1.74,0.28-1.24,3.01-0.9,4.21c3.83,3.35,4.76,6.51,4.36,12.93c-0.19,3.1,4.24,2,2.74-3.8
	c-0.67-2.58-0.93,0.04-0.49-2.72c0.28-1.77-0.86-1.66-2.02-1.9c3.41,0,1.17-4.16,0.72-4.51c-0.28-0.22-1.76-0.8-2.47,0.82
	C267.99,307.79,268.85,304.12,266.7,304.47z"/>
<path class="st122" d="M206.87,271.75c1.3-2.28-0.68-3.36,6.21-3.29c2.38,0.02,6.33,0.87,7.47,3.29c0.01,0.02,2.45,11.72,3.6,13.26
	c0.54,0.71,4.84,3.23,4.5-1.44c-0.48-6.54-5.76-14.87-0.72-20.55c2.19-2.47,12.22-8.02,9.62-16.85l-1.26-2.98
	c1.05,1.43,3.04,4.41,4.95,0.1c0.63-1.42,0.69-5.14,2.7-6.16l8.1-1.34c-6.22-7.94,2.73-8.22,7.2-10.48
	c-3.27-1.78-3.32-13.91-8.18-7.5c-0.66,0.86-0.76,1.87-0.95,2.85c-0.36,1.89-1.03,3.66-6.61,4.03c-6.02,0.4-2.63,0.12-7.2,2.88
	c-1.68,1.02-3.77,0.15-5.76,2.36c-1.09,1.21-0.21,1.61-2.34,2.77c-1.68,0.92-6.94,4.98-8.28,1.54c-0.87-2.23,2.08-2.93,2.79-4.01
	c0.4-0.61,1.16-4.05,0.99-4.93c-0.58-2.91-7.54-10.28-12.59-10.48c-2.9-0.11-7.41,1.55-12.86-0.1c-3.72-1.13-3.66-2.1-10.25-2.47
	l-56.13,0.1l1.08,3.7c-2.94,5.03-5.36-6.93-10.7-8.02l-0.43-0.02c-4.1-0.21-1.16,2.01,0.34,3.41c0.26,0.24,4.76,6.51,4.95,6.88
	c0.85,1.72,2.13,6.07,1.71,8.02c-0.35,1.63-2.14,5.78-1.53,10.17c0.25,1.8,1.71,6.07,2.88,7.5c0.98,1.19,2.25,1.38,2.34,5.03
	c0.04,1.59-0.13,2.66,0.9,4.73c2.6,5.22,5.06,3.58,7.2,4.93l2.22,2.16c4.88,0.73,6.35,0.19,7.49,3.05c3.15,0.36,3.31,1.39,6.88,2.23
	c7.38,1.74,7.26-5.52,11.36-1.74c2.15,1.98,2.21,5.74,6.74,9.65c0.67-2.42,2.41-6.22,5.16-3.85c0.64,0.55,3.08,6.52,3.32,8.93
	c2.75,2.28,1.4,1.11,3.55,2.51c1.05,0.69,1.58,1.46,1.81,2.34c1.42-3.48-0.51-2.64-0.41-5.86c0.1-3.21,1.91-4.09,4.95-6.17
	C198.69,268.52,205.03,274.98,206.87,271.75z"/>
<path class="st119" d="M154.97,277.89c-1.21-1.68-0.15-2.24-3.1-6.41c-1.97-2.8-2.99-4.21-2.47-7.64c0.32,0.02,0.61,0.05,0.89,0.08
	c-1.14-2.86-2.61-2.33-7.49-3.05c3,7.11,3.42,7.38,7.41,13.13c1.92,2.76-0.08,3.01-0.72,2.82l-2.83-1.74
	c6.01,6.7,9.06,4.79,9.97,11.24c0.72,5.07,5.81,9.14,6.33,4.05c0.35-3.36-3.17-2.24-4.13-4.52
	C156.94,281.42,159.19,283.76,154.97,277.89z"/>
<path class="st123" d="M131.85,212.36l56.13-0.1c6.59,0.37,6.53,1.34,10.25,2.47c5.46,1.66,9.96-0.01,12.86,0.1
	c5.06,0.2,12.02,7.57,12.59,10.48c0.17,0.88-0.59,4.33-0.99,4.93c-0.71,1.08-3.66,1.77-2.79,4.01c1.34,3.43,6.6-0.62,8.28-1.54
	c2.13-1.17,1.25-1.57,2.34-2.77c1.99-2.21,4.08-1.35,5.76-2.36c4.57-2.76,1.18-2.48,7.2-2.88c5.57-0.37,6.24-2.14,6.61-4.03
	c-3.55-4.81,1.79-5.61,4.01-8.19c5.09-5.93,3.97-4.11,14.39-3.49c6.46,0.38,5.61-1.77,11.33-3.91c3.95-1.48,4.95-6.72-3.78-10.38
	c-5.62-2.35-10.03-14-12.23-14.39c-2.32-0.41-7.29,9.95-11.87,5.75c-3-2.75,3.41-7.85-2.88-10.89c-4.91-2.38-3.83-4.71-10.7-4.52
	c-4.97,0.14-5.58,0.3-5.22,4.01c2.46,2.21,4.96,6.01-0.09,6.27l-0.9,1.64l1.62,1.13c7.62,5.56-1.5,10.86-1.53,10.89
	c-4.3,4.32,1.78,4.88-2.52,11.2c-1.64,0.05-3.57,0.43-5.13-1.13c-5.19-5.2,4.36-10.33-8.28-11c-7.66-0.4-12.08-11.03-16.1-1.85
	c-1.26-3.43-0.5-1.39-0.9-4.42c-0.62-4.67-3.08-3.98-3.87-4.73c-2.14-2.02-0.2-7.5,2.97-10.48c1.32-1.24,14.61-5.39,10.43-8.12
	c5.89,0.23,3.78-6.06-0.36-8.32c6.07-3.2-0.7-7.98-3.51-3.29c-2.15-3.87-6.14-2.26-7.38-0.31c-1.98,3.13-6.54,0.02-3.42,5.55
	c0.76,1.34,0.01,4.94-3.42,1.13c-5.05-5.61-8.47-1.2-17.54-2.77c-10.37-1.8-6.94,1.92-4.5,7.5c-5.78-9.44-11.85-6.17-18.26-6.99
	c-3.66-0.47-0.69-2.54-4.86-3.6c-5.68-1.44-10.54-4.26-16.37-1.34c-4.89,2.45-6.25-1.57-7.29-2.57c-6.71-6.46-8.16,10.88-30.94,0.82
	l-0.09,28.36c8.5,0,2.8,3.94,7.83,3.49l2.34-2.98c3.13,0,2.98,0.69,4.5,2.88c5.9,8.51,10.28,7.66,10.7,11.3
	c0.73,6.23-1.48,2.59,3.15,6.17c3.18,2.46,1.07,5.74,3.6,6.78C132.08,209.62,123.52,207.26,131.85,212.36z"/>
<path class="st122" d="M90.92,178.24l0.09-28.36c-2.09-0.33-13.43-2.28-14.82-2.41c-4.22-0.37-3.72,0.48-9.57-0.98
	c-7.31-1.82-11.61-2.17-19.4,0.36l-6.02,2.1c-1.55,0.77-1.12,1.31-3.73,1.69c-1.12,0.16-6.32,0.29-5.57,4.05
	c0.79,3.96,13.7,0.29,12.93,4.93c-0.42,2.56-10.21-3.47-14.24,0.15c-1.51,1.36-1,7.89,7.81,5.59c3.1-0.81,3.19-1.5,5.43,0.36
	c0.33,5.71-9.68,1.7-10.87,7.44c-0.42,2.01,1.47,3.11,1.75,3.39c2.8,2.74-0.19,2.89,5.3,3.49c4.42,0.48-0.6,4.25,8.67,3.39
	c2.33-0.22,4.67-1.18,6.74-2.41c-2.44,4.49-2.8,5.04-7.46,7.95c-6.5,4.08-4.7,1.94-8.35,3.64l-2.74,1.74
	c-2.22,1.22-13.23,5.04-10.96,7.34c1.33,1.34,5.5-3,10.24-4.62c4.35-1.48,4.2-1.49,8.49-2.46c5.29-1.2,11.78-6.19,15.31-10.88
	c2.12-2.81,4.04-6.99,7.46-7.64c-0.13,3.06-1.58,3.49-1.93,4.36l-0.18,2.1c6.43,0.37,4.82-5.8,9.34-6.67
	C80.95,174.69,78.85,182.53,90.92,178.24z"/>
<path class="st123" d="M254.22,214.74c-2.5,1.63-1.95,0.99-3.18,3.07c4.87-6.41,4.91,5.72,8.18,7.5c1.39-0.77,3.2-1.43,3.67-3.33
	c0.65-2.65-1.31-4.54-3.14-5.54c2.84-0.99,3.36,1.18,5.16-0.41c0.39-3.97-2.78-4.15-5.34-3.75
	C257.05,212.67,256.36,213.34,254.22,214.74z"/>
<path class="st123" d="M268.72,220.02c-2.83,0.38-3.09,0.16-4.98,2c-1.55,3.55-5.78,3.2-4.67,6.93c0.71,2.39,3.38,2.38,4.72,1.08
	c1.63-1.59-0.02-1.62,5.93-4.62c2.68-1.35,4.92-2.21,4.85-5.23c-0.07-3.25-2.92-2.15-3.14-2
	C270.48,218.8,271.23,219.69,268.72,220.02z"/>
<path class="st123" d="M274.74,216.89c0.74,2.35,3.21,0.29,6.51,2.05c3.39,1.81,3.81-1.39,5.88,0.77c0.94,0.97,2.89,3.16,3.73-0.82
	c0.59-2.81,0.27-5.48-1.89-7.44c-2.44-2.22-6.81,3.07-6.15-3.9c0.14-1.53,0.36-1.5,1.39-2.41l-4.13,1.03c-0.37,2.51-0.37,1.1-1.89,4
	C277.39,211.73,273.45,212.79,274.74,216.89z"/>
<path class="st123" d="M140.1,140.19c1.46-1.34,2.49-0.17,4.72-1.03c0.78-0.3,2.5-1.84-0.31-3.18c-3.88-1.32-3.42,0.36-5.43,0.1
	c-1.85-0.23-0.76-2.45-4.58-2.72c-2.43-0.17-1.04,1.03-5.21,1.03c-1.58,0-0.98-0.14-2.47,0.62c-0.46,2.91,0.28,3.29-1.39,5.23
	c-2.75,3.2,1.8,3.69,2.56,4.1c0.99,0.54,1.17,1.52,4.18,1.8C137.86,146.67,136.75,143.27,140.1,140.19z"/>
<path class="st123" d="M143.42,133.11c1.02,0.53,3.17,0.21,3.68-0.31c0,0,1.93-3.53,1.75-4.41l-0.94-1.69
	c-5.82-1.66-8.81,0.6-13.47,1.39c-1.27,0.21-4.44,0.13-4.36,2.36c0.1,2.54,9.33,0.78,9.97,0.51c1.05-0.44,2.1-1.28,3.14-0.36
	C143.4,132.65,142.99,131.62,143.42,133.11z"/>
<path class="st123" d="M149.62,128.6c-0.65,1.84-3.25,5.92-0.36,6.05c1.09,0.05,0.83-0.58,1.89,0.51c1.95,2.03,9.83,2.84,7.32-2.72
	c-1.11-2.46-3.36-1.32-4.76-2.67C153.69,129.76,151.38,125.99,149.62,128.6z"/>
<path class="st123" d="M156.04,140.4c-1.89-3.51-5.37,1.06-6.56,2.46c1.78-3.93-1.18-4.51-3.46-2.46c-1.56,1.41-5.7,0.44-5.48,2.87
	c0.31,3.37,7.4-1.63,7.14,1.9c-0.76,0.12-5.32-0.52-4.67,1.49c0.75,2.34,9.95-0.98,14.22,0.33c2.03,4.63-5.26,1.24-15.89,2.59
	c4.51,1.19,5.43,1.7,9.7,3.28c4.98,0.72,12.56,2.35,16.44-2.15l0.9-1.13c0.45,2.55,1.97,3.2,5.61,2.82
	c1.43-0.15,2.02-0.79,2.02-2.41c3.95-0.13,2.88-2.61,0.45-2.57c-3.92,0.08-5.84,1.23-5.84-2c0.63-0.72,0.73-0.66,1.75-0.92
	c0.39-0.71,0.31-0.94,0.09-1.69c-3.77-1.58-1.47-4.17-6.29-3.33c-3.62,0.63,1.45,2.33,0.18,5.03c-3.95,0.44-1.15-2.05-6.15-2.51
	C156.89,141.68,157.27,142.67,156.04,140.4z"/>
<path class="st123" d="M149.67,125.54c0,0.75,3,1.36,6.69,1.36c3.7,0,6.69-0.61,6.69-1.36c0-0.75-3-1.36-6.69-1.36
	C152.66,124.18,149.67,124.79,149.67,125.54z"/>
<path class="st123" d="M159.28,129.08c-0.05,2.08,0.56,1.53,0.11,2.99l-0.67,0.33c2.41,5.32-1.64,1.72,6.34,2.25
	c2.31,0.15,7.45,0.71,6.38-3.35c-0.88-3.36-5.98,1.66-6.78-1.69C164.09,127.28,161.46,125.51,159.28,129.08z"/>
<path class="st123" d="M167.36,126.44c0,0.79,1.79,1.44,4,1.44c2.21,0,4-0.64,4-1.44c0-0.79-1.79-1.44-4-1.44
	C169.15,125,167.36,125.65,167.36,126.44z"/>
<path class="st123" d="M174.43,128.85c-0.78,0-1.42,1.39-1.42,3.1c0,1.71,0.63,3.1,1.42,3.1c0.78,0,1.41-1.39,1.41-3.1
	C175.85,130.24,175.22,128.85,174.43,128.85z"/>
<path class="st123" d="M183.94,136.93c-2.42,0.77-8.17-0.27-7.77,3.48c0.22,2.01,3.27,1.88,4.19,1.92c4.44-0.11,1.95,2.32,6.34,1.92
	c6.35-0.59,2.7-7.22,1.16-8.06C186.48,135.44,184.38,136.79,183.94,136.93z"/>
<path class="st123" d="M191.48,152.69c-0.66-8.31-11.03-2.19-7.86,1.3c1.09,1.2,4.42,0.57,6.27,2.76c0.31,0.37,1.55,3.29,3.56,2.43
	c0.14-0.44,0.09-0.29,0-1.05C192.18,154.99,191.75,156.03,191.48,152.69z"/>
<path class="st123" d="M191.24,146.81c-0.01,0.57,0.26,1.3,0.43,1.84c0.9,3.09,4.36,1.76,5.89,1.41c1.18-0.27,3.97-0.49,2.98-3.45
	c-0.38-1.13-0.74-1.18-2.04-2.12c-1.57-1.14-4.37-3.58-5.73-0.13C191.96,146.39,191.27,144.98,191.24,146.81z"/>
<path class="st123" d="M196.37,139.83c2.28,0.73,4.99,2.07,6.6-0.41c0.74-1.14,0.46-2.4-0.67-2.98c-2.15-1.09-4.21-0.64-5.61-3.49
	l-0.45-0.97c-1.82-0.05-3.21-0.19-4.9,0.56c-1.31,3.5,3.76,0.86,4.58,2.82c0.32,0.76,0.35,1.95,0,2.67c-1.2,0.36-1.95,0.56-1.8,2.36
	c0.14,1.62,2.11,2.28,2.6,2.15C198.31,142.16,196.88,140.46,196.37,139.83z"/>
<path class="st123" d="M183.15,133.62c3.53,0,6.4-1.1,6.4-2.46c0-1.36-2.87-2.46-6.4-2.46c-3.53,0-6.4,1.1-6.4,2.46
	C176.75,132.52,179.61,133.62,183.15,133.62z"/>
<path class="st123" d="M181.9,126.55c1.05,0.06,2.86,0.29,3.27-1.1c-0.3-2.58-1.86-2.3-2.91-3.1c-2.1-1.58-4.56-0.45-5.33-1.15
	c-1.9-1.73-7.58-1.74-6.63,0.84c0.12,0.32,2.27,1.64,3.2,1.71c1.87,0.15,2.17,0.16,3.74,1.2
	C178.04,125.49,177.41,126.29,181.9,126.55z"/>
<path class="st123" d="M185.3,120.44c1.57,0,2.85-0.6,2.85-1.33c0-0.74-1.28-1.33-2.85-1.33c-1.58,0-2.85,0.6-2.85,1.33
	C182.45,119.84,183.73,120.44,185.3,120.44z"/>
<path class="st123" d="M189.7,121.36c-2.34,0-4.24,0.96-4.24,2.15c0,1.19,1.9,2.15,4.24,2.15c2.34,0,4.24-0.96,4.24-2.15
	C193.95,122.33,192.05,121.36,189.7,121.36z"/>
<path class="st123" d="M195.12,127.26c-2.31,0-4.18,0.67-4.18,1.49c0,0.82,1.87,1.49,4.18,1.49c2.31,0,4.18-0.67,4.18-1.49
	C199.29,127.93,197.42,127.26,195.12,127.26z"/>
<path class="st123" d="M235.02,148.57C234.99,148.54,235.06,148.56,235.02,148.57L235.02,148.57z M239.53,150.3
	c0.64,0.34,4.73,3,5.07,4.98c0.87,5.01-5.72,1.71-4.94,6.72c0.41,2.62,3.38,3.2,6.47,4.98c4.21,2.42,2.14,1.37,3.19,2.51
	c0.02,0.02,10.5,8.3,10.82,3.9c0.29-4.02-8.66-2.51-7.63-5.69c0.99-3.09,5.55,2.05,6.83,2.62c4.21,1.86,4.68-4.14,1.39-5.18
	c-0.24-0.08-9.12-1.93-6.51-5.18c2.51-3.12,9.04,2.45,10.06,2.56c1.32,0.15,1.61-0.85,2.29-1.28c0.01-0.01,3.28-0.92,1.8-3.28
	c-0.74-1.19-4.94-0.41-4.94-0.41c-0.81-0.06-10.55-2.86-12.35-6.05c-0.94-1.66-0.29-2.81-3.59-3.18c-3.01-0.33-2.11-0.34-5.34-1.95
	c-8.4-4.19-4.37-3.59-6.38-5.34c-0.51-0.44-2.73-1.12-2.87,0.56c-0.17,1.97-0.36,2.33-2.2,2.57c-6.12,0.79-1.07-5.93-7.23-6.21
	c-5.84-0.26-4.48,4.96-4.63,5.54c-0.91,3.6-6.95,0.59-5.43-4.16c0.3-0.94,1.02-1.3,1.84-1.95c-2.38-0.08-5.78-0.39-7.41,3.33
	c-1.46,3.33-0.66,8.21,4.99,7.95c7.43-0.33,13.23-1.91,21.42-0.1c0.56,0.05,0.74,0.03,0.78,0.02
	C235.08,148.65,235.67,149,239.53,150.3z"/>
<path class="st124" d="M283.87,137.24c1.48,8.45,3.17,4.99,7.83,7.3c1.98,0.98,4.86,5.03,2.61,8.73c-4.42,0.84-5.18,0.64-5.94,4.11
	c9.79,14.05,2.21,4.6,7.74,14.9c4.07,7.59,5.34,2.44,9.26,5.65c2.31,1.89,4.6,5.1,8.81-0.1c6.38-7.89,1.24-12.99,11.33-15.41
	c11.2-1.22,4.27-7.67,13.94-7.4c14.54,0.41,10.8-3.5,21.14-7.6c-0.82-10.29-9.51-2.34-7.56-7.91c4.63-1.91,6.8,0.31,7.56-5.14
	c0.57-4.08-4.12-7.98,2.07-11.51c3.22-1.83,2.32-0.15,3.87-3.6c1.7-3.78,11.27-3.12,13.31-4.01l2.79-2.26
	c-3.08-0.14-13.72-0.43-16.01,0.1c-2.14,0.5-4.78,2.97-7.29,0.51l0.09-1.54c3.67-2.79,1.12-4.09,0.36-4.21l-26.81,0.31
	c-4.2-0.27-6.1-1.63-10.16,0.92c-5.18,3.26-5.18-0.68-10.97,4.01c-3.89,3.14-4.46-0.5-14.93-0.62c-11.34-0.12-9.76,0.19-19.7,1.75
	c-4.18,0.65-4.74-0.66-10.34,3.39c-9.91,7.16-6.45,3.54-17.54,4.32c-6.88,0.48-4.71,4.09-4.05,4.52c1.88,1.21,7.63,0.52,9.8,2.88
	c4.96,5.38,15.51,0.4,21.41,2.88C276.94,132.4,283.2,136.77,283.87,137.24z"/>
<path class="st123" d="M238.45,164.7c0-1.44-1.48-2.61-3.3-2.61c-1.82,0-3.3,1.17-3.3,2.61c0,1.44,1.48,2.61,3.3,2.61
	C236.98,167.31,238.45,166.14,238.45,164.7z"/>
<path class="st123" d="M236.41,157.43c1.28,0,2.31-0.62,2.31-1.39c0-0.77-1.04-1.39-2.31-1.39c-1.28,0-2.31,0.62-2.31,1.39
	C234.1,156.81,235.13,157.43,236.41,157.43z"/>
<path class="st123" d="M233.78,168.2c-1.66,0-3.01,0.4-3.01,0.9c0,0.5,1.35,0.9,3.01,0.9c1.66,0,3.01-0.4,3.01-0.9
	C236.79,168.6,235.45,168.2,233.78,168.2z"/>
<path class="st123" d="M230.86,173.15c0-1.01-0.84-1.82-1.89-1.82c-1.04,0-1.89,0.82-1.89,1.82s0.84,1.82,1.89,1.82
	C230.02,174.98,230.86,174.16,230.86,173.15z"/>
<path class="st123" d="M224.26,172.36c1.55-3.63,1.38-1.58,3.68-3.18c1.43-0.99,1.88-5.31-3.5-3.18c-0.05,1.34,0.07,1.38-0.72,2.1
	c0,3.7-2.16,1.36-3.82,2.46c-0.8,0.54-0.85,2.37-0.85,3.28C221.06,175.41,223.43,174.3,224.26,172.36z"/>
<path class="st123" d="M215.55,169.49c2.67,0.52,3.36-1.16,5.21-1.74c0.02-0.01,4.03,0.01,2.56-2.41c-1.2-1.97-4.56-0.6-5.57-3.03
	c-0.94-2.26-2.3-2.26-3.73-0.72C213.92,164.18,210.43,168.49,215.55,169.49z"/>
<path class="st123" d="M218.6,157.27c0.29,2.3,0.51,3.06,3.23,2.82c4.08-0.36,4.27-4.42,2.83-6.62c-0.51-0.78-2.91-4-3.64-4.21
	l-3.77-0.05c0.83,6.04-4.37,2.68-4.4,7.95c-0.01,2.54,3.42,2.05,4.45,1.28L218.6,157.27z"/>
<path class="st123" d="M218.78,134.6c2.55-0.14,8.47,2.77,8.13-1.54c-0.67-8.46-16.19,4.76-23.44-2.46
	c-1.94-1.93-2.87-1.28-4.49,0.21C204.62,132.13,195.2,135.89,218.78,134.6z"/>
<path class="st123" d="M225.56,125.31c1.61,0.79,5.31,3.54,7.01-1.18c0.51,0,5.33,0.4,4.76-1.33c-0.7-2.12-7.94,1.69-7.81-1.28
	c0.04-0.92,3.42-3.36,6.78-2c4.08,1.65,3.67-0.15,7.14-0.51c3.56-0.37,0.97-1.12,4.04-1.28c1.02-0.06,6.61-0.76,6.87-1.69
	c0.63-2.24-5.05-0.04-4.63-2.41c0.37-2.06,8.88-0.07,10.69,0.67c3.65,1.49,9.83-0.02,7.59-2.98c-0.45-0.59-0.9-0.48-1.53-0.51
	c-11.52,0.45-8.09-1.35-17.78-1.18c-8.17,0.14-13.93-0.84-20.39,1.64c-7.29,2.79-21.52-0.51-20.43,3.75
	c0.89,3.48,10.28-2.33,13.97-0.26c1.56,0.88,2.47,1.99,5.88,1.33c4.17-0.8,0.82-1.55,9.93-1.23c-3.71,2.76-4.53,2.21-9.93,2.72
	c-0.04,0-13.5,0.34-10.64,2.92c0.34,0.31,3.44,1.04,4.81,1.08h4c-4.82,5.51-2.54,1.81-6.51,0.92c-0.52-0.12-0.85-0.16-1.11-0.15
	c-1.11,0.06-1.36,1.28-0.17,1.63c3.76,1.1,0.75,3.91-2.45,2.93c0,0-3.4-1.61-2.96,0.92c0.49,2.79,6.9,0.21,10.87,0.97
	c0.59,0.11,1.35,0.24,1.35-0.82C222.85,126.23,224.55,124.81,225.56,125.31z"/>
<path class="st123" d="M203.33,124.54c5.54,0.07,5.17-1.66,8.53-2.21c2.65-0.43,3.85-0.29,2.78-2.72c-5.01-0.43-2.15-1.05-6.69-1.74
	c-2.86-0.44-1.95,0.29-3.46-1.74c-1.72-2.33-4.63-2.31-7.19-2c-6.58,0.8-4.57,6.03-3.55,6.62c0.74,0.42,2.18-0.21,3.73,1.28
	C199.32,123.78,198.92,124.49,203.33,124.54z"/>
<path class="st125" d="M356.79,159.28c-9.59,1.79,0.61,6.43,1.35,7.08c0,0.01-1.27,5.54,2.47,2.92c0.7-0.49,1.41-0.29,2.29-0.21
	c6.31,1.9,7.95-0.85,13.25-2.41c5.53-1.63,3.96-3.58,0.31-6.98c-5.5-5.14-11.95,2.37-13.92,1.74
	C360.56,160.8,361.25,158.44,356.79,159.28z"/>
<path class="st126" d="M463.72,301.98c-4.49,0.32-14.17-13.73-19.89-11.1c-0.24,0.11-0.47,0.21-0.68,0.29l2.08,7.3l0.18,7.3
	c-0.25,5.19-1.26,4.59-2.61,6.37c-0.55,0.73-1.62,3.14-2.99,5.39c0.75,1.54,1.61,2.57,2.37,3.55c1.46,1.85,2.59,3.49,2.05,8.02
	c-1.05,0.9-4.15,2.07-0.81,6.27c0.99,1.25,1.87,2.13,2.67,2.72c4.25,3.15,6.05-1.99,8.84-4.16c3.51-2.71,1.26,1.47,6.52-6
	c-0.48-0.41-0.91-0.59-0.94-0.61c-0.69-0.86-2.07-6.26-0.94-9.08C463.75,307.83,463.73,319.51,463.72,301.98z"/>
<path class="st127" d="M406.76,231.14l5.23,7.55c3.38-1.96,5.61-1.06,5.24-7.29c0.41-0.78,0.92-1.52,2.03-1.69
	c2.57-0.39,3.97,3.64,6.42,0.21c1.25-1.76,0.94-0.55,3.54-2.85c-1.02,0.22-1.96,0.72-3.09,0.24c-1.02-0.43-2.08-3.54-0.84-4.96
	c-1.27-2.08-1.69-0.69-2.31-2.79c0.74-1.7,3.09-1.72,3.5-3.85c0.18-0.92-0.16-1.36,0.54-2.16c-0.42-0.1-1.08-0.33-1.83-0.62
	c-1.94-0.75-4.45-1.89-4.78-2.15c-1.1-0.9-2.5-4.73-5.21-4.31c-3.33,0.52-2.46,7.51-7.54,4c-0.51-0.35-2.61-1.86-3.28-0.05
	c-0.84,2.28,1.71,1.27,1.89,3.9l-0.31,0.41c-2.22,0.12-3.17-1.89-5.34-2c-2.74-0.15-2.85,2.45-1.17,3.49
	c0.34,0.21,4.34,1.06,5.88,3.28c0.78,1.12,1.85,3.99,1.44,5.49c-0.07,0.24-1.7,2.38-1.29,4.32L406.76,231.14z"/>
<path class="st128" d="M411.99,238.7c1.14-1.38-2.85-4.17-4.41-6.37c-0.88-1.23-1.71-2.18-2.08-3.01c-4.56,1.23-4.07,1.43-7.06-0.47
	c-0.82-0.52-12.49-0.41-8.85,3.49c1.54,1.64,5.02,0.4,4.81,5.03c-0.13,2.89-2.19,8.68-0.67,11.48c0.58,1.07,1.69,1.7,3.64,1.56
	c5.7-0.42,4.24,3.25,10.78-3.03C412.49,243.18,408.84,242.51,411.99,238.7z"/>
</svg>
