<svg id="Слой_1" data-name="Слой 1" xmlns="http://www.w3.org/2000/svg" viewBox="0 0 474.96 486.32"><defs><style>.cls-1{fill:#6e6ee3;}.cls-1,.cls-11,.cls-12,.cls-13,.cls-14,.cls-15,.cls-16,.cls-17,.cls-2,.cls-3,.cls-4,.cls-6,.cls-7,.cls-8,.cls-9{fill-rule:evenodd;}.cls-2{fill:#ffa68f;}.cls-3{fill:#263238;}.cls-4{fill:#ff8b7b;}.cls-10,.cls-5{fill:none;stroke-linejoin:round;}.cls-5{stroke:#ffa68f;}.cls-6{fill:#b3b2ef;}.cls-7{fill:#4949e7;}.cls-8{fill:#ff5652;}.cls-9{fill:#ffdecc;}.cls-10{stroke:#ffdecc;}.cls-11{fill:#407bff;}.cls-12{fill:#ffc3bd;}.cls-13{fill:#ffbe9d;}.cls-14,.cls-18{fill:#fff;}.cls-15{fill:#ffc8af;}.cls-16{fill:#ed847e;}.cls-17{fill:#1e1e83;}</style></defs><title>privet</title><path class="cls-1" d="M457.8,12.45A8,8,0,0,0,452.29,15c-6,5.7.25,18,3.5,21.21a4,4,0,0,0,2.72,1.46c5.07,0,5.84-18,5.49-20.4A6.6,6.6,0,0,0,457.8,12.45Z" transform="translate(-60.68 -5.34)"/><path class="cls-2" d="M450.71,446.09l-13.56.12,3.7,31.38,13.56-.12Z" transform="translate(-60.68 -5.34)"/><path class="cls-3" d="M455.63,475.89l-14.81.13a5.84,5.84,0,0,0-3.18,1.08c-8.75,5.73-14.15,6-24.58,8.46-2.28.53-.34,6.1,5.17,6.1h.07c9.21-.08,12.71-.57,20.56-.64H441c6.16,0,12.87.2,17.66.24h0a1.84,1.84,0,0,0,1.74-2.43l-3.58-12A1.27,1.27,0,0,0,455.63,475.89Z" transform="translate(-60.68 -5.34)"/><path class="cls-4" d="M450.72,446.1l-13.56.12,1.9,16.17,13.57-.11Z" transform="translate(-60.68 -5.34)"/><path class="cls-1" d="M432.7,475.65a18.77,18.77,0,0,1,5.77,1.82,19.3,19.3,0,0,1-3.23.32,4.7,4.7,0,0,1-2.83-.64,1.27,1.27,0,0,1-.48-1c0-.2.07-.28.15-.32A1.19,1.19,0,0,1,432.7,475.65Zm0-.63a1.88,1.88,0,0,0-.95.21,1,1,0,0,0-.46.86,1.9,1.9,0,0,0,.72,1.55,5.28,5.28,0,0,0,3.22.79,21.88,21.88,0,0,0,4.35-.52.32.32,0,0,0,.07-.6C439.09,477,434.89,475,432.69,475Z" transform="translate(-60.68 -5.34)"/><path class="cls-1" d="M435.8,472.45c1.94,0,2.91,3.17,3.25,4.56-1.79-1-4.17-3.31-4-4.22,0-.07,0-.26.57-.32Zm0-.64a1.37,1.37,0,0,0-.28,0c-.85.09-1.09.52-1.14.86-.23,1.53,3.25,4.46,5,5.2a.31.31,0,0,0,.13,0,.33.33,0,0,0,.32-.38C439.78,477.3,438.81,471.81,435.8,471.81Z" transform="translate(-60.68 -5.34)"/><path class="cls-2" d="M394,116.44c.3.34.38.47.4.59s0,0,0,0A1.52,1.52,0,0,1,394,116.44ZM382.62,75.33c-1.46,4.4-2.59,8.72-3.61,13.18a138,138,0,0,0-2.41,13.61c-.27,2.33-.47,4.7-.57,7.15a50,50,0,0,0,.23,7.75,32.1,32.1,0,0,0,.8,4.41,20.6,20.6,0,0,0,2.18,5.33,15,15,0,0,0,2.52,3.13,13.41,13.41,0,0,0,9.13,3.66h.28a16.91,16.91,0,0,0,1.94-.13l1.13-.18a67.35,67.35,0,0,0,14.71-4c2.31-.93,4.58-1.92,6.78-3s4.33-2.27,6.41-3.51A106.77,106.77,0,0,0,434,114.54c1.86-1.48,3.69-3,5.48-4.62.89-.8,1.78-1.6,2.65-2.45l1.31-1.3,1.4-1.45L429.91,90.58l-.92.88-1.07,1-2.22,2q-2.25,2-4.62,3.88c-3.13,2.52-6.38,4.88-9.68,7.07a90.32,90.32,0,0,1-10.16,5.74,63.68,63.68,0,0,1-7.93,3.1,61.93,61.93,0,0,1-1.2-11.39c-.28-8.26.13-17,.5-25.57Z" transform="translate(-60.68 -5.34)"/><path class="cls-5" d="M394,116.44c.3.34.38.47.4.59s0,0,0,0a1.52,1.52,0,0,1-.39-.62ZM382.62,75.33c-1.46,4.4-2.59,8.72-3.61,13.18a138,138,0,0,0-2.41,13.61c-.27,2.33-.47,4.7-.57,7.15a50,50,0,0,0,.23,7.75,32.1,32.1,0,0,0,.8,4.41,20.6,20.6,0,0,0,2.18,5.33,15,15,0,0,0,2.52,3.13,13.41,13.41,0,0,0,9.13,3.66h.28a16.91,16.91,0,0,0,1.94-.13l1.13-.18a67.35,67.35,0,0,0,14.71-4c2.31-.93,4.58-1.92,6.78-3s4.33-2.27,6.41-3.51A106.77,106.77,0,0,0,434,114.54c1.86-1.48,3.69-3,5.48-4.62.89-.8,1.78-1.6,2.65-2.45l1.31-1.3,1.4-1.45L429.91,90.58l-.92.88-1.07,1-2.22,2q-2.25,2-4.62,3.88c-3.13,2.52-6.38,4.88-9.68,7.07a90.32,90.32,0,0,1-10.16,5.74,63.68,63.68,0,0,1-7.93,3.1,61.93,61.93,0,0,1-1.2-11.39c-.28-8.26.13-17,.5-25.57l-10-2Z" transform="translate(-60.68 -5.34)"/><path class="cls-6" d="M440,84.74c-4.11,0-8.95,1.61-14.17,5.06-14,9.28-18.75,13.47-18.75,13.47l9.54,30.61s18.28-5.79,28.79-17.17c7.14-7.72,7.62-12.47,7.45-17.36C452.53,90.1,447.5,84.74,440,84.74Z" transform="translate(-60.68 -5.34)"/><path class="cls-1" d="M434.92,105.47s-8.81,12.58-11.92,26a87.17,87.17,0,0,0,12.46-6.57Z" transform="translate(-60.68 -5.34)"/><path class="cls-2" d="M382.77,66.06s-2.48,5.52-1.07,15l10.41.78,5.1-11.53Z" transform="translate(-60.68 -5.34)"/><path class="cls-5" d="M382.77,66.06s-2.48,5.52-1.07,15l10.41.78,5.1-11.53-14.44-4.24Z" transform="translate(-60.68 -5.34)"/><path class="cls-2" d="M398.75,56.77l-12.56,1.49-3.42,7.8,14.44,4.24Z" transform="translate(-60.68 -5.34)"/><path class="cls-5" d="M398.75,56.77l-12.56,1.49-3.42,7.8,14.44,4.24,1.54-13.53Z" transform="translate(-60.68 -5.34)"/><path class="cls-1" d="M476.69,202.37l-41.68.89s-9.34,78.23-10.36,120c-1.07,43.49,7.46,131.22,7.46,131.22l24.48-.53s2.94-93.9,6.5-136.93C467,270.14,476.69,202.37,476.69,202.37Z" transform="translate(-60.68 -5.34)"/><path class="cls-7" d="M469.74,219.46c-1.8,0-3.67,1.76-5.57,5.95-10.94,24.13-8,78-1.79,101.12.23-3.37.47-6.54.72-9.47,2.54-30.92,7.63-70.89,10.8-94.55C472.58,220.59,471.18,219.46,469.74,219.46Z" transform="translate(-60.68 -5.34)"/><path class="cls-7" d="M459.25,446l-30.56.06,2.12,9.57,28.79-.58Z" transform="translate(-60.68 -5.34)"/><path class="cls-2" d="M511.2,446.09l-13.55.12,3.7,31.38,13.55-.12Z" transform="translate(-60.68 -5.34)"/><path class="cls-3" d="M516.12,475.89l-14.8.13a5.87,5.87,0,0,0-3.19,1.08c-8.75,5.73-14.14,6-24.58,8.46-2.28.53-.34,6.1,5.17,6.1h.07c9.21-.08,12.71-.57,20.56-.64h2.15c6.17,0,12.87.2,17.66.24h0a1.84,1.84,0,0,0,1.75-2.43l-3.58-12A1.28,1.28,0,0,0,516.12,475.89Z" transform="translate(-60.68 -5.34)"/><path class="cls-4" d="M511.21,446.1l-13.56.12,1.91,16.17,13.56-.11Z" transform="translate(-60.68 -5.34)"/><path class="cls-1" d="M493.19,475.65a18.9,18.9,0,0,1,5.78,1.82,19.51,19.51,0,0,1-3.24.32,4.7,4.7,0,0,1-2.83-.64,1.3,1.3,0,0,1-.48-1,.33.33,0,0,1,.15-.32A1.22,1.22,0,0,1,493.19,475.65Zm0-.63a1.84,1.84,0,0,0-.94.21,1,1,0,0,0-.46.86,1.88,1.88,0,0,0,.72,1.55,5.28,5.28,0,0,0,3.22.79,21.87,21.87,0,0,0,4.34-.52.32.32,0,0,0,.08-.6C499.59,477,495.39,475,493.18,475Z" transform="translate(-60.68 -5.34)"/><path class="cls-1" d="M496.29,472.45c1.94,0,2.91,3.17,3.25,4.56-1.79-1-4.17-3.31-4-4.22,0-.07,0-.26.57-.32Zm0-.64a1.42,1.42,0,0,0-.29,0c-.85.09-1.09.52-1.14.86-.22,1.53,3.26,4.46,5,5.2a.27.27,0,0,0,.12,0,.33.33,0,0,0,.32-.38C500.27,477.3,499.3,471.81,496.3,471.81Z" transform="translate(-60.68 -5.34)"/><path class="cls-1" d="M504.2,201.71l-45.29,1s6.76,84.16,11.69,125.69c5.13,43.21,22,126.08,22,126.08l24.49-.53s-6.72-94.09-9.32-137.19C504.94,269.81,504.2,201.71,504.2,201.71Z" transform="translate(-60.68 -5.34)"/><path class="cls-7" d="M519.74,446l-30.56.06,2.12,9.57,28.79-.58Z" transform="translate(-60.68 -5.34)"/><path class="cls-6" d="M474.16,81.05a198.45,198.45,0,0,0-20.07.8,137.34,137.34,0,0,0-20.77,4.21s-10,37.18,1.69,117.2c21.85-.47,58.56-1.32,69.19-1.55.27-11.14-7.95-65.77,1.67-118.44a142.82,142.82,0,0,0-20.95-2.08C481.7,81.11,478,81.05,474.16,81.05Z" transform="translate(-60.68 -5.34)"/><path class="cls-1" d="M490.35,111.38c.74,7.32,7.37,25.28,10.87,34.37-.09-7.94,0-16.35.46-25Z" transform="translate(-60.68 -5.34)"/><path class="cls-1" d="M463.49,106.18a2.57,2.57,0,0,0-2.33,1.44l-12.35,24.44a2.76,2.76,0,0,0,2.41,4,2.52,2.52,0,0,0,1.26-.34l8.08-4.43a2.53,2.53,0,0,1,1.25-.32,2.61,2.61,0,0,1,1.56.5l7.94,5.73a2.63,2.63,0,0,0,4-3.08L466,108A2.68,2.68,0,0,0,463.49,106.18Z" transform="translate(-60.68 -5.34)"/><path class="cls-2" d="M481.12,46.55,462.55,63.11c2.09,7.67,2.55,15.87-8.46,18.74,0,0-2.77,7.37,9.9,11.43,18.86-3.07,20.93-12.09,20.93-12.09C477.84,74.73,479.39,56.51,481.12,46.55Z" transform="translate(-60.68 -5.34)"/><path class="cls-4" d="M473.55,53.31l-11,9.79a30.44,30.44,0,0,1,1.07,5.46c4.21-.71,9.92-5.47,10.27-9.9A14.83,14.83,0,0,0,473.55,53.31Z" transform="translate(-60.68 -5.34)"/><path class="cls-2" d="M469.66,10.73a19.37,19.37,0,0,0-3.35.29c-14,2.44-20,21.54-19.74,33.94.22,10.32,8.61,18.25,17.93,18.25a17.06,17.06,0,0,0,9.43-2.91c8.09-5.3,9.57-13.07,13.23-26A18.38,18.38,0,0,0,469.66,10.73Z" transform="translate(-60.68 -5.34)"/><path class="cls-1" d="M487,20.34a8.15,8.15,0,0,0-3.46.78c-7.09,3.34-5.86,17-4.15,21.09.87,2.12,2,3,3.35,3,4.65,0,11.17-10.74,13.41-15.4C497.68,26.57,492.78,20.34,487,20.34Z" transform="translate(-60.68 -5.34)"/><path class="cls-1" d="M466.87,8.58c-6.22,0-10.94,1.65-8.78,5.29,2.92,4.91,23.77,7.55,25.51,12.05,0,0,7.76-.49,8.33-4.1,1-6.39-4.72-8.91-13.31-11.52A42.19,42.19,0,0,0,466.87,8.58Z" transform="translate(-60.68 -5.34)"/><path class="cls-1" d="M495.19,19.12a6.17,6.17,0,0,1-5.09,2.33,8,8,0,0,1-2-.23c.84,1.6,1.86,2.23,2.87,2.23C492.86,23.45,494.67,21.27,495.19,19.12Z" transform="translate(-60.68 -5.34)"/><path class="cls-1" d="M462.08,5.34c-4.91,0-9.4,4.34-8.8,9,.81,6.33,21.92,11.15,21.92,11.15s.38-11.89-7.93-18.34A8.38,8.38,0,0,0,462.08,5.34Z" transform="translate(-60.68 -5.34)"/><path class="cls-1" d="M455.79,13.84l-2.49.61c.95,4.43,4.19,7.92,10.74,10.49A23.64,23.64,0,0,1,455.79,13.84Z" transform="translate(-60.68 -5.34)"/><path class="cls-3" d="M465.42,31.4c-.64,0-1.29.71-1.5,1.68s.15,2.06.84,2.21a.65.65,0,0,0,.19,0c.64,0,1.29-.7,1.5-1.68s-.15-2.06-.85-2.21Z" transform="translate(-60.68 -5.34)"/><path class="cls-3" d="M453.34,28.78c-.64,0-1.29.71-1.5,1.68s.14,2.06.84,2.21a.55.55,0,0,0,.18,0c.65,0,1.3-.7,1.51-1.68s-.15-2.06-.85-2.21Z" transform="translate(-60.68 -5.34)"/><path class="cls-8" d="M458.09,32.38s-3.77,5.64-7.09,8c1.37,2,4.29,2.07,4.82,2.07h.08Z" transform="translate(-60.68 -5.34)"/><path class="cls-3" d="M466.35,43.58a.3.3,0,0,0-.22.08,8.48,8.48,0,0,1-5.6,2,9.23,9.23,0,0,1-2-.22h-.07a.33.33,0,0,0-.31.25.32.32,0,0,0,.24.38h0a10.27,10.27,0,0,0,2.2.24,8.94,8.94,0,0,0,6-2.22.32.32,0,0,0,0-.45A.33.33,0,0,0,466.35,43.58Z" transform="translate(-60.68 -5.34)"/><path class="cls-3" d="M467,25.92a.64.64,0,0,0-.09,1.28,5.11,5.11,0,0,1,3.57,3,.61.61,0,0,0,.43.35l.16,0a.64.64,0,0,0,.57-.91,6.34,6.34,0,0,0-4.55-3.7Z" transform="translate(-60.68 -5.34)"/><path class="cls-3" d="M454.63,22.12a6.44,6.44,0,0,0-5,2.57.64.64,0,0,0,.36,1h0l.15,0a.63.63,0,0,0,.51-.25,5.18,5.18,0,0,1,4-2.07h.19a.65.65,0,0,0,.06-1.29Z" transform="translate(-60.68 -5.34)"/><path class="cls-2" d="M509.18,93.67l-18,10c2.23,4.31,4.63,8.92,6.83,13.45s4.43,9.12,6.51,13.71a239.78,239.78,0,0,1,10.95,27.68l1,3.41a7.69,7.69,0,0,1,.35,1.83,12.21,12.21,0,0,1-.55,4.51,35.14,35.14,0,0,1-6.11,10.86,93.3,93.3,0,0,1-9.78,10.56c-1.81,1.67-3.63,3.37-5.54,5s-3.91,3.22-5.75,4.67l5.06,8.84c2.66-1.18,5-2.39,7.41-3.74s4.76-2.71,7.05-4.25a87.94,87.94,0,0,0,13.22-10.54c4.1-4.12,8.1-8.83,10.81-15.2a29.48,29.48,0,0,0,2.43-10.74,26.73,26.73,0,0,0-.52-5.92l-.93-4.16a154.26,154.26,0,0,0-4.63-15.84c-1.74-5.17-3.72-10.18-5.78-15.14S519,112.8,516.66,108,512,98.5,509.18,93.67Z" transform="translate(-60.68 -5.34)"/><path class="cls-5" d="M509.18,93.67l-18,10c2.23,4.31,4.63,8.92,6.83,13.45s4.43,9.12,6.51,13.71a239.78,239.78,0,0,1,10.95,27.68l1,3.41a7.69,7.69,0,0,1,.35,1.83,12.21,12.21,0,0,1-.55,4.51,35.14,35.14,0,0,1-6.11,10.86,93.3,93.3,0,0,1-9.78,10.56c-1.81,1.67-3.63,3.37-5.54,5s-3.91,3.22-5.75,4.67l5.06,8.84c2.66-1.18,5-2.39,7.41-3.74s4.76-2.71,7.05-4.25a87.94,87.94,0,0,0,13.22-10.54c4.1-4.12,8.1-8.83,10.81-15.2a29.48,29.48,0,0,0,2.43-10.74,26.73,26.73,0,0,0-.52-5.92l-.93-4.16a154.26,154.26,0,0,0-4.63-15.84c-1.74-5.17-3.72-10.18-5.78-15.14S519,112.8,516.66,108s-4.71-9.5-7.48-14.33Z" transform="translate(-60.68 -5.34)"/><path class="cls-6" d="M503.07,83c-11.86,0-20.08,14.21-14.62,29.34,5.69,15.77,16.76,27.41,16.76,27.41l22.68-20.57s-8.83-33.07-21.5-35.82A16,16,0,0,0,503.07,83Z" transform="translate(-60.68 -5.34)"/><path class="cls-2" d="M491.84,197.83l-14.57.15,9,14.69s10.37-2.57,11.3-7.78Z" transform="translate(-60.68 -5.34)"/><path class="cls-5" d="M491.84,197.83l-14.57.15,9,14.69s10.37-2.57,11.3-7.78l-5.77-7.06Z" transform="translate(-60.68 -5.34)"/><path class="cls-2" d="M477.27,198l-9.09,8.67,8.05,11.8,10.08-5.78Z" transform="translate(-60.68 -5.34)"/><path class="cls-5" d="M477.27,198l-9.09,8.67,8.05,11.8,10.08-5.78-9-14.69Z" transform="translate(-60.68 -5.34)"/><path class="cls-2" d="M486.45,37.36c-4.05,0-7.25,4.78-8.24,8.28s.53,6.91,3.77,6.91a5.42,5.42,0,0,0,1.58-.24,12.75,12.75,0,0,0,7.58-6.17c1.93-3.67.22-8.2-4.06-8.74C486.87,37.38,486.65,37.36,486.45,37.36Z" transform="translate(-60.68 -5.34)"/><path class="cls-7" d="M361.93,297.66l-16.2,1.17.11,1.52,16.2-1.18Z" transform="translate(-60.68 -5.34)"/><path class="cls-7" d="M376.5,296.6l-8,.58.11,1.52,8-.58Z" transform="translate(-60.68 -5.34)"/><path class="cls-7" d="M447.9,118.1q-.76,0-1.53.06l-268.3,19.41a21.22,21.22,0,0,0-19.59,22.64l9.15,126.49a21.23,21.23,0,0,0,21.11,19.64c.5,0,1,0,1.53,0l15.17-1.1h.31a4.18,4.18,0,0,1,4.16,3.88l1.7,23.44a2.28,2.28,0,0,0,2.3,2.13,2.25,2.25,0,0,0,1.71-.79l25.44-29.41a6.17,6.17,0,0,1,4.22-2.12l213.29-15.43a21.23,21.23,0,0,0,19.59-22.64L469,137.75A21.25,21.25,0,0,0,447.9,118.1Z" transform="translate(-60.68 -5.34)"/><path class="cls-7" d="M148.2,44.05c-9.43,0-19.14,4.28-23,16.13-3.76,1.73-6.24,7.8-1.26,18.68s2.22,25.84,2.22,25.84,1.52.43,4.22,1a23.79,23.79,0,0,0,2.78-7.7,39.78,39.78,0,0,1-1.25,8,90.09,90.09,0,0,0,14.72,1.19,86.32,86.32,0,0,0,28.07-4.58,40.55,40.55,0,0,1-.36-6.66,20.81,20.81,0,0,0,1.47,6.27c1.63-.58,3.26-1.24,4.9-2-2-7.13-2.06-38.3-13.34-49.37C163.38,46.89,155.89,44.05,148.2,44.05Z" transform="translate(-60.68 -5.34)"/><path class="cls-9" d="M196.16,161.6a1,1,0,0,1,.25,0h-.24C196,161.64,196.05,161.6,196.16,161.6Zm-10.95-32.28-11.91,3.17c.48,1.86.94,3.38,1.49,5s1.06,3.19,1.62,4.77c1.17,3.13,2.38,6.24,3.66,9.3s2.64,6.09,4,9.1c.69,1.5,1.43,3,2.15,4.47l.54,1.11.41.81a10.57,10.57,0,0,0,.61,1,9.51,9.51,0,0,0,8.06,4.31,9.91,9.91,0,0,0,1.25-.07,14.65,14.65,0,0,0,3.67-.94,26.73,26.73,0,0,0,5.28-2.89,59.75,59.75,0,0,0,8-6.86c2.41-2.42,4.66-4.91,6.83-7.46s4.19-5.16,6.13-8l-4.66-3.94c-2.31,2.15-4.65,4.39-7.06,6.47s-4.78,4.2-7.25,6.11a62.86,62.86,0,0,1-7.42,5.08,16.59,16.59,0,0,1-3.41,1.53l-.34.09-.39-1-1.75-4.49c-1.19-3-2.28-6-3.43-9s-2.19-6-3.21-9q-.81-2.25-1.54-4.48Z" transform="translate(-60.68 -5.34)"/><path class="cls-10" d="M196.16,161.6a1,1,0,0,1,.25,0h-.24c-.13,0-.12-.05,0-.05Zm-10.95-32.28-11.91,3.17c.48,1.86.94,3.38,1.49,5s1.06,3.19,1.62,4.77c1.17,3.13,2.38,6.24,3.66,9.3s2.64,6.09,4,9.1c.69,1.5,1.43,3,2.15,4.47l.54,1.11.41.81a10.57,10.57,0,0,0,.61,1,9.51,9.51,0,0,0,8.06,4.31,9.91,9.91,0,0,0,1.25-.07,14.65,14.65,0,0,0,3.67-.94,26.73,26.73,0,0,0,5.28-2.89,59.75,59.75,0,0,0,8-6.86c2.41-2.42,4.66-4.91,6.83-7.46s4.19-5.16,6.13-8l-4.66-3.94c-2.31,2.15-4.65,4.39-7.06,6.47s-4.78,4.2-7.25,6.11a62.86,62.86,0,0,1-7.42,5.08,16.59,16.59,0,0,1-3.41,1.53l-.34.09-.39-1-1.75-4.49c-1.19-3-2.28-6-3.43-9s-2.19-6-3.21-9q-.81-2.25-1.54-4.48l-1.38-4.33Z" transform="translate(-60.68 -5.34)"/><path class="cls-11" d="M175.89,115c-4,0-6.64,1.81-9.61,6.07-4,5.76,9.81,27.51,9.81,27.51l14.43-9.82s-3.66-21.56-8.9-22.89A23.42,23.42,0,0,0,175.89,115Z" transform="translate(-60.68 -5.34)"/><path class="cls-1" d="M175.89,115c-4,0-6.64,1.81-9.61,6.07-4,5.76,9.81,27.51,9.81,27.51l14.43-9.82s-3.66-21.56-8.9-22.89A23.42,23.42,0,0,0,175.89,115Z" transform="translate(-60.68 -5.34)"/><path class="cls-7" d="M181.15,120.63l-4.09,27.23,8.11-5.5Z" transform="translate(-60.68 -5.34)"/><path class="cls-9" d="M226.94,131.25l-4.82,11.6,1.81,4.37a5.77,5.77,0,0,0,1.61.22c4.28,0,7.34-4.59,7.34-4.59Z" transform="translate(-60.68 -5.34)"/><path class="cls-10" d="M226.94,131.25l-4.82,11.6,1.81,4.37a5.77,5.77,0,0,0,1.61.22c4.28,0,7.34-4.59,7.34-4.59l-5.94-11.6Z" transform="translate(-60.68 -5.34)"/><path class="cls-9" d="M232.25,130l-5.31,1.21,5.94,11.6,7-9.73Z" transform="translate(-60.68 -5.34)"/><path class="cls-10" d="M232.25,130l-5.31,1.21,5.94,11.6,7-9.73L232.25,130Z" transform="translate(-60.68 -5.34)"/><path class="cls-12" d="M154.12,449.24l-.84,29.44H166l.85-29.44Z" transform="translate(-60.68 -5.34)"/><path class="cls-12" d="M83.26,415.28,68,440.76l11.69,5L95,420.26Z" transform="translate(-60.68 -5.34)"/><path class="cls-3" d="M69.2,436.37a1,1,0,0,0-.78.37l-7.31,8.78a2,2,0,0,0,.56,3c4.29,2.53,6.48,3.54,11.83,6.83,3.29,2,7.89,5.32,12.44,8.11a5.36,5.36,0,0,0,2.83.89c2.8,0,4.34-2.8,3.07-4-7.36-7-7.15-10.38-8.54-14.54A3.34,3.34,0,0,0,81.9,444l-12.16-7.47A1,1,0,0,0,69.2,436.37Z" transform="translate(-60.68 -5.34)"/><path class="cls-3" d="M152.12,477.21a1,1,0,0,0-1,.86l-1.63,11.3a2,2,0,0,0,2,2.26h0c5-.08,7.38-.37,13.66-.37,3.86,0,11.85.4,17.19.4s5.62-5.28,3.4-5.75c-10-2.15-13.89-5.1-17.24-7.92a3.33,3.33,0,0,0-2.13-.78h-14.3Z" transform="translate(-60.68 -5.34)"/><path class="cls-13" d="M154.11,449.25l-.43,15.17H166.4l.43-15.17Z" transform="translate(-60.68 -5.34)"/><path class="cls-13" d="M83.25,415.29l-7.89,13.13,11.7,5L95,420.27Z" transform="translate(-60.68 -5.34)"/><path class="cls-1" d="M150.18,112.14c-4.25,0-8.62.19-13.49.42a153.09,153.09,0,0,0-21.92,2.89c10,43.12,10,56.07,9.15,77.09h51.63c12.13-74.59,6.07-76.72,6.07-76.72s-11.42-2.34-21.49-3.26C156.77,112.26,153.51,112.14,150.18,112.14Z" transform="translate(-60.68 -5.34)"/><path class="cls-14" d="M150.13,112.14c-4.23,0-8.59.19-13.44.41-.95,0-1.91.12-2.87.19l.16.56c.11.39,2.81,9.73,18.79,9.73,4.33,0,10.26-.48,11.91-4.57A6.27,6.27,0,0,0,164,113c-1.28-.16-2.58-.3-3.84-.41C156.76,112.26,153.49,112.14,150.13,112.14Z" transform="translate(-60.68 -5.34)"/><path class="cls-9" d="M139,86.16c1.47,7.55,2.95,21.37-2.33,26.4,0,0,2.07,7.65,16.08,7.65,15.41,0,7.37-7.65,7.37-7.65-8.42-2-8.2-8.25-6.73-14.11Z" transform="translate(-60.68 -5.34)"/><path class="cls-7" d="M140.55,80.8l-5.41,8.54s2.48,12.83,9.83,17C141.24,100.91,138.74,86.77,140.55,80.8Z" transform="translate(-60.68 -5.34)"/><path class="cls-15" d="M144.88,91.18a11.38,11.38,0,0,0-.17,4.07c.34,3.37,4.76,6.89,8,7.36a24.33,24.33,0,0,1,.72-4.16Z" transform="translate(-60.68 -5.34)"/><path class="cls-9" d="M148.62,51.27a17.24,17.24,0,0,0-16.57,21.42C135,85,136,90.22,143.36,95.48A18.11,18.11,0,0,0,153.9,99,15.51,15.51,0,0,0,169.67,84.2c.71-11.61-4.22-29.72-17.23-32.52A18.13,18.13,0,0,0,148.62,51.27Z" transform="translate(-60.68 -5.34)"/><path class="cls-11" d="M137.74,192.54s13.71,96.58,15.37,139.75c1.52,39.6-1.2,129.2-1.2,129.2H169.1s14.77-92,15.64-132.28c.83-38.76-9.19-136.67-9.19-136.67Z" transform="translate(-60.68 -5.34)"/><path class="cls-6" d="M137.74,192.54s13.71,96.58,15.37,139.75c1.52,39.6-1.2,129.2-1.2,129.2H169.1s14.77-92,15.64-132.28c.83-38.76-9.19-136.67-9.19-136.67Z" transform="translate(-60.68 -5.34)"/><path class="cls-1" d="M149.48,454.88l.94,7.22h20.17l1.48-6.43Z" transform="translate(-60.68 -5.34)"/><path class="cls-1" d="M147.89,210.84c-2.69,0-4.52,5.83-5.75,14.29,3,23.33,6.9,55.11,9.2,81.12,4.48-17.31,14.62-63.85,1.94-89.35C151.18,212.67,149.4,210.84,147.89,210.84Z" transform="translate(-60.68 -5.34)"/><path class="cls-11" d="M123.92,192.53c-13.67,28.47,1,93.49-16.14,137.11-8,20.44-32.69,95.47-32.69,95.47l16,6.79S130.9,365.81,141.39,327c8.83-32.68,20.52-134.47,20.52-134.47Z" transform="translate(-60.68 -5.34)"/><path class="cls-6" d="M123.92,192.53c-13.67,28.47,1,93.49-16.14,137.11-8,20.44-32.69,95.47-32.69,95.47l16,6.79S130.9,365.81,141.39,327c8.83-32.68,20.52-134.47,20.52-134.47Z" transform="translate(-60.68 -5.34)"/><path class="cls-1" d="M74.61,417.3l-1.71,7.86,19.78,8.42,4.76-5.32Z" transform="translate(-60.68 -5.34)"/><path class="cls-3" d="M152.49,70.8l-.14,0c-.66.11-1.06,1-.88,2s.76,1.63,1.38,1.63H153c.66-.11,1-1,.87-2S153.1,70.8,152.49,70.8Z" transform="translate(-60.68 -5.34)"/><path class="cls-3" d="M163.9,68.8h-.14c-.66.11-1,1-.87,2s.76,1.63,1.37,1.63l.14,0c.66-.11,1-1,.88-2S164.51,68.8,163.9,68.8Z" transform="translate(-60.68 -5.34)"/><path class="cls-3" d="M165.78,67.79l-2.3,1.12a1.25,1.25,0,0,0,.73.27C165.18,69.18,165.78,67.79,165.78,67.79Z" transform="translate(-60.68 -5.34)"/><path class="cls-16" d="M160.18,73.11l1.24,7.12h.23a4.19,4.19,0,0,0,3.26-1.32C162.65,77.16,160.18,73.11,160.18,73.11Z" transform="translate(-60.68 -5.34)"/><path class="cls-3" d="M151.18,82.16a.32.32,0,0,0-.21.08.31.31,0,0,0,0,.43,8.42,8.42,0,0,0,5.9,2.31,9.82,9.82,0,0,0,1.72-.15.31.31,0,0,0,.25-.35.31.31,0,0,0-.3-.24h-.06a8.71,8.71,0,0,1-1.57.14,8,8,0,0,1-5.49-2.12A.28.28,0,0,0,151.18,82.16Z" transform="translate(-60.68 -5.34)"/><path class="cls-7" d="M147.29,48.34a20.32,20.32,0,0,0-6,.77c-6.88,2.18-13.67,9.29-11.64,19.06s5.94,13.42,5.94,13.42-2.86-9.85.73-16.09a90.22,90.22,0,0,0,1.52,9.62s7.61-9.61,8.86-14.76A21.23,21.23,0,0,1,145,66.21s10.23-2.22,11.23-9a42.4,42.4,0,0,1-1,9s9.76-3.82,8.86-10.3C163.4,51,154.52,48.34,147.29,48.34Z" transform="translate(-60.68 -5.34)"/><path class="cls-9" d="M135.15,76h-.09c-3.11.07-4.67,3.2-3.54,6a9.19,9.19,0,0,0,5,5,3.79,3.79,0,0,0,1.44.3c2.12,0,3.32-2.2,2.88-4.7C140.35,79.82,138.25,76,135.15,76Z" transform="translate(-60.68 -5.34)"/><path class="cls-7" d="M138.2,60.82l-5,8.79s3.08,12.71,10.62,16.55C139.83,80.88,136.67,66.88,138.2,60.82Z" transform="translate(-60.68 -5.34)"/><path class="cls-3" d="M151.13,65.21h-.08a6,6,0,0,0-4.37,3.34.6.6,0,0,0,.53.87l.18,0a.62.62,0,0,0,.36-.31,4.81,4.81,0,0,1,3.43-2.68.6.6,0,0,0,.54-.67A.59.59,0,0,0,151.13,65.21Z" transform="translate(-60.68 -5.34)"/><path class="cls-3" d="M163,61.7a3.26,3.26,0,0,0-.7.06.6.6,0,0,0,.1,1.19h.11a4.56,4.56,0,0,1,.5,0,4.87,4.87,0,0,1,3.56,1.59.61.61,0,0,0,.44.19h0a.61.61,0,0,0,.44-1A6.12,6.12,0,0,0,163,61.7Z" transform="translate(-60.68 -5.34)"/><path class="cls-9" d="M109.37,129.49a190.92,190.92,0,0,0-6.06,21.84c-.79,3.7-1.54,7.42-2,11.21a101.93,101.93,0,0,0-1.07,11.56l0,1.47c0,.51,0,1.33,0,1.89a28.67,28.67,0,0,0,.46,3.33c.41,2.06.92,4,1.47,5.82,1.1,3.72,2.42,7.24,3.77,10.74,2.82,7,5.83,13.71,9.29,20.34l5.65-2.32-3.09-10.5c-1-3.49-2-7-3-10.48s-1.82-7-2.56-10.36c-.35-1.7-.65-3.39-.83-4.95a17.28,17.28,0,0,1-.16-2.15c0-.36,0-.45.05-.86l.12-1.28a155.47,155.47,0,0,1,3.79-20.72c1.71-6.88,3.73-13.9,5.84-20.58Z" transform="translate(-60.68 -5.34)"/><path class="cls-10" d="M109.37,129.49a190.92,190.92,0,0,0-6.06,21.84c-.79,3.7-1.54,7.42-2,11.21a101.93,101.93,0,0,0-1.07,11.56l0,1.47c0,.51,0,1.33,0,1.89a28.67,28.67,0,0,0,.46,3.33c.41,2.06.92,4,1.47,5.82,1.1,3.72,2.42,7.24,3.77,10.74,2.82,7,5.83,13.71,9.29,20.34l5.65-2.32-3.09-10.5c-1-3.49-2-7-3-10.48s-1.82-7-2.56-10.36c-.35-1.7-.65-3.39-.83-4.95a17.28,17.28,0,0,1-.16-2.15c0-.36,0-.45.05-.86l.12-1.28a155.47,155.47,0,0,1,3.79-20.72c1.71-6.88,3.73-13.9,5.84-20.58l-11.67-4Z" transform="translate(-60.68 -5.34)"/><path class="cls-1" d="M116.67,115.17a6.63,6.63,0,0,0-1.9.28c-5.17,1.57-11.39,19.38-11.39,19.38l20.07,14.35s7.32-14.87,5.15-21.56C126.58,121.41,121.85,115.17,116.67,115.17Z" transform="translate(-60.68 -5.34)"/><path class="cls-11" d="M82.78,446.12c1.84,0,4.29.26,4.78,1a.45.45,0,0,1,0,.45,1.12,1.12,0,0,1-.83.75.86.86,0,0,1-.23,0C85.64,448.31,84.29,447.52,82.78,446.12Zm-.17-.61H82a.3.3,0,0,0-.2.51c1.11,1.11,3.13,2.88,4.68,2.88a2,2,0,0,0,.35,0l.18,0a1.76,1.76,0,0,0,1.08-1.06,1,1,0,0,0-.07-1C87.3,445.63,84,445.51,82.61,445.51Z" transform="translate(-60.68 -5.34)"/><path class="cls-11" d="M85.91,442.68a1,1,0,0,1,.62.22c.31.24.29.43.24.57-.31.83-2.62,1.83-4.15,2,.65-.94,1.86-2.42,2.91-2.75l.18,0A.71.71,0,0,1,85.91,442.68Zm0-.6-.31,0c-1.81.33-3.75,3.43-3.83,3.56a.3.3,0,0,0,.25.46h.08a7.32,7.32,0,0,0,2-.38c1.4-.44,2.89-1.21,3.21-2.07a1.05,1.05,0,0,0-.42-1.25A1.54,1.54,0,0,0,85.92,442.08Z" transform="translate(-60.68 -5.34)"/><path class="cls-11" d="M173.46,476.8h0a1.12,1.12,0,0,1,.56.11.36.36,0,0,1,.2.33,1.06,1.06,0,0,1-.34,1,4.25,4.25,0,0,1-2.69.63,19.34,19.34,0,0,1-3-.28A16.29,16.29,0,0,1,173.46,476.8Zm0-.59c-2.05,0-5.86,2-6.35,2.21a.3.3,0,0,0,.08.56,22,22,0,0,0,4,.45,4.81,4.81,0,0,0,3.08-.78,1.68,1.68,0,0,0,.54-1.47,1,1,0,0,0-.51-.8A1.75,1.75,0,0,0,173.47,476.21Z" transform="translate(-60.68 -5.34)"/><path class="cls-11" d="M170.31,473.83h.15c.55.05.59.27.6.34.14.87-1.89,3-3.44,4,.15-1,.57-3.05,1.62-3.92a1.6,1.6,0,0,1,1-.39Zm0-.6a2.17,2.17,0,0,0-1.42.53c-1.6,1.33-1.89,4.75-1.91,4.89a.29.29,0,0,0,.13.27.28.28,0,0,0,.18.06.27.27,0,0,0,.12,0c1.51-.68,4.51-3.42,4.27-4.86-.05-.34-.29-.77-1.13-.85Z" transform="translate(-60.68 -5.34)"/><path class="cls-1" d="M124,189.12a.94.94,0,0,0-.84.39l-1.32,4.62c-.18.36.24.72.84.72H175.8c.47,0,.85-.23.88-.52l.47-4.62c0-.32-.37-.59-.88-.59Z" transform="translate(-60.68 -5.34)"/><path class="cls-11" d="M129.5,188.71c-.28,0-.53.14-.55.32l-.65,6c0,.18.19.32.47.32h1.4c.28,0,.52-.14.54-.32l.66-6c0-.18-.19-.32-.47-.32Z" transform="translate(-60.68 -5.34)"/><path class="cls-17" d="M129.5,188.71c-.28,0-.53.14-.55.32l-.65,6c0,.18.19.32.47.32h1.4c.28,0,.52-.14.54-.32l.66-6c0-.18-.19-.32-.47-.32Z" transform="translate(-60.68 -5.34)"/><path class="cls-11" d="M171.19,188.71c-.28,0-.52.14-.54.32l-.65,6c0,.18.19.32.47.32h1.4c.27,0,.52-.14.54-.32l.66-6c0-.18-.2-.32-.48-.32Z" transform="translate(-60.68 -5.34)"/><path class="cls-17" d="M171.19,188.71c-.28,0-.52.14-.54.32l-.65,6c0,.18.19.32.47.32h1.4c.27,0,.52-.14.54-.32l.66-6c0-.18-.2-.32-.48-.32Z" transform="translate(-60.68 -5.34)"/><path class="cls-11" d="M150.34,188.71c-.27,0-.52.14-.54.32l-.66,6c0,.18.2.32.48.32H151c.28,0,.52-.14.54-.32l.66-6c0-.18-.2-.32-.48-.32Z" transform="translate(-60.68 -5.34)"/><path class="cls-17" d="M150.34,188.71c-.27,0-.52.14-.54.32l-.66,6c0,.18.2.32.48.32H151c.28,0,.52-.14.54-.32l.66-6c0-.18-.2-.32-.48-.32Z" transform="translate(-60.68 -5.34)"/><path class="cls-3" d="M154.37,69.8l-2.3,1.12a1.23,1.23,0,0,0,.73.27C153.77,71.19,154.37,69.8,154.37,69.8Z" transform="translate(-60.68 -5.34)"/><path class="cls-9" d="M120.41,213.65l-5.25,0c-1.86,5,3.52,11.08,3.52,11.08L131.3,222Z" transform="translate(-60.68 -5.34)"/><path class="cls-10" d="M120.41,213.65l-5.25,0c-1.86,5,3.52,11.08,3.52,11.08L131.3,222l-10.89-8.36Z" transform="translate(-60.68 -5.34)"/><path class="cls-9" d="M131.3,222l-13.87,1.12,5.85,11L134,232.36Z" transform="translate(-60.68 -5.34)"/><path class="cls-10" d="M131.3,222l-13.87,1.12,5.85,11L134,232.36,131.3,222Z" transform="translate(-60.68 -5.34)"/><path class="cls-18" d="M223.68,244.86l-14.81.87-2.65-45.49-4.39.26L204.48,246l-14.81.87L186.36,190l34-2Zm9.45-57.56,14.88-.87a34.81,34.81,0,0,1,9.32.41,10.28,10.28,0,0,1,5,2.45,9.18,9.18,0,0,1,2.46,4.22,37.52,37.52,0,0,1,1.06,7.83l.29,4.95c.21,3.63,0,6.29-.66,8a7.72,7.72,0,0,1-3.92,4.06,19.2,19.2,0,0,1-7.75,1.79l-4,.24,1.34,22.88-14.78.86Zm15.34,8.86.84,14.46c.43,0,.79,0,1.09,0a3.37,3.37,0,0,0,2.75-1.15c.5-.71.69-2.11.57-4.22l-.27-4.67c-.12-1.94-.5-3.18-1.14-3.73S250.39,196.05,248.47,196.16Zm63.87,43.53-12.35.73-1.51-25.87-6.18,26.31-12.95.76L276,184.76l12.36-.72,1.49,25.66,6.79-26.14,12.35-.72Zm9.41-57.56,14.74-.86a39.06,39.06,0,0,1,10.63.47,10.49,10.49,0,0,1,6.08,4.09q2.42,3.16,2.84,10.54.29,5-1.18,7t-6,3.37q5.19.87,7.17,3.46t2.3,8.11l.31,5.26q.35,5.76-.83,8.61a7,7,0,0,1-4,4q-2.82,1.19-11.73,1.71l-17.1,1ZM337.09,191l.74,12.64,1.47-.12c1.45-.09,2.36-.49,2.71-1.22s.44-2.81.24-6.18a9.72,9.72,0,0,0-.71-3.69,2.39,2.39,0,0,0-1.37-1.29A11.31,11.31,0,0,0,337.09,191Zm1.26,21.48.92,15.9c2.08-.19,3.38-.6,3.91-1.21s.76-2.08.63-4.37l-.31-5.3c-.14-2.44-.49-3.89-1-4.38S340.55,212.41,338.35,212.47Zm30-33.05L393,178l.66,11.37-9.86.58.63,10.77,9.23-.54.63,10.81-9.23.54.72,12.5,10.85-.64.66,11.37-25.62,1.5Zm66.49-3.88.66,11.37-8.77.51,2.65,45.45-14.77.86-2.66-45.45-8.73.51-.67-11.37Zm25.36-1.48.18,42.92-10.95.64L444.58,175Zm1.49,45.52.67,11.37-13.27.77-.66-11.37Z" transform="translate(-60.68 -5.34)"/></svg>