<svg id="Слой_1" data-name="Слой 1" xmlns="http://www.w3.org/2000/svg" viewBox="0 0 538.46 420.57"><defs><style>.cls-1{fill:#eee;}.cls-1,.cls-10,.cls-11,.cls-12,.cls-13,.cls-14,.cls-2,.cls-3,.cls-4,.cls-5,.cls-6,.cls-7,.cls-8,.cls-9{fill-rule:evenodd;}.cls-2{fill:#e0e0e0;}.cls-3{fill:#585858;fill-opacity:0.21;}.cls-4{fill:#263238;}.cls-5{fill:#b3b2ef;}.cls-13,.cls-7{fill:#fff;}.cls-8{fill:#ffa68f;}.cls-9{fill:#ed847e;}.cls-10{fill:#407bff;}.cls-11{fill:#1e1e83;}.cls-12{fill:#771aee;}.cls-13{fill-opacity:0.09;}.cls-14{fill:#595959;fill-opacity:0.18;}</style></defs><title>tesla</title><path class="cls-1" d="M785.83,250.75a173.12,173.12,0,0,0-29.14-3.62A171.63,171.63,0,0,0,580.37,393.45,172.86,172.86,0,0,0,578.64,412a177.33,177.33,0,0,0,.23,17.86,169,169,0,0,0,5.82,34.53,171.94,171.94,0,0,0,60.73,90.29l0,0a171.52,171.52,0,0,0,276-129.44c.09-2.25.12-4.48.12-6.71A171.74,171.74,0,0,0,785.83,250.75Z" transform="translate(-412.63 -247)"/><path class="cls-2" d="M868.19,294.22c-14.2,7.27-43.67,22.26-43.67,22.26L785.11,318l-27-3.6-31.52,16.09-13.41,9.78L701.6,363.88l9.69.38,14.46-10.69,20.72-.75,37.45,22.8,2.43,9.94-59.21-8.22-17.36-.67-14.26,12-11.64,50.16,37.79,20.38,39-10.8,9.62,42.1-3.82,58.9S802.12,513,804.2,512s18.64-19.45,18.64-19.45l-5.1-13.78,16.81-38.2,11.68-11.31-18.58-9.07-27.47-29,39.46,23.4L871,409l-14.13-17.66-22.8-4.93-6.8-9.1,42.35,14.52,16.14,32.1,21.22,19,4.84-32.33,9.76,8A171.12,171.12,0,0,0,868.19,294.22Z" transform="translate(-412.63 -247)"/><path class="cls-2" d="M831.47,569.8l-25.31-2.47-48.44,10.39-60.22-2.33L672,562.14l-26.5-7.4a170.5,170.5,0,0,0,68.82,31.85,172.46,172.46,0,0,0,29.16,3.62A170.54,170.54,0,0,0,831.47,569.8Z" transform="translate(-412.63 -247)"/><path class="cls-2" d="M738.22,288.65l-24.32-2-38.61-11.26-16.55,7.5,12.53,12.42-1.27,33,67.74-27.22.48-12.47Z" transform="translate(-412.63 -247)"/><path class="cls-2" d="M640.48,286.61a171,171,0,0,0-60.11,106.84l11.75.45,10.36-17L628.21,359l23.2-19.05,6.17-26.84Z" transform="translate(-412.63 -247)"/><path class="cls-3" d="M706.71,635.09c-58.76,0-115.11,1.71-156.65,4.76s-64.88,7.17-64.88,11.48,23.34,8.44,64.88,11.48,97.89,4.76,156.65,4.76,115.09-1.71,156.64-4.76,64.88-7.18,64.88-11.48-23.34-8.44-64.88-11.48S765.46,635.09,706.71,635.09Z" transform="translate(-412.63 -247)"/><path class="cls-2" d="M629.1,428.19l-21.41-.83-22.28,7.7-6.54-5.15a169,169,0,0,0,5.82,34.52l5.12,2.5,17.73,17.32,17.59,33.63L641.74,538l7,2.83-2-14.92.35-9.19-2.48-15.42L661.77,482,670,467.2,649.31,461,637.61,446Z" transform="translate(-412.63 -247)"/><path class="cls-4" d="M722.51,396.68a2.74,2.74,0,0,0-1,0c-5.63,1-10,11.17-6.63,13a2.82,2.82,0,0,0,.73.25c2.49.53,8.13-.64,10.66-2.38S726.21,397.46,722.51,396.68Z" transform="translate(-412.63 -247)"/><path class="cls-5" d="M687.75,430.93a3,3,0,0,0-3,1.09c-1,1.17-2,2.34-3.08,3.48-2.06,2.29-4.18,4.51-6.3,6.56a57.9,57.9,0,0,1-6.37,5.41,16.3,16.3,0,0,1-6,3,25.75,25.75,0,0,1-3.6.73,36.42,36.42,0,0,1-4,.23,50.86,50.86,0,0,1-8.6-.77c-1-.17-2-.36-3-.57q-3-.64-6-1.52c-1.52-.42-3-.9-4.52-1.4l-2.24-.77-2.13-.76-5.46,8.74c.84.67,1.5,1.19,2.25,1.76s1.49,1.07,2.24,1.58c1.51,1,3.06,2,4.64,2.89a69.5,69.5,0,0,0,10,4.75,61.46,61.46,0,0,0,8.52,2.51,43.9,43.9,0,0,0,15.27.64,38.52,38.52,0,0,0,6.63-1.62,41.25,41.25,0,0,0,6.09-2.74,64.17,64.17,0,0,0,9.74-6.77,96.8,96.8,0,0,0,8.12-7.62c1.24-1.35,2.47-2.69,3.64-4.08l1.75-2.12.85-1.1.91-1.21-15.41-9.93A3,3,0,0,0,687.75,430.93Z" transform="translate(-412.63 -247)"/><path class="cls-6" d="M682.24,449.27A6.91,6.91,0,0,0,677,450c-5.87,3.68-14.22,11.76-18.93,18.85a41.4,41.4,0,0,0,8.4-.31,38.59,38.59,0,0,0,6.62-1.61,41.12,41.12,0,0,0,6.08-2.74,64.85,64.85,0,0,0,9.76-6.77c1.06-.88,2.1-1.78,3.1-2.71C689.25,452.44,685.63,450,682.24,449.27Z" transform="translate(-412.63 -247)"/><path class="cls-5" d="M694.69,428.63a10.32,10.32,0,0,0-9.62,3c-7,7.31-19.87,24-29,54.18l41.49,23.55c3.27-5.15,13.06-31.12,31.9-53.31a5.54,5.54,0,0,0-.49-7.73,62,62,0,0,0-8.33-6.4,197,197,0,0,0-17.63-10c-2.39-1.12-4.8-2.08-6.89-2.84A9.44,9.44,0,0,0,694.69,428.63Z" transform="translate(-412.63 -247)"/><path class="cls-7" d="M697.61,442.23a1.45,1.45,0,0,0-1.06.18l-12.94,7.67a1.49,1.49,0,0,0-.72,1.12l-1.5,13.34a1.49,1.49,0,0,0,1.18,1.63,1.47,1.47,0,0,0,1.07-.17l12.94-7.67a1.51,1.51,0,0,0,.72-1.12l1.5-13.35A1.5,1.5,0,0,0,697.61,442.23Z" transform="translate(-412.63 -247)"/><path class="cls-6" d="M718.32,460c-2.34,3-4,11.17-3.83,17,2.1-3.45,4.4-7,6.91-10.55Z" transform="translate(-412.63 -247)"/><path class="cls-8" d="M726.63,422.17l-14.15,2.74c-1.17,4.21-3.22,8.24-8.86,7-.29-.06-.58-.14-.89-.22,0,0-.46,3.56,4.89,6.84a18.44,18.44,0,0,0,5.81,2.5c3.36.72,4.82-.54,4.82-.54C716.65,435.22,722.81,426.61,726.63,422.17Z" transform="translate(-412.63 -247)"/><path class="cls-8" d="M726.68,399.56c-7.84-1.66-15.33,6.87-18.07,13.4-2.59,6.17,1,13.18,7.08,14.48a10.16,10.16,0,0,0,3.78.07c5.53-.9,8.14-4.66,13.12-10.66A10.63,10.63,0,0,0,727,399.64Z" transform="translate(-412.63 -247)"/><path class="cls-4" d="M735,408.61a3.42,3.42,0,0,0-3.2.53c-2.36,2.48-4.65,8.89-3.92,10.91a2.59,2.59,0,0,0,2.08,1.51c3.56.76,10.36-1.78,11.83-6C742.83,412.68,738.44,409.34,735,408.61Z" transform="translate(-412.63 -247)"/><path class="cls-4" d="M723.08,391.41a14,14,0,0,0-4.54.14c-7.83,1.09-3.12,5.42-3.12,5.42s-1.53-3.64,4.43-2.69l.33.06c5.36,1.14-1.12,7.75,13.21,15,0,0,1.51,1.79,4.87,5.69a2.49,2.49,0,0,0,1.39.88c3.25.69,7-6.7,2.87-8.47-2.58-1.11-2.74-4.24-3.64-9.08a3.52,3.52,0,0,0-3.07-3.08c-2-.42-4.72-.1-7.28-.65a8.48,8.48,0,0,1-1-.25C724.49,393.38,725.16,391.85,723.08,391.41Z" transform="translate(-412.63 -247)"/><path class="cls-8" d="M730.66,418.73c-1.58-.34-3.56.64-4.65,1.65-1.52,1.39-1.58,3.53.51,4.1l.32.08a6.2,6.2,0,0,0,4.37-.7,2.78,2.78,0,0,0,.54-4.63A2.52,2.52,0,0,0,730.66,418.73Z" transform="translate(-412.63 -247)"/><path class="cls-4" d="M721.66,410.18a1.19,1.19,0,0,0-1.08.57c-.37.51-.41,1.12-.07,1.37a.66.66,0,0,0,.19.09,1.2,1.2,0,0,0,1.09-.57c.37-.51.41-1.13.07-1.37A.61.61,0,0,0,721.66,410.18Z" transform="translate(-412.63 -247)"/><path class="cls-4" d="M715.89,406a1.18,1.18,0,0,0-1.08.57c-.38.51-.41,1.13-.08,1.37a.52.52,0,0,0,.2.09,1.2,1.2,0,0,0,1.09-.57c.37-.51.4-1.12.07-1.37A.72.72,0,0,0,715.89,406Z" transform="translate(-412.63 -247)"/><path class="cls-9" d="M717.67,409a23.06,23.06,0,0,1-5.64,2.58c.28,1.51,2.1,2.25,2.1,2.25Z" transform="translate(-412.63 -247)"/><path class="cls-4" d="M719.38,416.86a.21.21,0,0,0-.11,0,4.77,4.77,0,0,1-2.43.09,5.25,5.25,0,0,1-2-.92.13.13,0,0,0-.08,0,.18.18,0,0,0-.14.33,5.72,5.72,0,0,0,2.19,1,6.23,6.23,0,0,0,1,.11,4.71,4.71,0,0,0,1.62-.23A.19.19,0,0,0,719.38,416.86Z" transform="translate(-412.63 -247)"/><path class="cls-4" d="M723.82,407.66a.37.37,0,0,0-.27.68,3,3,0,0,1,1.19,2.41.38.38,0,0,0,.3.36h.08a.36.36,0,0,0,.36-.38,3.69,3.69,0,0,0-1.53-3Z" transform="translate(-412.63 -247)"/><path class="cls-4" d="M717.58,402.56a3.81,3.81,0,0,0-2.6.39.37.37,0,0,0,.1.69h.07a.41.41,0,0,0,.19,0,3,3,0,0,1,2.09-.31,2.45,2.45,0,0,1,.59.19l.09,0a.37.37,0,0,0,.4-.19.37.37,0,0,0-.13-.5A3.41,3.41,0,0,0,717.58,402.56Z" transform="translate(-412.63 -247)"/><path class="cls-4" d="M696.62,431.45a1.06,1.06,0,0,0-.77.14,1,1,0,0,0-.32,1.44,30.83,30.83,0,0,0,19.73,13.8,30.4,30.4,0,0,0,6.86.66,1,1,0,0,0,.24-2.06,1.23,1.23,0,0,0-.27,0,29,29,0,0,1-6.41-.62,28.71,28.71,0,0,1-18.38-12.86A1.1,1.1,0,0,0,696.62,431.45Z" transform="translate(-412.63 -247)"/><path class="cls-4" d="M656.7,482.08l-4,4.78c.66.55,16.48,13.74,44.81,25.68l2.42-5.75C672.54,495.24,656.86,482.21,656.7,482.08Z" transform="translate(-412.63 -247)"/><path class="cls-10" d="M620.9,440.19c-2.41-.51-4.61-.38-6.08,1-5.26,5,.13,9.82,12,16.88L634,446.65S626.84,441.45,620.9,440.19Z" transform="translate(-412.63 -247)"/><path class="cls-7" d="M620.9,440.19c-2.41-.51-4.61-.38-6.08,1-5.26,5,.13,9.82,12,16.88L634,446.65S626.84,441.45,620.9,440.19Z" transform="translate(-412.63 -247)"/><path class="cls-10" d="M629.57,436.29l-.14,0c-2.79-.19-3.36,3-2,9l5.76,2.47S632.18,436.84,629.57,436.29Z" transform="translate(-412.63 -247)"/><path class="cls-7" d="M629.57,436.29l-.14,0c-2.79-.19-3.36,3-2,9l5.76,2.47S632.18,436.84,629.57,436.29Z" transform="translate(-412.63 -247)"/><path class="cls-6" d="M699.92,494.74a.62.62,0,0,0-.64.38.57.57,0,0,0,.14.8l.1,0a.62.62,0,0,0,.64-.38.57.57,0,0,0-.14-.8Z" transform="translate(-412.63 -247)"/><path class="cls-6" d="M698.65,497.15a.64.64,0,0,0-.65.38.59.59,0,0,0,.14.8l.11,0a.62.62,0,0,0,.64-.38.57.57,0,0,0-.14-.8Z" transform="translate(-412.63 -247)"/><path class="cls-6" d="M697.37,499.56a.62.62,0,0,0-.64.38.57.57,0,0,0,.14.8l.1,0a.62.62,0,0,0,.64-.37.59.59,0,0,0-.13-.81Z" transform="translate(-412.63 -247)"/><path class="cls-6" d="M700.59,496.63a.65.65,0,0,0-.64.38.59.59,0,0,0,.13.81.45.45,0,0,0,.11,0,.63.63,0,0,0,.64-.37.59.59,0,0,0-.14-.81Z" transform="translate(-412.63 -247)"/><path class="cls-6" d="M699.31,499.05a.62.62,0,0,0-.64.37.59.59,0,0,0,.14.81l.1,0a.67.67,0,0,0,.65-.38.58.58,0,0,0-.15-.8A.18.18,0,0,0,699.31,499.05Z" transform="translate(-412.63 -247)"/><path class="cls-6" d="M698,501.46a.64.64,0,0,0-.65.37.59.59,0,0,0,.15.81l.1,0a.63.63,0,0,0,.64-.38.58.58,0,0,0-.14-.8A.21.21,0,0,0,698,501.46Z" transform="translate(-412.63 -247)"/><path class="cls-4" d="M632.7,444.92a1.19,1.19,0,0,0-1.21.48l-7.19,10.42a1.16,1.16,0,0,0,.17,1.52l1.46,1.36a6.52,6.52,0,0,0,1.17.86l2.75,1.57a1.26,1.26,0,0,0,.34.13,1.18,1.18,0,0,0,1.31-.67L637,448.37a1.18,1.18,0,0,0-.64-1.57l-1.24-.48a6.34,6.34,0,0,1-1.84-1.13A1.17,1.17,0,0,0,632.7,444.92Z" transform="translate(-412.63 -247)"/><path class="cls-6" d="M504.74,403.1l-45.38,17.49-14.47,39.48L897.3,626.12l25.51-69.57L504.74,403.1Z" transform="translate(-412.63 -247)"/><path class="cls-11" d="M504.74,403.1l-45.38,17.49-14.47,39.48L897.3,626.12l25.51-69.57L504.74,403.1Z" transform="translate(-412.63 -247)"/><path class="cls-4" d="M669,390.62c-12.15-2.57-57.46,18.62-70.46,24.41,0,0,1.91,6.38,13.52,10.64,5.25-6.19,38.93-22.36,50.48-27.58,9.17-4.15,14.14-4.72,12.22-5.42l-4.89-1.8A6.85,6.85,0,0,0,669,390.62Z" transform="translate(-412.63 -247)"/><path class="cls-4" d="M627.13,420.48c-4-.86-9.2-1.75-15.77-2.88l-3.18,6,33.69,21s2.11-11.79-.55-17C639.49,424,635.87,422.34,627.13,420.48Z" transform="translate(-412.63 -247)"/><path class="cls-4" d="M748.42,448.67a11.05,11.05,0,0,0-5.48.21c-15.25,4.38-9.54,23.6-9.54,23.6l42.81,10.87,4.33-9.55C763.27,457.73,755.14,450.1,748.42,448.67Z" transform="translate(-412.63 -247)"/><path class="cls-4" d="M647.17,415.94a2.76,2.76,0,0,0-.51-.05,2.24,2.24,0,0,0-2.18,2.28l.61,30.43a2.24,2.24,0,0,0,1.77,2.14,2.73,2.73,0,0,0,.5.05,2.24,2.24,0,0,0,2.18-2.28l-.6-30.43A2.25,2.25,0,0,0,647.17,415.94Z" transform="translate(-412.63 -247)"/><path class="cls-12" d="M554.09,399.3c-35.89-7.62-78.48-9.09-127.48,5-12.92,3.71-14.41,21.51-13.9,33.35a18.78,18.78,0,0,0,9.58,15.59l18.37,10.28a17.86,17.86,0,0,0,2.7,1.25l14.89,5.47.26.07a1.81,1.81,0,0,0,2.16-2A47.91,47.91,0,0,1,518,415.23a48.81,48.81,0,0,1,5.89,1.65,48.21,48.21,0,0,1,29.59,60.62,47.65,47.65,0,0,1-13.12,20.06,1.81,1.81,0,0,0,.59,3l257.53,94.52a1.21,1.21,0,0,0,.25.08,1.81,1.81,0,0,0,2.16-2,47.91,47.91,0,0,1,57.37-53.07,47.95,47.95,0,0,1,35.48,62.27,47.65,47.65,0,0,1-13.12,20.06,1.81,1.81,0,0,0,.59,3,66.9,66.9,0,0,0,9.17,2.71c17.68,3.76,23.36-5.11,30.56-13.93,8.32-10.19,17.27-41.53,25-48.86s7.21-14.16-6.08-19.54-112.08-73.74-145.57-86c-8.15,12.44-33.82,13.55-65.57,6.81-35.68-7.57-79.06-25.06-113.9-47.55A325.1,325.1,0,0,0,554.09,399.3Z" transform="translate(-412.63 -247)"/><path class="cls-13" d="M554.34,406.71a128.78,128.78,0,0,0-29.43-3.1c39.22,9.65,97.68,36.89,106.64,39C614,427.21,583.25,412.85,554.34,406.71Z" transform="translate(-412.63 -247)"/><path class="cls-13" d="M788.08,474.6a1.85,1.85,0,0,0-1.34.23,29.06,29.06,0,0,1-11.18,3.82,1.65,1.65,0,0,0-.25,3.23c17.46,6,53.1,17.69,78.11,23.41h0a2.08,2.08,0,0,0,1.19-4c-25.23-9.91-60.12-24.12-66.23-26.61A1.93,1.93,0,0,0,788.08,474.6Z" transform="translate(-412.63 -247)"/><path class="cls-4" d="M516.33,423.54a39.44,39.44,0,1,0,24.88,17.09A39.41,39.41,0,0,0,516.33,423.54Z" transform="translate(-412.63 -247)"/><path class="cls-4" d="M856.59,548.43a39.43,39.43,0,1,0,24.88,17.08A39.38,39.38,0,0,0,856.59,548.43Z" transform="translate(-412.63 -247)"/><path class="cls-11" d="M514.85,430.56a32.27,32.27,0,1,0,20.35,14A32.19,32.19,0,0,0,514.85,430.56Z" transform="translate(-412.63 -247)"/><path class="cls-4" d="M513.18,427.24l-4.26,18a4.72,4.72,0,0,1-5.6,3.54,4.59,4.59,0,0,1-2.68-1.67L489.23,432.9l-2.17,1,9.72,15.76a4.72,4.72,0,0,1-4.53,7.18l-18.14-2-.82,2.25,18,4.26a4.73,4.73,0,0,1,1.86,8.29L479,481.07l1,2.17,15.75-9.73a4.62,4.62,0,0,1,3.44-.61,4.72,4.72,0,0,1,3.74,5.15l-2,18.14,2.24.82,4.26-18a4.73,4.73,0,0,1,5.6-3.54,4.64,4.64,0,0,1,2.68,1.67l11.41,14.23,2.17-1-9.71-15.76a4.72,4.72,0,0,1,4.53-7.18l18.13,2,.82-2.24-18-4.27a4.72,4.72,0,0,1-1.87-8.28l14.23-11.42-1-2.17-15.75,9.72a4.66,4.66,0,0,1-3.44.62,4.71,4.71,0,0,1-3.73-5.15l2-18.14Z" transform="translate(-412.63 -247)"/><path class="cls-7" d="M509.61,455.21a7.11,7.11,0,1,0,1,.29A6.87,6.87,0,0,0,509.61,455.21Z" transform="translate(-412.63 -247)"/><path class="cls-11" d="M855.11,555.44a32.27,32.27,0,1,0,20.35,14A32.28,32.28,0,0,0,855.11,555.44Z" transform="translate(-412.63 -247)"/><path class="cls-4" d="M853.44,552.13l-4.26,18A4.71,4.71,0,0,1,840.9,572l-11.41-14.23-2.17,1,9.73,15.76a4.73,4.73,0,0,1-4.54,7.18l-18.13-2-.82,2.24,18,4.27a4.72,4.72,0,0,1,1.87,8.28L819.21,606l1,2.16L836,598.4a4.67,4.67,0,0,1,3.44-.62,4.73,4.73,0,0,1,3.74,5.15l-2,18.14,2.24.83,4.26-18a4.73,4.73,0,0,1,5.6-3.54,4.65,4.65,0,0,1,2.69,1.67l11.41,14.23,2.17-1-9.72-15.75a4.73,4.73,0,0,1,4.53-7.19l18.13,2,.82-2.24-18-4.26a4.74,4.74,0,0,1-1.87-8.29l14.23-11.42-1-2.17-15.74,9.73a4.62,4.62,0,0,1-3.44.61,4.71,4.71,0,0,1-3.74-5.15l2-18.14Z" transform="translate(-412.63 -247)"/><path class="cls-7" d="M849.88,580.1A7.06,7.06,0,0,0,846,593.64a6.74,6.74,0,0,0,1,.29,7.07,7.07,0,0,0,2.92-13.83Z" transform="translate(-412.63 -247)"/><path class="cls-11" d="M615.28,426.12a.71.71,0,0,0-.63.17c-33.29,30.12-42.17,76.67-42.26,77.14a.71.71,0,0,0,.46.8l154,56.53.11,0a.76.76,0,0,0,.49-.07c21.55-11.87,71.15-62,68.56-66.9-1.32-2.5,3.66-12.83,7.12-18.75a.73.73,0,0,0-.26-1,.58.58,0,0,0-.22-.08.68.68,0,0,0-.76.34c-1,1.64-9.27,16.12-7.17,20.09.59,4.22-44.22,51.77-67.68,64.86L573.92,503.1c1.14-5.49,10.79-47.78,41.7-75.75a.72.72,0,0,0,0-1A.7.7,0,0,0,615.28,426.12Z" transform="translate(-412.63 -247)"/><path class="cls-12" d="M624.08,413.42a5.36,5.36,0,0,0-6.37,4.26l-.41,2.21a5.36,5.36,0,0,0,4.15,6.23l.37.06,10.61,1.48a5.48,5.48,0,0,0,2.51-10.61l-10.25-3.46A4.24,4.24,0,0,0,624.08,413.42Z" transform="translate(-412.63 -247)"/><path class="cls-11" d="M425,423.17c-1.26-.27-2.38,1.12-2.24,3a46.2,46.2,0,0,1-1.53,15.14,3.85,3.85,0,0,0,.51,3.15c2.42,3.39,8.86,6.3,13.64,8.1a2.9,2.9,0,0,0,.55.17c2.71.57,5.14-2.13,5.18-6,0-3.48.1-7.56.22-11s-1.58-6.37-3.94-7.12a75,75,0,0,1-11.93-5.25A1.8,1.8,0,0,0,425,423.17Z" transform="translate(-412.63 -247)"/><path class="cls-7" d="M946.31,565.12a70.82,70.82,0,0,0-13.9,2.78,4.77,4.77,0,0,0-1.32,8.35,25.58,25.58,0,0,0,6.47,3.63c3-6.69,6-12.32,8.76-14.74Z" transform="translate(-412.63 -247)"/><path class="cls-5" d="M729.9,449.92l-18.61,9,1.62,3.72c.57,1.29,1.13,2.6,1.66,3.92s1.09,2.62,1.59,3.93,1,2.62,1.48,3.93c1,2.61,1.77,5.22,2.42,7.76.19.64.34,1.26.46,1.88l.22.94,0,.23,0,.09,0,.2a11.1,11.1,0,0,1,0,2.51,28,28,0,0,1-.61,3.47c-.31,1.24-.66,2.51-1.08,3.82-.81,2.61-1.89,5.29-3,8-2.25,5.37-4.94,10.9-7.54,16.24l8.25,6.18c2.41-2.38,4.51-4.75,6.61-7.27s4.05-5.11,5.91-7.86a81.55,81.55,0,0,0,5.22-8.71,49.08,49.08,0,0,0,4-10.41,27.9,27.9,0,0,0,.84-6.74l0-1,0-.49,0-.35-.09-1.37c-.06-.92-.13-1.83-.25-2.71a75.06,75.06,0,0,0-2-10.34c-.45-1.66-.91-3.31-1.42-4.92s-1.09-3.21-1.69-4.79-1.25-3.12-1.93-4.67L731,451.86l-.58-1.15Z" transform="translate(-412.63 -247)"/><path class="cls-5" d="M711.18,513.24s-11.39,13.18-7,18.64a5.75,5.75,0,0,0,3.22,2.26c3.84.82,8.39-4.12,14.58-12.8Z" transform="translate(-412.63 -247)"/><path class="cls-5" d="M712.32,513.65s-11.3,1.07-11.47,3.78c-.08,1.39.68,2.23,2.19,2.55a17.32,17.32,0,0,0,6.84-.55Z" transform="translate(-412.63 -247)"/><path class="cls-4" d="M713.71,509.16a1.19,1.19,0,0,0-1.3.64l-.58,1.19a6.28,6.28,0,0,1-1.27,1.75,1.18,1.18,0,0,0,.08,1.75l9.82,8a1.22,1.22,0,0,0,.5.24,1.18,1.18,0,0,0,1-.28l1.46-1.36a5.87,5.87,0,0,0,.95-1.1l1.78-2.62a1.17,1.17,0,0,0-.41-1.68L714,509.28A1.17,1.17,0,0,0,713.71,509.16Z" transform="translate(-412.63 -247)"/><path class="cls-5" d="M498.06,393.62q-6.71.06-13.63.5a256,256,0,0,0-27.34,3.21q-9.88,1.67-20.16,4.21a38.77,38.77,0,0,0,8.4,2.63c12.27,2.61,29.81,2.68,39.68,1.88C496.13,405.14,497.83,396.68,498.06,393.62Z" transform="translate(-412.63 -247)"/><path class="cls-14" d="M697.33,416.43a25.28,25.28,0,0,1,25-25.53A24.75,24.75,0,0,1,740,398.38a25.76,25.76,0,0,1,7.33,18.05,25,25,0,1,1-50,0Z" transform="translate(-412.63 -247)"/><path class="cls-5" d="M727.78,387.6a29.67,29.67,0,0,0-13.23.22,2.1,2.1,0,0,0-.43,3.94,73.58,73.58,0,0,1,11.68,6.95C742,410.49,748.55,425.4,740.46,432c-4,3.3-11,3.91-18.89,2.23a68,68,0,0,1-25-11.58l-.28-.21a2.19,2.19,0,0,0-.83-.37,2.08,2.08,0,0,0-2.46,2.56,29.7,29.7,0,1,0,34.8-37.06Z" transform="translate(-412.63 -247)"/></svg>